Cormorant-Bold.ufo
<glyph name="exclam" format="1">
  <advance width="263"/>
  <unicode hex="0021"/>
  <outline>
    <contour>
      <point x="95" y="489"/>
      <point x="104" y="322"/>
      <point x="112" y="189" type="curve" smooth="yes"/>
      <point x="112" y="182"/>
      <point x="146" y="182"/>
      <point x="146" y="189" type="curve" smooth="yes"/>
      <point x="156" y="322"/>
      <point x="166" y="489"/>
      <point x="202" y="615" type="curve" smooth="yes"/>
      <point x="205" y="625"/>
      <point x="159" y="629"/>
      <point x="131" y="629" type="curve" smooth="yes"/>
      <point x="103" y="629"/>
      <point x="58" y="625"/>
      <point x="61" y="615" type="curve" smooth="yes"/>
    </contour>
    <component base="period" xOffset="20"/>
  </outline>
</glyph>
<glyph name="numbersign" format="1">
  <advance width="526"/>
  <unicode hex="0023"/>
  <outline>
    <contour>
      <point x="248" y="471" type="line" smooth="yes"/>
      <point x="249" y="477"/>
      <point x="198" y="488"/>
      <point x="198" y="482" type="curve" smooth="yes"/>
      <point x="99" y="-75" type="line" smooth="yes"/>
      <point x="97" y="-80"/>
      <point x="150" y="-89"/>
      <point x="150" y="-83" type="curve" smooth="yes"/>
    </contour>
    <contour>
      <point x="435" y="471" type="line" smooth="yes"/>
      <point x="436" y="477"/>
      <point x="385" y="488"/>
      <point x="385" y="482" type="curve" smooth="yes"/>
      <point x="287" y="-75" type="line" smooth="yes"/>
      <point x="284" y="-80"/>
      <point x="337" y="-89"/>
      <point x="337" y="-83" type="curve" smooth="yes"/>
    </contour>
    <contour>
      <point x="428" y="74" type="line" smooth="yes"/>
      <point x="434" y="74"/>
      <point x="434" y="122"/>
      <point x="428" y="122" type="curve" smooth="yes"/>
      <point x="62" y="122" type="line" smooth="yes"/>
      <point x="57" y="122"/>
      <point x="57" y="74"/>
      <point x="63" y="74" type="curve" smooth="yes"/>
    </contour>
    <contour>
      <point x="463" y="273" type="line" smooth="yes"/>
      <point x="469" y="273"/>
      <point x="469" y="320"/>
      <point x="463" y="320" type="curve" smooth="yes"/>
      <point x="97" y="320" type="line" smooth="yes"/>
      <point x="92" y="320"/>
      <point x="92" y="273"/>
      <point x="98" y="273" type="curve" smooth="yes"/>
    </contour>
  </outline>
</glyph>
<glyph name="dollar" format="1">
  <advance width="422"/>
  <unicode hex="0024"/>
  <outline>
    <contour>
      <point x="205" y="-111"/>
      <point x="234" y="-111"/>
      <point x="234" y="-102" type="curve" smooth="yes"/>
      <point x="234" y="561" type="line" smooth="yes"/>
      <point x="234" y="571"/>
      <point x="205" y="571"/>
      <point x="205" y="561" type="curve" smooth="yes"/>
      <point x="205" y="-102" type="line" smooth="yes"/>
    </contour>
    <contour>
      <point x="137" y="428"/>
      <point x="158" y="457"/>
      <point x="211" y="457" type="curve" smooth="yes"/>
      <point x="299" y="457"/>
      <point x="345" y="358"/>
      <point x="354" y="339" type="curve" smooth="yes"/>
      <point x="357" y="335"/>
      <point x="366" y="338"/>
      <point x="366" y="342" type="curve" smooth="yes"/>
      <point x="366" y="437" type="line" smooth="yes"/>
      <point x="366" y="446"/>
      <point x="364" y="453"/>
      <point x="351" y="457" type="curve" smooth="yes"/>
      <point x="325" y="468"/>
      <point x="274" y="480"/>
      <point x="228" y="480" type="curve" smooth="yes"/>
      <point x="137" y="480"/>
      <point x="54" y="434"/>
      <point x="54" y="353" type="curve" smooth="yes"/>
      <point x="54" y="285"/>
      <point x="115" y="251"/>
      <point x="175" y="219" type="curve" smooth="yes"/>
      <point x="237" y="186"/>
      <point x="302" y="152"/>
      <point x="302" y="85" type="curve" smooth="yes"/>
      <point x="302" y="33"/>
      <point x="265" y="11"/>
      <point x="226" y="11" type="curve" smooth="yes"/>
      <point x="150" y="11"/>
      <point x="96" y="98"/>
      <point x="60" y="161" type="curve" smooth="yes"/>
      <point x="57" y="166"/>
      <point x="48" y="165"/>
      <point x="48" y="159" type="curve" smooth="yes"/>
      <point x="53" y="46" type="line" smooth="yes"/>
      <point x="53" y="34"/>
      <point x="56" y="28"/>
      <point x="61" y="25" type="curve" smooth="yes"/>
      <point x="82" y="7"/>
      <point x="147" y="-12"/>
      <point x="211" y="-12" type="curve" smooth="yes"/>
      <point x="315" y="-12"/>
      <point x="391" y="50"/>
      <point x="391" y="131" type="curve" smooth="yes"/>
      <point x="391" y="207"/>
      <point x="323" y="241"/>
      <point x="258" y="275" type="curve" smooth="yes"/>
      <point x="196" y="305"/>
      <point x="137" y="333"/>
      <point x="137" y="392" type="curve" smooth="yes"/>
    </contour>
    <contour>
      <point x="230" y="468" type="move" name="top"/>
    </contour>
    <contour>
      <point x="225" y="0" type="move" name="bottom"/>
    </contour>
  </outline>
</glyph>
<glyph name="percent" format="1">
  <advance width="574"/>
  <unicode hex="0025"/>
  <outline>
    <contour>
      <point x="226" y="303"/>
      <point x="280" y="359"/>
      <point x="280" y="430" type="curve" smooth="yes"/>
      <point x="280" y="502"/>
      <point x="227" y="560"/>
      <point x="150" y="560" type="curve" smooth="yes"/>
      <point x="73" y="560"/>
      <point x="18" y="503"/>
      <point x="18" y="433" type="curve" smooth="yes"/>
      <point x="18" y="360"/>
      <point x="73" y="303"/>
      <point x="150" y="303" type="curve" smooth="yes"/>
    </contour>
    <contour>
      <point x="112" y="319"/>
      <point x="99" y="371"/>
      <point x="99" y="436" type="curve" smooth="yes"/>
      <point x="99" y="495"/>
      <point x="106" y="544"/>
      <point x="144" y="544" type="curve" smooth="yes"/>
      <point x="179" y="544"/>
      <point x="198" y="503"/>
      <point x="198" y="423" type="curve" smooth="yes"/>
      <point x="198" y="364"/>
      <point x="193" y="319"/>
      <point x="157" y="319" type="curve" smooth="yes"/>
    </contour>
    <contour>
      <point x="503" y="-5"/>
      <point x="557" y="51"/>
      <point x="557" y="123" type="curve" smooth="yes"/>
      <point x="557" y="194"/>
      <point x="504" y="253"/>
      <point x="427" y="253" type="curve" smooth="yes"/>
      <point x="350" y="253"/>
      <point x="295" y="195"/>
      <point x="295" y="125" type="curve" smooth="yes"/>
      <point x="295" y="53"/>
      <point x="350" y="-5"/>
      <point x="427" y="-5" type="curve" smooth="yes"/>
    </contour>
    <contour>
      <point x="389" y="12"/>
      <point x="377" y="63"/>
      <point x="377" y="129" type="curve" smooth="yes"/>
      <point x="377" y="187"/>
      <point x="384" y="236"/>
      <point x="421" y="236" type="curve" smooth="yes"/>
      <point x="456" y="236"/>
      <point x="475" y="195"/>
      <point x="475" y="116" type="curve" smooth="yes"/>
      <point x="475" y="56"/>
      <point x="470" y="12"/>
      <point x="434" y="12" type="curve" smooth="yes"/>
    </contour>
    <contour>
      <point x="481" y="535" type="line" smooth="yes"/>
      <point x="483" y="538"/>
      <point x="454" y="561"/>
      <point x="450" y="557" type="curve" smooth="yes"/>
      <point x="80" y="13" type="line" smooth="yes"/>
      <point x="77" y="9"/>
      <point x="108" y="-12"/>
      <point x="110" y="-8" type="curve" smooth="yes"/>
    </contour>
  </outline>
</glyph>
<glyph name="ampersand" format="1">
  <advance width="716"/>
  <unicode hex="0026"/>
  <outline>
    <contour>
      <point x="65" y="285"/>
      <point x="65" y="131" type="curve" smooth="yes"/>
      <point x="65" y="60"/>
      <point x="129" y="-12"/>
      <point x="274" y="-12" type="curve" smooth="yes"/>
      <point x="502" y="-12"/>
      <point x="556" y="164"/>
      <point x="584" y="262" type="curve" smooth="yes"/>
      <point x="600" y="320"/>
      <point x="607" y="338"/>
      <point x="667" y="338" type="curve" smooth="yes"/>
      <point x="671" y="338"/>
      <point x="671" y="350"/>
      <point x="667" y="350" type="curve" smooth="yes"/>
      <point x="429" y="349" type="line" smooth="yes"/>
      <point x="425" y="349"/>
      <point x="426" y="337"/>
      <point x="429" y="337" type="curve" smooth="yes"/>
      <point x="487" y="337"/>
      <point x="510" y="302"/>
      <point x="510" y="226" type="curve" smooth="yes"/>
      <point x="510" y="105"/>
      <point x="461" y="37"/>
      <point x="351" y="37" type="curve" smooth="yes"/>
      <point x="235" y="37"/>
      <point x="166" y="112"/>
      <point x="166" y="188" type="curve" smooth="yes"/>
      <point x="166" y="347"/>
      <point x="464" y="387"/>
      <point x="464" y="546" type="curve" smooth="yes"/>
      <point x="464" y="609"/>
      <point x="412" y="646"/>
      <point x="330" y="646" type="curve" smooth="yes"/>
      <point x="209" y="646"/>
      <point x="138" y="567"/>
      <point x="138" y="461" type="curve" smooth="yes"/>
      <point x="138" y="418"/>
      <point x="150" y="386"/>
      <point x="167" y="353" type="curve" smooth="yes"/>
      <point x="215" y="265"/>
      <point x="319" y="164"/>
      <point x="404" y="96" type="curve" smooth="yes"/>
      <point x="501" y="18"/>
      <point x="539" y="0"/>
      <point x="561" y="0" type="curve" smooth="yes"/>
      <point x="622" y="0"/>
      <point x="684" y="0"/>
      <point x="725" y="0" type="curve" smooth="yes"/>
      <point x="729" y="0"/>
      <point x="730" y="11"/>
      <point x="725" y="12" type="curve" smooth="yes"/>
      <point x="691" y="21"/>
      <point x="622" y="56"/>
      <point x="527" y="127" type="curve" smooth="yes"/>
      <point x="382" y="236"/>
      <point x="232" y="400"/>
      <point x="232" y="547" type="curve" smooth="yes"/>
      <point x="232" y="593"/>
      <point x="246" y="619"/>
      <point x="284" y="619" type="curve" smooth="yes"/>
      <point x="327" y="619"/>
      <point x="358" y="585"/>
      <point x="358" y="525" type="curve" smooth="yes"/>
      <point x="358" y="336"/>
    </contour>
  </outline>
</glyph>
<glyph name="quotesingle" format="1">
  <advance width="150"/>
  <unicode hex="0027"/>
  <outline>
    <contour>
      <point x="57" y="361"/>
      <point x="71" y="363"/>
      <point x="73" y="366" type="curve" smooth="yes"/>
      <point x="136" y="632" type="line" smooth="yes"/>
      <point x="142" y="654"/>
      <point x="26" y="629"/>
      <point x="28" y="606" type="curve" smooth="yes"/>
      <point x="57" y="365" type="line" smooth="yes"/>
    </contour>
  </outline>
</glyph>
<glyph name="parenleft" format="1">
  <advance width="309"/>
  <unicode hex="0028"/>
  <outline>
    <contour>
      <point x="44" y="117"/>
      <point x="127" y="-44"/>
      <point x="274" y="-117" type="curve" smooth="yes"/>
      <point x="276" y="-118"/>
      <point x="281" y="-113"/>
      <point x="278" y="-111" type="curve" smooth="yes"/>
      <point x="192" y="-15"/>
      <point x="156" y="124"/>
      <point x="156" y="304" type="curve" smooth="yes"/>
      <point x="156" y="484"/>
      <point x="192" y="623"/>
      <point x="278" y="719" type="curve" smooth="yes"/>
      <point x="281" y="722"/>
      <point x="276" y="726"/>
      <point x="274" y="725" type="curve" smooth="yes"/>
      <point x="127" y="653"/>
      <point x="44" y="491"/>
      <point x="44" y="304" type="curve" smooth="yes"/>
    </contour>
    <contour>
      <point x="271" y="386" type="move" name="top"/>
    </contour>
  </outline>
</glyph>
<glyph name="asterisk" format="1">
  <advance width="448"/>
  <unicode hex="002A"/>
  <outline>
    <contour>
      <point x="215" y="485" type="line" smooth="yes"/>
      <point x="216" y="489"/>
      <point x="209" y="494"/>
      <point x="206" y="491" type="curve" smooth="yes"/>
      <point x="50" y="411" type="line" smooth="yes"/>
      <point x="39" y="405"/>
      <point x="151" y="349"/>
      <point x="160" y="366" type="curve" smooth="yes"/>
    </contour>
    <contour>
      <point x="263" y="296"/>
      <point x="352" y="385"/>
      <point x="337" y="399" type="curve" smooth="yes"/>
      <point x="241" y="488" type="line" smooth="yes"/>
      <point x="239" y="490"/>
      <point x="230" y="484"/>
      <point x="232" y="481" type="curve" smooth="yes"/>
      <point x="261" y="309" type="line" smooth="yes"/>
    </contour>
    <contour>
      <point x="207" y="510"/>
      <point x="209" y="518"/>
      <point x="207" y="520" type="curve" smooth="yes"/>
      <point x="82" y="644" type="line" smooth="yes"/>
      <point x="73" y="653"/>
      <point x="53" y="529"/>
      <point x="73" y="526" type="curve" smooth="yes"/>
      <point x="204" y="511" type="line" smooth="yes"/>
    </contour>
    <contour>
      <point x="437" y="476"/>
      <point x="380" y="587"/>
      <point x="361" y="578" type="curve" smooth="yes"/>
      <point x="248" y="513" type="line" smooth="yes"/>
      <point x="244" y="512"/>
      <point x="247" y="504"/>
      <point x="250" y="504" type="curve" smooth="yes"/>
      <point x="425" y="477" type="line" smooth="yes"/>
    </contour>
    <contour>
      <point x="226" y="525"/>
      <point x="235" y="525"/>
      <point x="236" y="529" type="curve" smooth="yes"/>
      <point x="315" y="685" type="line" smooth="yes"/>
      <point x="320" y="697"/>
      <point x="196" y="677"/>
      <point x="200" y="657" type="curve" smooth="yes"/>
      <point x="226" y="529" type="line" smooth="yes"/>
    </contour>
  </outline>
</glyph>
<glyph name="plus" format="1">
  <advance width="398"/>
  <unicode hex="002B"/>
  <outline>
    <contour>
      <point x="364" y="165" type="line" smooth="yes"/>
      <point x="370" y="165"/>
      <point x="370" y="214"/>
      <point x="364" y="214" type="curve" smooth="yes"/>
      <point x="33" y="214" type="line" smooth="yes"/>
      <point x="28" y="214"/>
      <point x="28" y="165"/>
      <point x="34" y="165" type="curve" smooth="yes"/>
    </contour>
    <contour>
      <point x="223" y="354" type="line" smooth="yes"/>
      <point x="223" y="360"/>
      <point x="174" y="360"/>
      <point x="174" y="354" type="curve" smooth="yes"/>
      <point x="174" y="23" type="line" smooth="yes"/>
      <point x="174" y="19"/>
      <point x="223" y="19"/>
      <point x="223" y="25" type="curve" smooth="yes"/>
    </contour>
  </outline>
</glyph>
<glyph name="comma" format="1">
  <advance width="222"/>
  <unicode hex="002C"/>
  <outline>
    <contour>
      <point x="62" y="106"/>
      <point x="36" y="85"/>
      <point x="36" y="48" type="curve" smooth="yes"/>
      <point x="36" y="14"/>
      <point x="56" y="-8"/>
      <point x="91" y="-8" type="curve" smooth="yes"/>
      <point x="116" y="-8"/>
      <point x="132" y="4"/>
      <point x="131" y="27" type="curve"/>
      <point x="94" y="20" type="line"/>
      <point x="107" y="9"/>
      <point x="115" y="-4"/>
      <point x="115" y="-44" type="curve" smooth="yes"/>
      <point x="115" y="-93"/>
      <point x="105" y="-136"/>
      <point x="67" y="-182" type="curve" smooth="yes"/>
      <point x="64" y="-187"/>
      <point x="70" y="-193"/>
      <point x="75" y="-189" type="curve" smooth="yes"/>
      <point x="137" y="-128"/>
      <point x="175" y="-65"/>
      <point x="175" y="9" type="curve" smooth="yes"/>
      <point x="175" y="76"/>
      <point x="147" y="106"/>
      <point x="101" y="106" type="curve" smooth="yes"/>
    </contour>
  </outline>
</glyph>
<glyph name="hyphen" format="1">
  <advance width="323"/>
  <unicode hex="002D"/>
  <outline>
    <contour>
      <point x="291" y="201" type="line" smooth="yes"/>
      <point x="297" y="202"/>
      <point x="297" y="256"/>
      <point x="291" y="255" type="curve" smooth="yes"/>
      <point x="30" y="208" type="line" smooth="yes"/>
      <point x="26" y="207"/>
      <point x="26" y="153"/>
      <point x="32" y="154" type="curve" smooth="yes"/>
    </contour>
  </outline>
</glyph>
<glyph name="slash" format="1">
  <advance width="351"/>
  <unicode hex="002F"/>
  <outline>
    <contour>
      <point x="325" y="716" type="line" smooth="yes"/>
      <point x="326" y="722"/>
      <point x="281" y="736"/>
      <point x="278" y="730" type="curve" smooth="yes"/>
      <point x="26" y="-152" type="line" smooth="yes"/>
      <point x="25" y="-157"/>
      <point x="71" y="-171"/>
      <point x="74" y="-165" type="curve" smooth="yes"/>
    </contour>
  </outline>
</glyph>
<glyph name="zero" format="1">
  <advance width="408"/>
  <unicode hex="0030"/>
  <outline>
    <contour>
      <point x="311" y="-11"/>
      <point x="386" y="62"/>
      <point x="386" y="165" type="curve" smooth="yes"/>
      <point x="386" y="268"/>
      <point x="312" y="341"/>
      <point x="205" y="341" type="curve" smooth="yes"/>
      <point x="98" y="341"/>
      <point x="22" y="269"/>
      <point x="22" y="167" type="curve" smooth="yes"/>
      <point x="22" y="64"/>
      <point x="98" y="-11"/>
      <point x="205" y="-11" type="curve" smooth="yes"/>
    </contour>
    <contour>
      <point x="153" y="7"/>
      <point x="114" y="75"/>
      <point x="114" y="176" type="curve" smooth="yes"/>
      <point x="114" y="265"/>
      <point x="144" y="323"/>
      <point x="198" y="323" type="curve" smooth="yes"/>
      <point x="248" y="323"/>
      <point x="293" y="275"/>
      <point x="293" y="153" type="curve" smooth="yes"/>
      <point x="293" y="62"/>
      <point x="268" y="7"/>
      <point x="214" y="7" type="curve" smooth="yes"/>
    </contour>
    <contour>
      <point x="204" y="330" type="move" name="top"/>
    </contour>
  </outline>
</glyph>
<glyph name="one" format="1">
  <advance width="332"/>
  <unicode hex="0031"/>
  <outline>
    <contour>
      <point x="78" y="0"/>
      <point x="125" y="2"/>
      <point x="177" y="2" type="curve" smooth="yes"/>
      <point x="229" y="2"/>
      <point x="275" y="0"/>
      <point x="312" y="0" type="curve" smooth="yes"/>
      <point x="316" y="0"/>
      <point x="316" y="12"/>
      <point x="312" y="12" type="curve" smooth="yes"/>
      <point x="236" y="12"/>
      <point x="225" y="23"/>
      <point x="225" y="81" type="curve" smooth="yes"/>
      <point x="225" y="388" type="line" smooth="yes"/>
      <point x="225" y="392"/>
      <point x="220" y="398"/>
      <point x="215" y="395" type="curve" smooth="yes"/>
      <point x="33" y="309" type="line" smooth="yes"/>
      <point x="28" y="306"/>
      <point x="33" y="295"/>
      <point x="37" y="297" type="curve" smooth="yes"/>
      <point x="115" y="330"/>
      <point x="131" y="323"/>
      <point x="131" y="257" type="curve" smooth="yes"/>
      <point x="131" y="81" type="line" smooth="yes"/>
      <point x="131" y="23"/>
      <point x="116" y="12"/>
      <point x="41" y="12" type="curve" smooth="yes"/>
      <point x="37" y="12"/>
      <point x="37" y="0"/>
      <point x="41" y="0" type="curve" smooth="yes"/>
    </contour>
  </outline>
</glyph>
<glyph name="two" format="1">
  <advance width="402"/>
  <unicode hex="0032"/>
  <outline>
    <contour>
      <point x="30" y="21"/>
      <point x="36" y="0"/>
      <point x="43" y="0" type="curve" smooth="yes"/>
      <point x="140" y="0"/>
      <point x="256" y="0"/>
      <point x="349" y="0" type="curve" smooth="yes"/>
      <point x="354" y="0"/>
      <point x="358" y="6"/>
      <point x="358" y="11" type="curve" smooth="yes"/>
      <point x="379" y="130" type="line" smooth="yes"/>
      <point x="379" y="133"/>
      <point x="368" y="135"/>
      <point x="367" y="130" type="curve" smooth="yes"/>
      <point x="353" y="82"/>
      <point x="289" y="80"/>
      <point x="152" y="80" type="curve" smooth="yes"/>
      <point x="146" y="80"/>
      <point x="143" y="83"/>
      <point x="147" y="87" type="curve" smooth="yes"/>
      <point x="215" y="140"/>
      <point x="339" y="208"/>
      <point x="339" y="304" type="curve" smooth="yes"/>
      <point x="339" y="360"/>
      <point x="297" y="399"/>
      <point x="222" y="399" type="curve" smooth="yes"/>
      <point x="166" y="399"/>
      <point x="135" y="377"/>
      <point x="113" y="377" type="curve" smooth="yes"/>
      <point x="104" y="377"/>
      <point x="94" y="380"/>
      <point x="99" y="406" type="curve" smooth="yes"/>
      <point x="101" y="409"/>
      <point x="89" y="412"/>
      <point x="88" y="408" type="curve" smooth="yes"/>
      <point x="44" y="237" type="line" smooth="yes"/>
      <point x="43" y="234"/>
      <point x="55" y="232"/>
      <point x="56" y="235" type="curve" smooth="yes"/>
      <point x="84" y="315"/>
      <point x="110" y="368"/>
      <point x="164" y="368" type="curve" smooth="yes"/>
      <point x="213" y="368"/>
      <point x="237" y="322"/>
      <point x="237" y="276" type="curve" smooth="yes"/>
      <point x="237" y="216"/>
      <point x="196" y="173"/>
      <point x="37" y="27" type="curve" smooth="yes"/>
    </contour>
  </outline>
</glyph>
<glyph name="three" format="1">
  <advance width="394"/>
  <unicode hex="0033"/>
  <outline>
    <contour>
      <point x="268" y="-211"/>
      <point x="363" y="-103"/>
      <point x="363" y="-12" type="curve" smooth="yes"/>
      <point x="363" y="61"/>
      <point x="310" y="131"/>
      <point x="182" y="135" type="curve"/>
      <point x="181" y="119" type="line"/>
      <point x="276" y="138"/>
      <point x="333" y="211"/>
      <point x="333" y="285" type="curve" smooth="yes"/>
      <point x="333" y="344"/>
      <point x="290" y="399"/>
      <point x="206" y="399" type="curve" smooth="yes"/>
      <point x="152" y="399"/>
      <point x="115" y="377"/>
      <point x="92" y="377" type="curve" smooth="yes"/>
      <point x="83" y="377"/>
      <point x="71" y="382"/>
      <point x="77" y="405" type="curve" smooth="yes"/>
      <point x="78" y="408"/>
      <point x="67" y="411"/>
      <point x="65" y="407" type="curve" smooth="yes"/>
      <point x="28" y="261" type="line" smooth="yes"/>
      <point x="27" y="257"/>
      <point x="39" y="255"/>
      <point x="40" y="258" type="curve" smooth="yes"/>
      <point x="70" y="332"/>
      <point x="117" y="371"/>
      <point x="173" y="371" type="curve" smooth="yes"/>
      <point x="213" y="371"/>
      <point x="232" y="333"/>
      <point x="232" y="268" type="curve" smooth="yes"/>
      <point x="232" y="179"/>
      <point x="189" y="135"/>
      <point x="98" y="111" type="curve" smooth="yes"/>
      <point x="94" y="110"/>
      <point x="98" y="98"/>
      <point x="102" y="99" type="curve" smooth="yes"/>
      <point x="116" y="103"/>
      <point x="130" y="105"/>
      <point x="143" y="105" type="curve" smooth="yes"/>
      <point x="211" y="105"/>
      <point x="254" y="53"/>
      <point x="254" y="-25" type="curve" smooth="yes"/>
      <point x="254" y="-96"/>
      <point x="209" y="-200"/>
      <point x="49" y="-264" type="curve" smooth="yes"/>
      <point x="44" y="-267"/>
      <point x="49" y="-276"/>
      <point x="54" y="-275" type="curve" smooth="yes"/>
    </contour>
  </outline>
</glyph>
<glyph name="four" format="1">
  <advance width="456"/>
  <unicode hex="0034"/>
  <outline>
    <contour>
      <point x="216" y="8"/>
      <point x="316" y="7"/>
      <point x="418" y="1" type="curve" smooth="yes"/>
      <point x="423" y="1"/>
      <point x="426" y="48"/>
      <point x="420" y="48" type="curve" smooth="yes"/>
      <point x="312" y="44"/>
      <point x="239" y="42"/>
      <point x="94" y="42" type="curve" smooth="yes"/>
      <point x="88" y="42"/>
      <point x="85" y="44"/>
      <point x="89" y="49" type="curve" smooth="yes"/>
      <point x="335" y="338" type="line"/>
      <point x="256" y="278" type="line"/>
      <point x="256" y="-182" type="line" smooth="yes"/>
      <point x="256" y="-191"/>
      <point x="258" y="-192"/>
      <point x="265" y="-188" type="curve" smooth="yes"/>
      <point x="344" y="-149" type="line" smooth="yes"/>
      <point x="350" y="-146"/>
      <point x="352" y="-142"/>
      <point x="352" y="-135" type="curve" smooth="yes"/>
      <point x="352" y="392" type="line" smooth="yes"/>
      <point x="352" y="398"/>
      <point x="340" y="400"/>
      <point x="337" y="396" type="curve" smooth="yes"/>
      <point x="27" y="20" type="line" smooth="yes"/>
      <point x="22" y="14"/>
      <point x="28" y="8"/>
      <point x="34" y="8" type="curve" smooth="yes"/>
    </contour>
  </outline>
</glyph>
<glyph name="five" format="1">
  <advance width="409"/>
  <unicode hex="0035"/>
  <outline>
    <contour>
      <point x="85" y="177" type="line"/>
      <point x="103" y="274" type="line" smooth="yes"/>
      <point x="104" y="283"/>
      <point x="109" y="288"/>
      <point x="118" y="288" type="curve" smooth="yes"/>
      <point x="308" y="292" type="line" smooth="yes"/>
      <point x="324" y="292"/>
      <point x="332" y="294"/>
      <point x="336" y="310" type="curve" smooth="yes"/>
      <point x="356" y="421" type="line" smooth="yes"/>
      <point x="357" y="426"/>
      <point x="346" y="427"/>
      <point x="345" y="423" type="curve" smooth="yes"/>
      <point x="336" y="396"/>
      <point x="333" y="395"/>
      <point x="103" y="368" type="curve" smooth="yes"/>
      <point x="92" y="367"/>
      <point x="91" y="366"/>
      <point x="90" y="357" type="curve" smooth="yes"/>
      <point x="58" y="179" type="line" smooth="yes"/>
      <point x="57" y="173"/>
      <point x="61" y="167"/>
      <point x="68" y="167" type="curve" smooth="yes"/>
      <point x="191" y="167"/>
      <point x="257" y="101"/>
      <point x="257" y="-8" type="curve" smooth="yes"/>
      <point x="257" y="-95"/>
      <point x="214" y="-178"/>
      <point x="62" y="-264" type="curve" smooth="yes"/>
      <point x="57" y="-267"/>
      <point x="63" y="-277"/>
      <point x="68" y="-275" type="curve" smooth="yes"/>
      <point x="275" y="-182"/>
      <point x="360" y="-104"/>
      <point x="360" y="9" type="curve" smooth="yes"/>
      <point x="360" y="119"/>
      <point x="281" y="196"/>
      <point x="78" y="196" type="curve"/>
    </contour>
  </outline>
</glyph>
<glyph name="six" format="1">
  <advance width="465"/>
  <unicode hex="0036"/>
  <outline>
    <contour>
      <point x="250" y="288"/>
      <point x="207" y="262"/>
      <point x="173" y="225" type="curve" smooth="yes"/>
      <point x="171" y="221"/>
      <point x="180" y="214"/>
      <point x="184" y="218" type="curve" smooth="yes"/>
      <point x="211" y="237"/>
      <point x="230" y="246"/>
      <point x="255" y="246" type="curve" smooth="yes"/>
      <point x="312" y="246"/>
      <point x="338" y="198"/>
      <point x="338" y="130" type="curve" smooth="yes"/>
      <point x="338" y="54"/>
      <point x="306" y="11"/>
      <point x="257" y="11" type="curve" smooth="yes"/>
      <point x="184" y="11"/>
      <point x="139" y="106"/>
      <point x="139" y="221" type="curve" smooth="yes"/>
      <point x="139" y="382"/>
      <point x="227" y="561"/>
      <point x="405" y="650" type="curve" smooth="yes"/>
      <point x="409" y="653"/>
      <point x="405" y="662"/>
      <point x="400" y="661" type="curve" smooth="yes"/>
      <point x="174" y="585"/>
      <point x="37" y="395"/>
      <point x="37" y="207" type="curve" smooth="yes"/>
      <point x="37" y="68"/>
      <point x="112" y="-13"/>
      <point x="230" y="-13" type="curve" smooth="yes"/>
      <point x="346" y="-13"/>
      <point x="440" y="64"/>
      <point x="440" y="159" type="curve" smooth="yes"/>
      <point x="440" y="220"/>
      <point x="402" y="288"/>
      <point x="309" y="288" type="curve" smooth="yes"/>
    </contour>
  </outline>
</glyph>
<glyph name="seven" format="1">
  <advance width="429"/>
  <unicode hex="0037"/>
  <outline>
    <contour>
      <point x="391" y="373" type="line" smooth="yes"/>
      <point x="393" y="378"/>
      <point x="388" y="386"/>
      <point x="382" y="386" type="curve" smooth="yes"/>
      <point x="299" y="386"/>
      <point x="157" y="386"/>
      <point x="117" y="386" type="curve" smooth="yes"/>
      <point x="73" y="386"/>
      <point x="65" y="389"/>
      <point x="70" y="412" type="curve" smooth="yes"/>
      <point x="71" y="415"/>
      <point x="60" y="416"/>
      <point x="58" y="413" type="curve" smooth="yes"/>
      <point x="13" y="233" type="line" smooth="yes"/>
      <point x="12" y="228"/>
      <point x="23" y="226"/>
      <point x="25" y="230" type="curve" smooth="yes"/>
      <point x="42" y="292"/>
      <point x="54" y="298"/>
      <point x="323" y="298" type="curve" smooth="yes"/>
      <point x="329" y="298"/>
      <point x="330" y="296"/>
      <point x="327" y="291" type="curve" smooth="yes"/>
      <point x="67" y="-268" type="line" smooth="yes"/>
      <point x="65" y="-271"/>
      <point x="70" y="-276"/>
      <point x="74" y="-275" type="curve" smooth="yes"/>
      <point x="156" y="-236" type="line" smooth="yes"/>
      <point x="166" y="-232"/>
      <point x="172" y="-225"/>
      <point x="177" y="-212" type="curve" smooth="yes"/>
    </contour>
    <contour>
      <point x="196" y="386" type="move" name="top"/>
    </contour>
  </outline>
</glyph>
<glyph name="eight" format="1">
  <advance width="489"/>
  <unicode hex="0038"/>
  <outline>
    <contour>
      <point x="302" y="345" type="line"/>
      <point x="370" y="373"/>
      <point x="407" y="428"/>
      <point x="407" y="470" type="curve" smooth="yes"/>
      <point x="407" y="518"/>
      <point x="352" y="574"/>
      <point x="257" y="574" type="curve" smooth="yes"/>
      <point x="188" y="574"/>
      <point x="98" y="539"/>
      <point x="98" y="448" type="curve" smooth="yes"/>
      <point x="98" y="371"/>
      <point x="164" y="326"/>
      <point x="230" y="284" type="curve" smooth="yes"/>
      <point x="299" y="241"/>
      <point x="371" y="204"/>
      <point x="371" y="124" type="curve" smooth="yes"/>
      <point x="371" y="65"/>
      <point x="333" y="9"/>
      <point x="268" y="9" type="curve" smooth="yes"/>
      <point x="193" y="9"/>
      <point x="140" y="89"/>
      <point x="140" y="180" type="curve" smooth="yes"/>
      <point x="140" y="249"/>
      <point x="171" y="311"/>
      <point x="218" y="340" type="curve"/>
      <point x="212" y="349" type="line"/>
      <point x="105" y="315"/>
      <point x="37" y="236"/>
      <point x="37" y="153" type="curve" smooth="yes"/>
      <point x="37" y="63"/>
      <point x="117" y="-13"/>
      <point x="241" y="-13" type="curve" smooth="yes"/>
      <point x="361" y="-13"/>
      <point x="463" y="60"/>
      <point x="463" y="164" type="curve" smooth="yes"/>
      <point x="463" y="254"/>
      <point x="388" y="301"/>
      <point x="317" y="345" type="curve" smooth="yes"/>
      <point x="250" y="386"/>
      <point x="186" y="425"/>
      <point x="186" y="488" type="curve" smooth="yes"/>
      <point x="186" y="525"/>
      <point x="209" y="553"/>
      <point x="247" y="553" type="curve" smooth="yes"/>
      <point x="287" y="553"/>
      <point x="322" y="513"/>
      <point x="322" y="453" type="curve" smooth="yes"/>
      <point x="322" y="418"/>
      <point x="310" y="384"/>
      <point x="296" y="351" type="curve"/>
    </contour>
  </outline>
</glyph>
<glyph name="nine" format="1">
  <advance width="465"/>
  <unicode hex="0039"/>
  <outline>
    <contour>
      <point x="216" y="104"/>
      <point x="261" y="126"/>
      <point x="292" y="167" type="curve" smooth="yes"/>
      <point x="295" y="171"/>
      <point x="285" y="178"/>
      <point x="282" y="174" type="curve" smooth="yes"/>
      <point x="255" y="152"/>
      <point x="235" y="143"/>
      <point x="211" y="143" type="curve" smooth="yes"/>
      <point x="153" y="143"/>
      <point x="127" y="194"/>
      <point x="127" y="268" type="curve" smooth="yes"/>
      <point x="127" y="333"/>
      <point x="146" y="378"/>
      <point x="200" y="378" type="curve" smooth="yes"/>
      <point x="294" y="378"/>
      <point x="326" y="246"/>
      <point x="326" y="154" type="curve" smooth="yes"/>
      <point x="326" y="5"/>
      <point x="239" y="-182"/>
      <point x="61" y="-264" type="curve" smooth="yes"/>
      <point x="56" y="-267"/>
      <point x="61" y="-276"/>
      <point x="65" y="-275" type="curve" smooth="yes"/>
      <point x="296" y="-204"/>
      <point x="428" y="-6"/>
      <point x="428" y="172" type="curve" smooth="yes"/>
      <point x="428" y="311"/>
      <point x="347" y="399"/>
      <point x="214" y="399" type="curve" smooth="yes"/>
      <point x="101" y="399"/>
      <point x="26" y="335"/>
      <point x="26" y="243" type="curve" smooth="yes"/>
      <point x="26" y="181"/>
      <point x="63" y="104"/>
      <point x="164" y="104" type="curve" smooth="yes"/>
    </contour>
  </outline>
</glyph>
<glyph name="question" format="1">
  <advance width="339"/>
  <unicode hex="003F"/>
  <outline>
    <contour>
      <point x="193" y="606"/>
      <point x="208" y="568"/>
      <point x="208" y="519" type="curve" smooth="yes"/>
      <point x="208" y="407"/>
      <point x="126" y="406"/>
      <point x="126" y="312" type="curve" smooth="yes"/>
      <point x="126" y="281"/>
      <point x="136" y="228"/>
      <point x="152" y="191" type="curve" smooth="yes"/>
      <point x="154" y="187"/>
      <point x="170" y="191"/>
      <point x="168" y="195" type="curve" smooth="yes"/>
      <point x="165" y="218"/>
      <point x="163" y="232"/>
      <point x="163" y="248" type="curve" smooth="yes"/>
      <point x="163" y="297"/>
      <point x="181" y="335"/>
      <point x="222" y="371" type="curve" smooth="yes"/>
      <point x="265" y="408"/>
      <point x="319" y="437"/>
      <point x="319" y="506" type="curve" smooth="yes"/>
      <point x="319" y="586"/>
      <point x="246" y="625"/>
      <point x="165" y="625" type="curve" smooth="yes"/>
      <point x="88" y="625"/>
      <point x="30" y="589"/>
      <point x="30" y="543" type="curve" smooth="yes"/>
      <point x="30" y="522"/>
      <point x="42" y="496"/>
      <point x="80" y="496" type="curve" smooth="yes"/>
      <point x="129" y="496"/>
      <point x="135" y="540"/>
      <point x="137" y="565" type="curve" smooth="yes"/>
      <point x="139" y="585"/>
      <point x="144" y="606"/>
      <point x="165" y="606" type="curve" smooth="yes"/>
    </contour>
    <component base="period" xOffset="48"/>
  </outline>
</glyph>
<glyph name="at" format="1">
  <advance width="729"/>
  <unicode hex="0040"/>
  <outline>
    <contour>
      <point x="392" y="89"/>
      <point x="412" y="56"/>
      <point x="467" y="56" type="curve" smooth="yes"/>
      <point x="584" y="56"/>
      <point x="676" y="151"/>
      <point x="676" y="268" type="curve" smooth="yes"/>
      <point x="676" y="392"/>
      <point x="572" y="503"/>
      <point x="407" y="503" type="curve" smooth="yes"/>
      <point x="227" y="503"/>
      <point x="64" y="371"/>
      <point x="64" y="175" type="curve" smooth="yes"/>
      <point x="64" y="-4"/>
      <point x="198" y="-106"/>
      <point x="365" y="-106" type="curve" smooth="yes"/>
      <point x="430" y="-106"/>
      <point x="499" y="-92"/>
      <point x="574" y="-28" type="curve" smooth="yes"/>
      <point x="578" y="-26"/>
      <point x="572" y="-18"/>
      <point x="568" y="-20" type="curve" smooth="yes"/>
      <point x="510" y="-60"/>
      <point x="460" y="-71"/>
      <point x="401" y="-71" type="curve" smooth="yes"/>
      <point x="234" y="-71"/>
      <point x="126" y="35"/>
      <point x="126" y="201" type="curve" smooth="yes"/>
      <point x="126" y="351"/>
      <point x="215" y="480"/>
      <point x="372" y="480" type="curve" smooth="yes"/>
      <point x="516" y="480"/>
      <point x="621" y="371"/>
      <point x="621" y="236" type="curve" smooth="yes"/>
      <point x="621" y="132"/>
      <point x="557" y="82"/>
      <point x="513" y="82" type="curve" smooth="yes"/>
      <point x="478" y="82"/>
      <point x="471" y="105"/>
      <point x="478" y="142" type="curve" smooth="yes"/>
      <point x="519" y="366" type="line" smooth="yes"/>
      <point x="519" y="368"/>
      <point x="504" y="370"/>
      <point x="502" y="367" type="curve" smooth="yes"/>
      <point x="496" y="347"/>
      <point x="467" y="332"/>
      <point x="447" y="330" type="curve"/>
      <point x="476" y="311" type="line"/>
      <point x="473" y="346"/>
      <point x="444" y="360"/>
      <point x="418" y="360" type="curve" smooth="yes"/>
      <point x="335" y="360"/>
      <point x="223" y="254"/>
      <point x="207" y="143" type="curve" smooth="yes"/>
      <point x="198" y="76"/>
      <point x="229" y="54"/>
      <point x="263" y="54" type="curve" smooth="yes"/>
      <point x="329" y="54"/>
      <point x="413" y="136"/>
      <point x="460" y="247" type="curve"/>
      <point x="426" y="234" type="line"/>
      <point x="406" y="147" type="line" smooth="yes"/>
    </contour>
    <contour>
      <point x="287" y="118"/>
      <point x="288" y="160"/>
      <point x="296" y="194" type="curve" smooth="yes"/>
      <point x="311" y="265"/>
      <point x="357" y="335"/>
      <point x="406" y="337" type="curve" smooth="yes"/>
      <point x="428" y="338"/>
      <point x="435" y="309"/>
      <point x="430" y="275" type="curve" smooth="yes"/>
      <point x="415" y="200"/>
      <point x="351" y="118"/>
      <point x="313" y="118" type="curve" smooth="yes"/>
    </contour>
  </outline>
</glyph>
<glyph name="A" format="1">
  <advance width="716"/>
  <unicode hex="0041"/>
  <outline>
    <contour>
      <point x="446" y="299" type="line"/>
      <point x="439" y="327" type="line"/>
      <point x="233" y="327" type="line"/>
      <point x="218" y="299" type="line"/>
    </contour>
    <contour>
      <point x="684" y="12"/>
      <point x="658" y="42"/>
      <point x="611" y="137" type="curve" smooth="yes"/>
      <point x="361" y="629" type="line" smooth="yes"/>
      <point x="359" y="634"/>
      <point x="344" y="633"/>
      <point x="343" y="629" type="curve" smooth="yes"/>
      <point x="126" y="152" type="line" smooth="yes"/>
      <point x="75" y="39"/>
      <point x="50" y="12"/>
      <point x="-4" y="12" type="curve" smooth="yes"/>
      <point x="-9" y="12"/>
      <point x="-9" y="0"/>
      <point x="-4" y="0" type="curve" smooth="yes"/>
      <point x="41" y="0"/>
      <point x="64" y="4"/>
      <point x="116" y="4" type="curve" smooth="yes"/>
      <point x="167" y="4"/>
      <point x="194" y="0"/>
      <point x="234" y="0" type="curve" smooth="yes"/>
      <point x="240" y="0"/>
      <point x="240" y="12"/>
      <point x="234" y="12" type="curve" smooth="yes"/>
      <point x="159" y="12"/>
      <point x="117" y="62"/>
      <point x="153" y="142" type="curve" smooth="yes"/>
      <point x="352" y="581" type="line"/>
      <point x="303" y="495" type="line"/>
      <point x="506" y="94" type="line" smooth="yes"/>
      <point x="539" y="29"/>
      <point x="532" y="12"/>
      <point x="477" y="12" type="curve" smooth="yes"/>
      <point x="471" y="12"/>
      <point x="471" y="0"/>
      <point x="477" y="0" type="curve" smooth="yes"/>
      <point x="518" y="0"/>
      <point x="546" y="4"/>
      <point x="592" y="4" type="curve" smooth="yes"/>
      <point x="632" y="4"/>
      <point x="677" y="0"/>
      <point x="717" y="0" type="curve" smooth="yes"/>
      <point x="723" y="0"/>
      <point x="723" y="12"/>
      <point x="717" y="12" type="curve" smooth="yes"/>
    </contour>
    <contour>
      <point x="669" y="12" type="move" name="ogonek"/>
    </contour>
    <contour>
      <point x="358" y="0" type="move" name="bottom"/>
    </contour>
    <contour>
      <point x="354" y="625" type="move" name="top"/>
    </contour>
  </outline>
</glyph>
<glyph name="B" format="1">
  <advance width="595"/>
  <unicode hex="0042"/>
  <outline>
    <contour>
      <point x="423" y="359"/>
      <point x="482" y="425"/>
      <point x="482" y="499" type="curve" smooth="yes"/>
      <point x="482" y="584"/>
      <point x="411" y="628"/>
      <point x="291" y="628" type="curve" smooth="yes"/>
      <point x="248" y="628"/>
      <point x="206" y="622"/>
      <point x="168" y="622" type="curve" smooth="yes"/>
      <point x="120" y="622"/>
      <point x="77" y="625"/>
      <point x="42" y="625" type="curve" smooth="yes"/>
      <point x="39" y="625"/>
      <point x="39" y="613"/>
      <point x="42" y="613" type="curve" smooth="yes"/>
      <point x="98" y="613"/>
      <point x="113" y="601"/>
      <point x="113" y="544" type="curve" smooth="yes"/>
      <point x="113" y="81" type="line" smooth="yes"/>
      <point x="113" y="23"/>
      <point x="97" y="12"/>
      <point x="41" y="12" type="curve" smooth="yes"/>
      <point x="37" y="12"/>
      <point x="37" y="0"/>
      <point x="41" y="0" type="curve" smooth="yes"/>
      <point x="76" y="0"/>
      <point x="120" y="2"/>
      <point x="168" y="2" type="curve" smooth="yes"/>
      <point x="213" y="2"/>
      <point x="276" y="-4"/>
      <point x="312" y="-4" type="curve" smooth="yes"/>
      <point x="444" y="-4"/>
      <point x="543" y="76"/>
      <point x="543" y="181" type="curve" smooth="yes"/>
      <point x="543" y="282"/>
      <point x="454" y="353"/>
      <point x="317" y="353" type="curve"/>
      <point x="306" y="335" type="line"/>
    </contour>
    <contour>
      <point x="338" y="606"/>
      <point x="373" y="566"/>
      <point x="373" y="490" type="curve" smooth="yes"/>
      <point x="373" y="413"/>
      <point x="337" y="351"/>
      <point x="265" y="351" type="curve" smooth="yes"/>
      <point x="262" y="351"/>
      <point x="232" y="351"/>
      <point x="188" y="353" type="curve"/>
      <point x="225" y="346" type="line"/>
      <point x="225" y="542" type="line" smooth="yes"/>
      <point x="225" y="591"/>
      <point x="237" y="606"/>
      <point x="276" y="606" type="curve" smooth="yes"/>
    </contour>
    <contour>
      <point x="233" y="21"/>
      <point x="225" y="41"/>
      <point x="225" y="81" type="curve" smooth="yes"/>
      <point x="225" y="330" type="line"/>
      <point x="192" y="318" type="line"/>
      <point x="228" y="324"/>
      <point x="263" y="324"/>
      <point x="277" y="324" type="curve" smooth="yes"/>
      <point x="381" y="324"/>
      <point x="426" y="255"/>
      <point x="426" y="157" type="curve" smooth="yes"/>
      <point x="426" y="70"/>
      <point x="387" y="21"/>
      <point x="295" y="21" type="curve" smooth="yes"/>
    </contour>
    <contour>
      <point x="188" y="353" type="move"/>
    </contour>
    <contour>
      <point x="298" y="625" type="move" name="top"/>
    </contour>
    <contour>
      <point x="298" y="0" type="move" name="bottom"/>
    </contour>
  </outline>
</glyph>
<glyph name="C" format="1">
  <advance width="572"/>
  <unicode hex="0043"/>
  <outline>
    <contour>
      <point x="194" y="544"/>
      <point x="42" y="437"/>
      <point x="42" y="269" type="curve" smooth="yes"/>
      <point x="42" y="141"/>
      <point x="131" y="-10"/>
      <point x="352" y="-10" type="curve" smooth="yes"/>
      <point x="403" y="-10"/>
      <point x="456" y="-2"/>
      <point x="509" y="18" type="curve" smooth="yes"/>
      <point x="519" y="22"/>
      <point x="520" y="24"/>
      <point x="522" y="38" type="curve" smooth="yes"/>
      <point x="535" y="154" type="line" smooth="yes"/>
      <point x="535" y="157"/>
      <point x="527" y="159"/>
      <point x="525" y="155" type="curve" smooth="yes"/>
      <point x="480" y="55"/>
      <point x="422" y="8"/>
      <point x="350" y="8" type="curve" smooth="yes"/>
      <point x="231" y="8"/>
      <point x="150" y="135"/>
      <point x="150" y="292" type="curve" smooth="yes"/>
      <point x="150" y="429"/>
      <point x="211" y="522"/>
      <point x="327" y="522" type="curve" smooth="yes"/>
      <point x="414" y="522"/>
      <point x="480" y="469"/>
      <point x="517" y="381" type="curve" smooth="yes"/>
      <point x="519" y="377"/>
      <point x="527" y="379"/>
      <point x="527" y="382" type="curve" smooth="yes"/>
      <point x="516" y="501" type="line" smooth="yes"/>
      <point x="515" y="513"/>
      <point x="513" y="517"/>
      <point x="503" y="521" type="curve" smooth="yes"/>
      <point x="470" y="535"/>
      <point x="408" y="544"/>
      <point x="360" y="544" type="curve" smooth="yes"/>
    </contour>
    <contour>
      <point x="324" y="534" type="move" name="top"/>
    </contour>
    <contour>
      <point x="336" y="0" type="move" name="bottom"/>
    </contour>
  </outline>
</glyph>
<glyph name="D" format="1">
  <advance width="705"/>
  <unicode hex="0044"/>
  <outline>
    <contour>
      <point x="505" y="-4"/>
      <point x="656" y="123"/>
      <point x="656" y="323" type="curve" smooth="yes"/>
      <point x="656" y="495"/>
      <point x="519" y="627"/>
      <point x="312" y="627" type="curve" smooth="yes"/>
      <point x="271" y="627"/>
      <point x="207" y="622"/>
      <point x="158" y="622" type="curve" smooth="yes"/>
      <point x="110" y="622"/>
      <point x="67" y="625"/>
      <point x="32" y="625" type="curve" smooth="yes"/>
      <point x="28" y="625"/>
      <point x="28" y="613"/>
      <point x="32" y="613" type="curve" smooth="yes"/>
      <point x="92" y="613"/>
      <point x="103" y="601"/>
      <point x="103" y="544" type="curve" smooth="yes"/>
      <point x="103" y="81" type="line" smooth="yes"/>
      <point x="103" y="23"/>
      <point x="91" y="12"/>
      <point x="30" y="12" type="curve" smooth="yes"/>
      <point x="27" y="12"/>
      <point x="27" y="0"/>
      <point x="30" y="0" type="curve" smooth="yes"/>
      <point x="65" y="0"/>
      <point x="110" y="2"/>
      <point x="158" y="2" type="curve" smooth="yes"/>
      <point x="211" y="2"/>
      <point x="283" y="-4"/>
      <point x="326" y="-4" type="curve" smooth="yes"/>
    </contour>
    <contour>
      <point x="232" y="19"/>
      <point x="214" y="42"/>
      <point x="214" y="92" type="curve" smooth="yes"/>
      <point x="214" y="542" type="line" smooth="yes"/>
      <point x="214" y="596"/>
      <point x="244" y="605"/>
      <point x="322" y="605" type="curve" smooth="yes"/>
      <point x="451" y="605"/>
      <point x="533" y="471"/>
      <point x="533" y="301" type="curve" smooth="yes"/>
      <point x="533" y="118"/>
      <point x="442" y="19"/>
      <point x="316" y="19" type="curve" smooth="yes"/>
    </contour>
    <contour>
      <point x="353" y="312" type="move" name="center"/>
    </contour>
    <contour>
      <point x="336" y="0" type="move" name="bottom"/>
    </contour>
    <contour>
      <point x="323" y="625" type="move" name="top"/>
    </contour>
  </outline>
</glyph>
<glyph name="E" format="1">
  <advance width="552"/>
  <unicode hex="0045"/>
  <outline>
    <contour>
      <point x="495" y="0"/>
      <point x="498" y="4"/>
      <point x="498" y="15" type="curve" smooth="yes"/>
      <point x="498" y="60"/>
      <point x="503" y="118"/>
      <point x="508" y="157" type="curve" smooth="yes"/>
      <point x="508" y="160"/>
      <point x="497" y="163"/>
      <point x="496" y="159" type="curve" smooth="yes"/>
      <point x="467" y="69"/>
      <point x="406" y="28"/>
      <point x="302" y="28" type="curve" smooth="yes"/>
      <point x="269" y="28" type="line" smooth="yes"/>
      <point x="237" y="28"/>
      <point x="223" y="46"/>
      <point x="223" y="85" type="curve" smooth="yes"/>
      <point x="223" y="543" type="line" smooth="yes"/>
      <point x="223" y="579"/>
      <point x="241" y="596"/>
      <point x="281" y="596" type="curve" smooth="yes"/>
      <point x="311" y="596" type="line" smooth="yes"/>
      <point x="394" y="596"/>
      <point x="443" y="560"/>
      <point x="465" y="482" type="curve" smooth="yes"/>
      <point x="467" y="478"/>
      <point x="477" y="480"/>
      <point x="477" y="483" type="curve" smooth="yes"/>
      <point x="475" y="616" type="line" smooth="yes"/>
      <point x="475" y="622"/>
      <point x="473" y="625"/>
      <point x="465" y="625" type="curve" smooth="yes"/>
      <point x="41" y="625" type="line" smooth="yes"/>
      <point x="37" y="625"/>
      <point x="37" y="613"/>
      <point x="41" y="613" type="curve" smooth="yes"/>
      <point x="102" y="613"/>
      <point x="112" y="601"/>
      <point x="112" y="544" type="curve" smooth="yes"/>
      <point x="112" y="81" type="line" smooth="yes"/>
      <point x="112" y="23"/>
      <point x="102" y="12"/>
      <point x="41" y="12" type="curve" smooth="yes"/>
      <point x="37" y="12"/>
      <point x="37" y="0"/>
      <point x="41" y="0" type="curve" smooth="yes"/>
      <point x="483" y="0" type="line" smooth="yes"/>
    </contour>
    <contour>
      <point x="427" y="220"/>
      <point x="439" y="220"/>
      <point x="439" y="223" type="curve" smooth="yes"/>
      <point x="439" y="261"/>
      <point x="436" y="291"/>
      <point x="436" y="325" type="curve" smooth="yes"/>
      <point x="436" y="352"/>
      <point x="437" y="371"/>
      <point x="437" y="415" type="curve" smooth="yes"/>
      <point x="437" y="419"/>
      <point x="426" y="419"/>
      <point x="426" y="415" type="curve" smooth="yes"/>
      <point x="426" y="368"/>
      <point x="385" y="339"/>
      <point x="306" y="339" type="curve" smooth="yes"/>
      <point x="170" y="339" type="line"/>
      <point x="170" y="311" type="line" smooth="yes"/>
      <point x="305" y="311" type="line" smooth="yes"/>
      <point x="385" y="311"/>
      <point x="427" y="277"/>
      <point x="427" y="223" type="curve" smooth="yes"/>
    </contour>
    <contour>
      <point x="478" y="12" type="move" name="ogonek"/>
    </contour>
    <contour>
      <point x="298" y="625" type="move" name="top"/>
    </contour>
    <contour>
      <point x="23" y="625" type="move" name="topleft"/>
    </contour>
    <contour>
      <point x="298" y="0" type="move" name="bottom"/>
    </contour>
  </outline>
</glyph>
<glyph name="F" format="1">
  <advance width="522"/>
  <unicode hex="0046"/>
  <outline>
    <contour>
      <point x="69" y="0"/>
      <point x="116" y="2"/>
      <point x="164" y="2" type="curve" smooth="yes"/>
      <point x="235" y="2"/>
      <point x="285" y="0"/>
      <point x="330" y="0" type="curve" smooth="yes"/>
      <point x="333" y="0"/>
      <point x="333" y="12"/>
      <point x="330" y="12" type="curve" smooth="yes"/>
      <point x="239" y="12"/>
      <point x="223" y="25"/>
      <point x="223" y="85" type="curve" smooth="yes"/>
      <point x="223" y="543" type="line" smooth="yes"/>
      <point x="223" y="579"/>
      <point x="241" y="596"/>
      <point x="281" y="596" type="curve" smooth="yes"/>
      <point x="311" y="596" type="line" smooth="yes"/>
      <point x="394" y="596"/>
      <point x="443" y="560"/>
      <point x="465" y="482" type="curve" smooth="yes"/>
      <point x="467" y="478"/>
      <point x="477" y="480"/>
      <point x="477" y="483" type="curve" smooth="yes"/>
      <point x="475" y="616" type="line" smooth="yes"/>
      <point x="475" y="622"/>
      <point x="473" y="625"/>
      <point x="465" y="625" type="curve" smooth="yes"/>
      <point x="41" y="625" type="line" smooth="yes"/>
      <point x="37" y="625"/>
      <point x="37" y="613"/>
      <point x="41" y="613" type="curve" smooth="yes"/>
      <point x="102" y="613"/>
      <point x="112" y="601"/>
      <point x="112" y="544" type="curve" smooth="yes"/>
      <point x="112" y="81" type="line" smooth="yes"/>
      <point x="112" y="23"/>
      <point x="101" y="12"/>
      <point x="34" y="12" type="curve" smooth="yes"/>
      <point x="30" y="12"/>
      <point x="30" y="0"/>
      <point x="34" y="0" type="curve" smooth="yes"/>
    </contour>
    <contour>
      <point x="415" y="208"/>
      <point x="427" y="208"/>
      <point x="427" y="212" type="curve" smooth="yes"/>
      <point x="427" y="249"/>
      <point x="425" y="280"/>
      <point x="425" y="313" type="curve" smooth="yes"/>
      <point x="425" y="340"/>
      <point x="426" y="359"/>
      <point x="426" y="404" type="curve" smooth="yes"/>
      <point x="426" y="407"/>
      <point x="414" y="407"/>
      <point x="414" y="404" type="curve" smooth="yes"/>
      <point x="414" y="357"/>
      <point x="373" y="327"/>
      <point x="295" y="327" type="curve" smooth="yes"/>
      <point x="170" y="327" type="line"/>
      <point x="170" y="299" type="line" smooth="yes"/>
      <point x="294" y="299" type="line" smooth="yes"/>
      <point x="373" y="299"/>
      <point x="415" y="265"/>
      <point x="415" y="212" type="curve" smooth="yes"/>
    </contour>
    <contour>
      <point x="261" y="625" type="move" name="top"/>
    </contour>
    <contour>
      <point x="261" y="0" type="move" name="bottom"/>
    </contour>
  </outline>
</glyph>
<glyph name="G" format="1">
  <advance width="719"/>
  <unicode hex="0047"/>
  <outline>
    <contour>
      <point x="483" y="-12"/>
      <point x="567" y="0"/>
      <point x="641" y="16" type="curve" smooth="yes"/>
      <point x="650" y="19"/>
      <point x="653" y="20"/>
      <point x="653" y="28" type="curve" smooth="yes"/>
      <point x="653" y="44"/>
      <point x="646" y="49"/>
      <point x="646" y="116" type="curve" smooth="yes"/>
      <point x="646" y="222"/>
      <point x="648" y="234"/>
      <point x="682" y="233" type="curve" smooth="yes"/>
      <point x="689" y="233"/>
      <point x="688" y="247"/>
      <point x="682" y="247" type="curve" smooth="yes"/>
      <point x="599" y="243"/>
      <point x="531" y="243"/>
      <point x="439" y="249" type="curve" smooth="yes"/>
      <point x="432" y="249"/>
      <point x="432" y="233"/>
      <point x="440" y="233" type="curve" smooth="yes"/>
      <point x="532" y="233"/>
      <point x="539" y="222"/>
      <point x="539" y="126" type="curve" smooth="yes"/>
      <point x="539" y="23"/>
      <point x="510" y="5"/>
      <point x="434" y="5" type="curve" smooth="yes"/>
      <point x="282" y="5"/>
      <point x="170" y="142"/>
      <point x="170" y="344" type="curve" smooth="yes"/>
      <point x="170" y="504"/>
      <point x="240" y="609"/>
      <point x="379" y="609" type="curve" smooth="yes"/>
      <point x="485" y="609"/>
      <point x="570" y="547"/>
      <point x="616" y="446" type="curve" smooth="yes"/>
      <point x="619" y="441"/>
      <point x="628" y="443"/>
      <point x="628" y="447" type="curve" smooth="yes"/>
      <point x="615" y="586" type="line" smooth="yes"/>
      <point x="614" y="600"/>
      <point x="612" y="605"/>
      <point x="600" y="609" type="curve" smooth="yes"/>
      <point x="560" y="626"/>
      <point x="488" y="636"/>
      <point x="428" y="636" type="curve" smooth="yes"/>
      <point x="212" y="636"/>
      <point x="49" y="502"/>
      <point x="49" y="306" type="curve" smooth="yes"/>
      <point x="49" y="129"/>
      <point x="182" y="-12"/>
      <point x="409" y="-12" type="curve" smooth="yes"/>
    </contour>
    <contour>
      <point x="394" y="625" type="move" name="top"/>
    </contour>
    <contour>
      <point x="418" y="0" type="move" name="bottom"/>
    </contour>
  </outline>
</glyph>
<glyph name="H" format="1">
  <advance width="764"/>
  <unicode hex="0048"/>
  <outline>
    <contour>
      <point x="543" y="81" type="line" smooth="yes"/>
      <point x="543" y="23"/>
      <point x="532" y="12"/>
      <point x="460" y="12" type="curve" smooth="yes"/>
      <point x="456" y="12"/>
      <point x="456" y="0"/>
      <point x="460" y="0" type="curve" smooth="yes"/>
      <point x="494" y="0"/>
      <point x="537" y="2"/>
      <point x="599" y="2" type="curve" smooth="yes"/>
      <point x="647" y="2"/>
      <point x="697" y="0"/>
      <point x="732" y="0" type="curve" smooth="yes"/>
      <point x="736" y="0"/>
      <point x="736" y="12"/>
      <point x="732" y="12" type="curve" smooth="yes"/>
      <point x="665" y="12"/>
      <point x="654" y="23"/>
      <point x="654" y="81" type="curve" smooth="yes"/>
      <point x="654" y="544" type="line" smooth="yes"/>
      <point x="654" y="601"/>
      <point x="665" y="613"/>
      <point x="732" y="613" type="curve" smooth="yes"/>
      <point x="736" y="613"/>
      <point x="736" y="625"/>
      <point x="732" y="625" type="curve" smooth="yes"/>
      <point x="697" y="625"/>
      <point x="647" y="622"/>
      <point x="599" y="622" type="curve" smooth="yes"/>
      <point x="537" y="622"/>
      <point x="494" y="625"/>
      <point x="460" y="625" type="curve" smooth="yes"/>
      <point x="456" y="625"/>
      <point x="456" y="613"/>
      <point x="460" y="613" type="curve" smooth="yes"/>
      <point x="532" y="613"/>
      <point x="543" y="599"/>
      <point x="543" y="542" type="curve" smooth="yes"/>
    </contour>
    <contour>
      <point x="594" y="311" type="line"/>
      <point x="594" y="339" type="line"/>
      <point x="161" y="339" type="line"/>
      <point x="161" y="311" type="line"/>
    </contour>
    <contour>
      <point x="109" y="23"/>
      <point x="97" y="12"/>
      <point x="30" y="12" type="curve" smooth="yes"/>
      <point x="27" y="12"/>
      <point x="27" y="0"/>
      <point x="30" y="0" type="curve" smooth="yes"/>
      <point x="65" y="0"/>
      <point x="112" y="2"/>
      <point x="160" y="2" type="curve" smooth="yes"/>
      <point x="221" y="2"/>
      <point x="264" y="0"/>
      <point x="303" y="0" type="curve" smooth="yes"/>
      <point x="306" y="0"/>
      <point x="306" y="12"/>
      <point x="303" y="12" type="curve" smooth="yes"/>
      <point x="232" y="12"/>
      <point x="220" y="23"/>
      <point x="220" y="81" type="curve" smooth="yes"/>
      <point x="220" y="542" type="line" smooth="yes"/>
      <point x="220" y="599"/>
      <point x="233" y="613"/>
      <point x="303" y="613" type="curve" smooth="yes"/>
      <point x="306" y="613"/>
      <point x="306" y="625"/>
      <point x="303" y="625" type="curve" smooth="yes"/>
      <point x="265" y="625"/>
      <point x="221" y="622"/>
      <point x="160" y="622" type="curve" smooth="yes"/>
      <point x="112" y="622"/>
      <point x="67" y="625"/>
      <point x="32" y="625" type="curve" smooth="yes"/>
      <point x="28" y="625"/>
      <point x="28" y="613"/>
      <point x="32" y="613" type="curve" smooth="yes"/>
      <point x="97" y="613"/>
      <point x="109" y="601"/>
      <point x="109" y="544" type="curve" smooth="yes"/>
      <point x="109" y="81" type="line" smooth="yes"/>
    </contour>
    <contour>
      <point x="382" y="0" type="move" name="bottom"/>
    </contour>
    <contour>
      <point x="385" y="625" type="move" name="top"/>
    </contour>
    <contour>
      <point x="23" y="625" type="move" name="topleft"/>
    </contour>
    <contour>
      <point x="385" y="312" type="move" name="center"/>
    </contour>
  </outline>
</glyph>
<glyph name="I" format="1">
  <advance width="342"/>
  <unicode hex="0049"/>
  <outline>
    <contour>
      <point x="227" y="542" type="line" smooth="yes"/>
      <point x="227" y="599"/>
      <point x="237" y="613"/>
      <point x="298" y="613" type="curve" smooth="yes"/>
      <point x="302" y="613"/>
      <point x="302" y="625"/>
      <point x="298" y="625" type="curve" smooth="yes"/>
      <point x="264" y="625"/>
      <point x="221" y="622"/>
      <point x="170" y="622" type="curve" smooth="yes"/>
      <point x="122" y="622"/>
      <point x="77" y="625"/>
      <point x="42" y="625" type="curve" smooth="yes"/>
      <point x="39" y="625"/>
      <point x="39" y="613"/>
      <point x="42" y="613" type="curve" smooth="yes"/>
      <point x="103" y="613"/>
      <point x="115" y="601"/>
      <point x="115" y="544" type="curve" smooth="yes"/>
      <point x="115" y="81" type="line" smooth="yes"/>
      <point x="115" y="23"/>
      <point x="103" y="12"/>
      <point x="42" y="12" type="curve" smooth="yes"/>
      <point x="39" y="12"/>
      <point x="39" y="0"/>
      <point x="42" y="0" type="curve" smooth="yes"/>
      <point x="77" y="0"/>
      <point x="122" y="2"/>
      <point x="170" y="2" type="curve" smooth="yes"/>
      <point x="221" y="2"/>
      <point x="263" y="0"/>
      <point x="298" y="0" type="curve" smooth="yes"/>
      <point x="302" y="0"/>
      <point x="302" y="12"/>
      <point x="298" y="12" type="curve" smooth="yes"/>
      <point x="236" y="12"/>
      <point x="227" y="23"/>
      <point x="227" y="81" type="curve" smooth="yes"/>
    </contour>
    <contour>
      <point x="273" y="12" type="move" name="ogonek"/>
    </contour>
    <contour>
      <point x="171" y="625" type="move" name="top"/>
    </contour>
    <contour>
      <point x="23" y="625" type="move" name="topleft"/>
    </contour>
    <contour>
      <point x="171" y="0" type="move" name="bottom"/>
    </contour>
  </outline>
</glyph>
<glyph name="J" format="1">
  <advance width="339"/>
  <unicode hex="004A"/>
  <outline>
    <contour>
      <point x="267" y="625"/>
      <point x="228" y="622"/>
      <point x="181" y="622" type="curve" smooth="yes"/>
      <point x="130" y="622"/>
      <point x="83" y="625"/>
      <point x="42" y="625" type="curve" smooth="yes"/>
      <point x="39" y="625"/>
      <point x="39" y="613"/>
      <point x="42" y="613" type="curve" smooth="yes"/>
      <point x="113" y="613"/>
      <point x="126" y="601"/>
      <point x="126" y="544" type="curve" smooth="yes"/>
      <point x="126" y="-74" type="line" smooth="yes"/>
      <point x="126" y="-181"/>
      <point x="113" y="-221"/>
      <point x="85" y="-221" type="curve" smooth="yes"/>
      <point x="53" y="-221"/>
      <point x="60" y="-131"/>
      <point x="-5" y="-131" type="curve" smooth="yes"/>
      <point x="-42" y="-131"/>
      <point x="-57" y="-158"/>
      <point x="-57" y="-182" type="curve" smooth="yes"/>
      <point x="-57" y="-221"/>
      <point x="-20" y="-242"/>
      <point x="29" y="-242" type="curve" smooth="yes"/>
      <point x="161" y="-242"/>
      <point x="239" y="-154"/>
      <point x="239" y="-4" type="curve" smooth="yes"/>
      <point x="239" y="542" type="line" smooth="yes"/>
      <point x="239" y="599"/>
      <point x="247" y="613"/>
      <point x="298" y="613" type="curve" smooth="yes"/>
      <point x="302" y="613"/>
      <point x="302" y="625"/>
      <point x="298" y="625" type="curve" smooth="yes"/>
    </contour>
    <contour>
      <point x="175" y="625" type="move" name="top"/>
    </contour>
    <contour>
      <point x="170" y="0" type="move" name="bottom"/>
    </contour>
  </outline>
</glyph>
<glyph name="K" format="1">
  <advance width="655"/>
  <unicode hex="004B"/>
  <outline>
    <contour>
      <point x="103" y="23"/>
      <point x="91" y="12"/>
      <point x="30" y="12" type="curve" smooth="yes"/>
      <point x="27" y="12"/>
      <point x="27" y="0"/>
      <point x="30" y="0" type="curve" smooth="yes"/>
      <point x="65" y="0"/>
      <point x="110" y="2"/>
      <point x="158" y="2" type="curve" smooth="yes"/>
      <point x="208" y="2"/>
      <point x="250" y="0"/>
      <point x="285" y="0" type="curve" smooth="yes"/>
      <point x="290" y="0"/>
      <point x="290" y="12"/>
      <point x="285" y="12" type="curve" smooth="yes"/>
      <point x="223" y="12"/>
      <point x="214" y="23"/>
      <point x="214" y="81" type="curve" smooth="yes"/>
      <point x="214" y="542" type="line" smooth="yes"/>
      <point x="214" y="599"/>
      <point x="225" y="613"/>
      <point x="285" y="613" type="curve" smooth="yes"/>
      <point x="289" y="613"/>
      <point x="289" y="625"/>
      <point x="285" y="625" type="curve" smooth="yes"/>
      <point x="251" y="625"/>
      <point x="208" y="622"/>
      <point x="158" y="622" type="curve" smooth="yes"/>
      <point x="110" y="622"/>
      <point x="67" y="625"/>
      <point x="32" y="625" type="curve" smooth="yes"/>
      <point x="28" y="625"/>
      <point x="28" y="613"/>
      <point x="32" y="613" type="curve" smooth="yes"/>
      <point x="92" y="613"/>
      <point x="103" y="601"/>
      <point x="103" y="544" type="curve" smooth="yes"/>
      <point x="103" y="81" type="line" smooth="yes"/>
    </contour>
    <contour>
      <point x="496" y="-29"/>
      <point x="470" y="0"/>
      <point x="552" y="0" type="curve" smooth="yes"/>
      <point x="570" y="0"/>
      <point x="605" y="0"/>
      <point x="664" y="0" type="curve" smooth="yes"/>
      <point x="668" y="0"/>
      <point x="668" y="12"/>
      <point x="664" y="12" type="curve" smooth="yes"/>
      <point x="609" y="12"/>
      <point x="593" y="16"/>
      <point x="463" y="201" type="curve" smooth="yes"/>
      <point x="310" y="407" type="line"/>
      <point x="230" y="330" type="line"/>
      <point x="367" y="145" type="line" smooth="yes"/>
    </contour>
    <contour>
      <point x="171" y="255" type="line"/>
      <point x="428" y="516" type="line" smooth="yes"/>
      <point x="488" y="575"/>
      <point x="568" y="613"/>
      <point x="629" y="613" type="curve" smooth="yes"/>
      <point x="633" y="613"/>
      <point x="633" y="625"/>
      <point x="629" y="625" type="curve" smooth="yes"/>
      <point x="594" y="625"/>
      <point x="563" y="622"/>
      <point x="499" y="622" type="curve" smooth="yes"/>
      <point x="437" y="622"/>
      <point x="406" y="625"/>
      <point x="370" y="625" type="curve" smooth="yes"/>
      <point x="366" y="625"/>
      <point x="366" y="613"/>
      <point x="370" y="613" type="curve" smooth="yes"/>
      <point x="436" y="613"/>
      <point x="451" y="571"/>
      <point x="402" y="522" type="curve" smooth="yes"/>
      <point x="144" y="258" type="line"/>
    </contour>
    <contour>
      <point x="331" y="625" type="move" name="top"/>
    </contour>
    <contour>
      <point x="350" y="0" type="move" name="bottom"/>
    </contour>
  </outline>
</glyph>
<glyph name="L" format="1">
  <advance width="545"/>
  <unicode hex="004C"/>
  <outline>
    <contour>
      <point x="213" y="600"/>
      <point x="223" y="613"/>
      <point x="284" y="613" type="curve" smooth="yes"/>
      <point x="288" y="613"/>
      <point x="288" y="625"/>
      <point x="284" y="625" type="curve" smooth="yes"/>
      <point x="250" y="625"/>
      <point x="207" y="622"/>
      <point x="157" y="622" type="curve" smooth="yes"/>
      <point x="109" y="622"/>
      <point x="62" y="625"/>
      <point x="30" y="625" type="curve" smooth="yes"/>
      <point x="27" y="625"/>
      <point x="27" y="613"/>
      <point x="30" y="613" type="curve" smooth="yes"/>
      <point x="91" y="613"/>
      <point x="102" y="601"/>
      <point x="102" y="544" type="curve" smooth="yes"/>
      <point x="102" y="81" type="line" smooth="yes"/>
      <point x="102" y="23"/>
      <point x="91" y="12"/>
      <point x="30" y="12" type="curve" smooth="yes"/>
      <point x="27" y="12"/>
      <point x="27" y="0"/>
      <point x="30" y="0" type="curve" smooth="yes"/>
      <point x="502" y="0" type="line" smooth="yes"/>
      <point x="513" y="0"/>
      <point x="517" y="4"/>
      <point x="517" y="15" type="curve" smooth="yes"/>
      <point x="517" y="67"/>
      <point x="522" y="136"/>
      <point x="526" y="180" type="curve" smooth="yes"/>
      <point x="526" y="184"/>
      <point x="516" y="186"/>
      <point x="515" y="182" type="curve" smooth="yes"/>
      <point x="490" y="88"/>
      <point x="408" y="28"/>
      <point x="304" y="28" type="curve" smooth="yes"/>
      <point x="270" y="28" type="line" smooth="yes"/>
      <point x="221" y="28"/>
      <point x="213" y="36"/>
      <point x="213" y="85" type="curve" smooth="yes"/>
      <point x="213" y="543" type="line" smooth="yes"/>
    </contour>
    <contour>
      <point x="292" y="0" type="move" name="bottom"/>
    </contour>
    <contour>
      <point x="163" y="625" type="move" name="top"/>
    </contour>
    <contour>
      <point x="501" y="625" type="move" name="topright"/>
    </contour>
    <contour>
      <point x="273" y="312" type="move" name="center"/>
    </contour>
  </outline>
</glyph>
<glyph name="M" format="1">
  <advance width="733"/>
  <unicode hex="004D"/>
  <outline>
    <contour>
      <point x="99" y="48"/>
      <point x="69" y="10"/>
      <point x="23" y="10" type="curve" smooth="yes"/>
      <point x="20" y="10"/>
      <point x="20" y="0"/>
      <point x="23" y="0" type="curve" smooth="yes"/>
      <point x="48" y="0"/>
      <point x="77" y="2"/>
      <point x="114" y="2" type="curve" smooth="yes"/>
      <point x="146" y="2"/>
      <point x="172" y="0"/>
      <point x="197" y="0" type="curve" smooth="yes"/>
      <point x="200" y="0"/>
      <point x="200" y="10"/>
      <point x="197" y="10" type="curve" smooth="yes"/>
      <point x="150" y="10"/>
      <point x="123" y="48"/>
      <point x="124" y="109" type="curve" smooth="yes"/>
      <point x="133" y="513" type="line"/>
      <point x="109" y="515" type="line"/>
      <point x="100" y="109" type="line" smooth="yes"/>
    </contour>
    <contour>
      <point x="660" y="10"/>
      <point x="653" y="20"/>
      <point x="650" y="69" type="curve" smooth="yes"/>
      <point x="629" y="457" type="line" smooth="yes"/>
      <point x="627" y="503"/>
      <point x="651" y="524"/>
      <point x="704" y="524" type="curve" smooth="yes"/>
      <point x="707" y="524"/>
      <point x="707" y="534"/>
      <point x="704" y="534" type="curve" smooth="yes"/>
      <point x="678" y="534"/>
      <point x="656" y="533"/>
      <point x="619" y="533" type="curve" smooth="yes"/>
      <point x="602" y="533"/>
      <point x="590" y="534"/>
      <point x="579" y="534" type="curve" smooth="yes"/>
      <point x="566" y="534"/>
      <point x="560" y="529"/>
      <point x="553" y="513" type="curve" smooth="yes"/>
      <point x="353" y="54" type="line"/>
      <point x="396" y="131" type="line"/>
      <point x="204" y="490" type="line" smooth="yes"/>
      <point x="185" y="526"/>
      <point x="180" y="534"/>
      <point x="165" y="534" type="curve" smooth="yes"/>
      <point x="152" y="534"/>
      <point x="129" y="533"/>
      <point x="100" y="533" type="curve" smooth="yes"/>
      <point x="82" y="533"/>
      <point x="53" y="534"/>
      <point x="29" y="534" type="curve" smooth="yes"/>
      <point x="26" y="534"/>
      <point x="26" y="524"/>
      <point x="29" y="524" type="curve" smooth="yes"/>
      <point x="61" y="524"/>
      <point x="85" y="505"/>
      <point x="107" y="463" type="curve" smooth="yes"/>
      <point x="347" y="6" type="line" smooth="yes"/>
      <point x="349" y="2"/>
      <point x="359" y="2"/>
      <point x="361" y="6" type="curve" smooth="yes"/>
      <point x="579" y="517" type="line"/>
      <point x="535" y="449" type="line"/>
      <point x="555" y="69" type="line" smooth="yes"/>
      <point x="558" y="20"/>
      <point x="547" y="10"/>
      <point x="494" y="10" type="curve" smooth="yes"/>
      <point x="491" y="10"/>
      <point x="491" y="0"/>
      <point x="494" y="0" type="curve" smooth="yes"/>
      <point x="524" y="0"/>
      <point x="560" y="2"/>
      <point x="603" y="2" type="curve" smooth="yes"/>
      <point x="644" y="2"/>
      <point x="682" y="0"/>
      <point x="712" y="0" type="curve" smooth="yes"/>
      <point x="715" y="0"/>
      <point x="715" y="10"/>
      <point x="712" y="10" type="curve" smooth="yes"/>
    </contour>
    <contour>
      <point x="367" y="534" type="move" name="top"/>
    </contour>
    <contour>
      <point x="357" y="0" type="move" name="bottom"/>
    </contour>
  </outline>
</glyph>
<glyph name="N" format="1">
  <advance width="735"/>
  <unicode hex="004E"/>
  <outline>
    <contour>
      <point x="127" y="56"/>
      <point x="90" y="12"/>
      <point x="32" y="12" type="curve" smooth="yes"/>
      <point x="28" y="12"/>
      <point x="28" y="0"/>
      <point x="32" y="0" type="curve" smooth="yes"/>
      <point x="64" y="0"/>
      <point x="103" y="2"/>
      <point x="143" y="2" type="curve" smooth="yes"/>
      <point x="180" y="2"/>
      <point x="211" y="0"/>
      <point x="240" y="0" type="curve" smooth="yes"/>
      <point x="243" y="0"/>
      <point x="243" y="12"/>
      <point x="240" y="12" type="curve" smooth="yes"/>
      <point x="188" y="12"/>
      <point x="157" y="56"/>
      <point x="157" y="127" type="curve" smooth="yes"/>
      <point x="157" y="600" type="line"/>
      <point x="127" y="602" type="line"/>
      <point x="127" y="127" type="line" smooth="yes"/>
    </contour>
    <contour>
      <point x="629" y="150" type="line"/>
      <point x="262" y="573" type="line" smooth="yes"/>
      <point x="230" y="611"/>
      <point x="229" y="625"/>
      <point x="212" y="625" type="curve" smooth="yes"/>
      <point x="191" y="625"/>
      <point x="150" y="623"/>
      <point x="102" y="623" type="curve" smooth="yes"/>
      <point x="78" y="623"/>
      <point x="48" y="625"/>
      <point x="22" y="625" type="curve" smooth="yes"/>
      <point x="19" y="625"/>
      <point x="19" y="613"/>
      <point x="22" y="613" type="curve" smooth="yes"/>
      <point x="55" y="613"/>
      <point x="85" y="598"/>
      <point x="133" y="543" type="curve" smooth="yes"/>
      <point x="626" y="-18" type="line" smooth="yes"/>
      <point x="628" y="-20"/>
      <point x="637" y="-19"/>
      <point x="637" y="-15" type="curve" smooth="yes"/>
    </contour>
    <contour>
      <point x="637" y="568"/>
      <point x="670" y="613"/>
      <point x="723" y="613" type="curve" smooth="yes"/>
      <point x="726" y="613"/>
      <point x="726" y="625"/>
      <point x="723" y="625" type="curve" smooth="yes"/>
      <point x="694" y="625"/>
      <point x="658" y="622"/>
      <point x="622" y="622" type="curve" smooth="yes"/>
      <point x="585" y="622"/>
      <point x="554" y="625"/>
      <point x="525" y="625" type="curve" smooth="yes"/>
      <point x="522" y="625"/>
      <point x="522" y="613"/>
      <point x="525" y="613" type="curve" smooth="yes"/>
      <point x="577" y="613"/>
      <point x="608" y="568"/>
      <point x="608" y="497" type="curve" smooth="yes"/>
      <point x="608" y="15" type="line"/>
      <point x="637" y="-15" type="line"/>
      <point x="637" y="497" type="line" smooth="yes"/>
    </contour>
    <contour>
      <point x="382" y="625" type="move" name="top"/>
    </contour>
    <contour>
      <point x="374" y="0" type="move" name="bottom"/>
    </contour>
  </outline>
</glyph>
<glyph name="O" format="1">
  <advance width="766"/>
  <unicode hex="004F"/>
  <outline>
    <contour>
      <point x="556" y="-12"/>
      <point x="717" y="133"/>
      <point x="717" y="319" type="curve" smooth="yes"/>
      <point x="717" y="480"/>
      <point x="598" y="636"/>
      <point x="401" y="636" type="curve" smooth="yes"/>
      <point x="239" y="636"/>
      <point x="49" y="529"/>
      <point x="49" y="312" type="curve" smooth="yes"/>
      <point x="49" y="136"/>
      <point x="174" y="-12"/>
      <point x="366" y="-12" type="curve" smooth="yes"/>
    </contour>
    <contour>
      <point x="268" y="13"/>
      <point x="172" y="153"/>
      <point x="172" y="349" type="curve" smooth="yes"/>
      <point x="172" y="511"/>
      <point x="239" y="609"/>
      <point x="361" y="609" type="curve" smooth="yes"/>
      <point x="506" y="609"/>
      <point x="594" y="473"/>
      <point x="594" y="290" type="curve" smooth="yes"/>
      <point x="594" y="112"/>
      <point x="510" y="13"/>
      <point x="399" y="13" type="curve" smooth="yes"/>
    </contour>
    <contour>
      <point x="395" y="0" type="move" name="bottom"/>
    </contour>
    <contour>
      <point x="502" y="12" type="move" name="ogonek"/>
    </contour>
    <contour>
      <point x="388" y="625" type="move" name="top"/>
    </contour>
    <contour>
      <point x="627" y="581" type="move" name="topright"/>
    </contour>
    <contour>
      <point x="23" y="625" type="move" name="topleft"/>
    </contour>
    <contour>
      <point x="384" y="312" type="move" name="center"/>
    </contour>
  </outline>
</glyph>
<glyph name="P" format="1">
  <advance width="553"/>
  <unicode hex="0050"/>
  <outline>
    <contour>
      <point x="216" y="542" type="line" smooth="yes"/>
      <point x="216" y="594"/>
      <point x="227" y="606"/>
      <point x="264" y="606" type="curve" smooth="yes"/>
      <point x="350" y="606"/>
      <point x="395" y="546"/>
      <point x="395" y="441" type="curve" smooth="yes"/>
      <point x="395" y="330"/>
      <point x="345" y="276"/>
      <point x="288" y="276" type="curve" smooth="yes"/>
      <point x="280" y="276"/>
      <point x="265" y="277"/>
      <point x="254" y="280" type="curve" smooth="yes"/>
      <point x="249" y="281"/>
      <point x="247" y="268"/>
      <point x="251" y="267" type="curve" smooth="yes"/>
      <point x="267" y="263"/>
      <point x="284" y="262"/>
      <point x="298" y="262" type="curve" smooth="yes"/>
      <point x="402" y="262"/>
      <point x="522" y="327"/>
      <point x="516" y="464" type="curve" smooth="yes"/>
      <point x="511" y="581"/>
      <point x="422" y="628"/>
      <point x="296" y="628" type="curve" smooth="yes"/>
      <point x="251" y="628"/>
      <point x="192" y="622"/>
      <point x="160" y="622" type="curve" smooth="yes"/>
      <point x="112" y="622"/>
      <point x="69" y="625"/>
      <point x="34" y="625" type="curve" smooth="yes"/>
      <point x="30" y="625"/>
      <point x="30" y="613"/>
      <point x="34" y="613" type="curve" smooth="yes"/>
      <point x="95" y="613"/>
      <point x="105" y="601"/>
      <point x="105" y="544" type="curve" smooth="yes"/>
      <point x="105" y="81" type="line" smooth="yes"/>
      <point x="105" y="23"/>
      <point x="95" y="12"/>
      <point x="34" y="12" type="curve" smooth="yes"/>
      <point x="30" y="12"/>
      <point x="30" y="0"/>
      <point x="34" y="0" type="curve" smooth="yes"/>
      <point x="69" y="0"/>
      <point x="113" y="2"/>
      <point x="161" y="2" type="curve" smooth="yes"/>
      <point x="220" y="2"/>
      <point x="269" y="0"/>
      <point x="312" y="0" type="curve" smooth="yes"/>
      <point x="316" y="0"/>
      <point x="316" y="12"/>
      <point x="312" y="12" type="curve" smooth="yes"/>
      <point x="229" y="12"/>
      <point x="216" y="25"/>
      <point x="216" y="85" type="curve" smooth="yes"/>
    </contour>
    <contour>
      <point x="277" y="625" type="move" name="top"/>
    </contour>
    <contour>
      <point x="277" y="0" type="move" name="bottom"/>
    </contour>
  </outline>
</glyph>
<glyph name="Q" format="1">
  <advance width="766"/>
  <unicode hex="0051"/>
  <outline>
    <contour>
      <point x="359" y="2" type="line"/>
      <point x="440" y="-130"/>
      <point x="566" y="-201"/>
      <point x="668" y="-201" type="curve" smooth="yes"/>
      <point x="699" y="-201"/>
      <point x="725" y="-196"/>
      <point x="749" y="-189" type="curve" smooth="yes"/>
      <point x="752" y="-188"/>
      <point x="749" y="-178"/>
      <point x="745" y="-179" type="curve" smooth="yes"/>
      <point x="736" y="-180"/>
      <point x="725" y="-181"/>
      <point x="710" y="-181" type="curve" smooth="yes"/>
      <point x="636" y="-181"/>
      <point x="543" y="-102"/>
      <point x="491" y="12" type="curve"/>
    </contour>
    <component base="O"/>
    <contour>
      <point x="384" y="625" type="move" name="top"/>
    </contour>
    <contour>
      <point x="384" y="0" type="move" name="bottom"/>
    </contour>
  </outline>
</glyph>
<glyph name="R" format="1">
  <advance width="698"/>
  <unicode hex="0052"/>
  <outline>
    <contour>
      <point x="557" y="0"/>
      <point x="615" y="0"/>
      <point x="708" y="0" type="curve" smooth="yes"/>
      <point x="711" y="0"/>
      <point x="711" y="12"/>
      <point x="708" y="12" type="curve" smooth="yes"/>
      <point x="627" y="12"/>
      <point x="547" y="104"/>
      <point x="387" y="356" type="curve"/>
      <point x="295" y="327" type="line"/>
      <point x="412" y="122"/>
      <point x="499" y="0"/>
      <point x="530" y="0" type="curve" smooth="yes"/>
    </contour>
    <contour>
      <point x="258" y="628"/>
      <point x="208" y="622"/>
      <point x="168" y="622" type="curve" smooth="yes"/>
      <point x="120" y="622"/>
      <point x="77" y="625"/>
      <point x="42" y="625" type="curve" smooth="yes"/>
      <point x="39" y="625"/>
      <point x="39" y="613"/>
      <point x="42" y="613" type="curve" smooth="yes"/>
      <point x="103" y="613"/>
      <point x="113" y="601"/>
      <point x="113" y="544" type="curve" smooth="yes"/>
      <point x="113" y="81" type="line" smooth="yes"/>
      <point x="113" y="23"/>
      <point x="102" y="12"/>
      <point x="41" y="12" type="curve" smooth="yes"/>
      <point x="37" y="12"/>
      <point x="37" y="0"/>
      <point x="41" y="0" type="curve" smooth="yes"/>
      <point x="76" y="0"/>
      <point x="120" y="2"/>
      <point x="168" y="2" type="curve" smooth="yes"/>
      <point x="219" y="2"/>
      <point x="261" y="0"/>
      <point x="296" y="0" type="curve" smooth="yes"/>
      <point x="299" y="0"/>
      <point x="299" y="12"/>
      <point x="296" y="12" type="curve" smooth="yes"/>
      <point x="234" y="12"/>
      <point x="225" y="23"/>
      <point x="225" y="81" type="curve" smooth="yes"/>
      <point x="225" y="313" type="line"/>
      <point x="241" y="312"/>
      <point x="261" y="312"/>
      <point x="280" y="312" type="curve" smooth="yes"/>
      <point x="387" y="312"/>
      <point x="495" y="400"/>
      <point x="495" y="501" type="curve" smooth="yes"/>
      <point x="495" y="581"/>
      <point x="425" y="628"/>
      <point x="302" y="628" type="curve" smooth="yes"/>
    </contour>
    <contour>
      <point x="380" y="365"/>
      <point x="353" y="338"/>
      <point x="283" y="338" type="curve" smooth="yes"/>
      <point x="267" y="338"/>
      <point x="243" y="339"/>
      <point x="225" y="342" type="curve"/>
      <point x="225" y="542" type="line" smooth="yes"/>
      <point x="225" y="588"/>
      <point x="241" y="607"/>
      <point x="287" y="607" type="curve" smooth="yes"/>
      <point x="340" y="607"/>
      <point x="380" y="581"/>
      <point x="380" y="463" type="curve" smooth="yes"/>
    </contour>
    <contour>
      <point x="257" y="625" type="move" name="top"/>
    </contour>
    <contour>
      <point x="345" y="0" type="move" name="bottom"/>
    </contour>
  </outline>
</glyph>
<glyph name="S" format="1">
  <advance width="515"/>
  <unicode hex="0053"/>
  <outline>
    <contour>
      <point x="174" y="585"/>
      <point x="215" y="614"/>
      <point x="265" y="614" type="curve" smooth="yes"/>
      <point x="372" y="614"/>
      <point x="409" y="477"/>
      <point x="425" y="444" type="curve" smooth="yes"/>
      <point x="427" y="440"/>
      <point x="436" y="443"/>
      <point x="436" y="447" type="curve" smooth="yes"/>
      <point x="436" y="594" type="line" smooth="yes"/>
      <point x="436" y="602"/>
      <point x="434" y="608"/>
      <point x="421" y="614" type="curve" smooth="yes"/>
      <point x="393" y="626"/>
      <point x="340" y="636"/>
      <point x="292" y="636" type="curve" smooth="yes"/>
      <point x="192" y="636"/>
      <point x="82" y="587"/>
      <point x="82" y="475" type="curve" smooth="yes"/>
      <point x="82" y="386"/>
      <point x="151" y="342"/>
      <point x="221" y="296" type="curve" smooth="yes"/>
      <point x="292" y="249"/>
      <point x="365" y="202"/>
      <point x="365" y="108" type="curve" smooth="yes"/>
      <point x="365" y="33"/>
      <point x="319" y="13"/>
      <point x="273" y="13" type="curve" smooth="yes"/>
      <point x="178" y="13"/>
      <point x="126" y="124"/>
      <point x="85" y="208" type="curve" smooth="yes"/>
      <point x="83" y="213"/>
      <point x="73" y="212"/>
      <point x="74" y="206" type="curve" smooth="yes"/>
      <point x="77" y="47" type="line" smooth="yes"/>
      <point x="77" y="35"/>
      <point x="81" y="32"/>
      <point x="87" y="28" type="curve" smooth="yes"/>
      <point x="110" y="8"/>
      <point x="187" y="-12"/>
      <point x="247" y="-12" type="curve" smooth="yes"/>
      <point x="370" y="-12"/>
      <point x="463" y="60"/>
      <point x="463" y="166" type="curve" smooth="yes"/>
      <point x="463" y="262"/>
      <point x="386" y="312"/>
      <point x="311" y="360" type="curve" smooth="yes"/>
      <point x="241" y="405"/>
      <point x="174" y="448"/>
      <point x="174" y="524" type="curve" smooth="yes"/>
    </contour>
    <contour>
      <point x="271" y="625" type="move" name="top"/>
    </contour>
    <contour>
      <point x="275" y="0" type="move" name="bottom"/>
    </contour>
  </outline>
</glyph>
<glyph name="T" format="1">
  <advance width="550"/>
  <unicode hex="0054"/>
  <outline>
    <contour>
      <point x="222" y="515"/>
      <point x="229" y="503"/>
      <point x="229" y="465" type="curve" smooth="yes"/>
      <point x="229" y="69" type="line" smooth="yes"/>
      <point x="229" y="20"/>
      <point x="217" y="10"/>
      <point x="157" y="10" type="curve" smooth="yes"/>
      <point x="154" y="10"/>
      <point x="154" y="0"/>
      <point x="157" y="0" type="curve" smooth="yes"/>
      <point x="190" y="0"/>
      <point x="231" y="2"/>
      <point x="276" y="2" type="curve" smooth="yes"/>
      <point x="324" y="2"/>
      <point x="363" y="0"/>
      <point x="396" y="0" type="curve" smooth="yes"/>
      <point x="399" y="0"/>
      <point x="399" y="10"/>
      <point x="396" y="10" type="curve" smooth="yes"/>
      <point x="334" y="10"/>
      <point x="325" y="20"/>
      <point x="325" y="69" type="curve" smooth="yes"/>
      <point x="325" y="463" type="line" smooth="yes"/>
      <point x="325" y="503"/>
      <point x="332" y="515"/>
      <point x="366" y="515" type="curve" smooth="yes"/>
      <point x="433" y="515"/>
      <point x="483" y="473"/>
      <point x="500" y="383" type="curve" smooth="yes"/>
      <point x="501" y="380"/>
      <point x="510" y="380"/>
      <point x="510" y="383" type="curve" smooth="yes"/>
      <point x="510" y="412"/>
      <point x="514" y="518"/>
      <point x="518" y="556" type="curve" smooth="yes"/>
      <point x="518" y="560"/>
      <point x="509" y="560"/>
      <point x="508" y="556" type="curve" smooth="yes"/>
      <point x="502" y="538"/>
      <point x="482" y="534"/>
      <point x="441" y="534" type="curve" smooth="yes"/>
      <point x="397" y="534"/>
      <point x="356" y="532"/>
      <point x="276" y="532" type="curve" smooth="yes"/>
      <point x="212" y="532"/>
      <point x="153" y="533"/>
      <point x="104" y="534" type="curve" smooth="yes"/>
      <point x="88" y="534"/>
      <point x="56" y="536"/>
      <point x="56" y="553" type="curve" smooth="yes"/>
      <point x="56" y="559"/>
      <point x="46" y="558"/>
      <point x="46" y="553" type="curve" smooth="yes"/>
      <point x="46" y="511"/>
      <point x="38" y="415"/>
      <point x="34" y="383" type="curve" smooth="yes"/>
      <point x="34" y="380"/>
      <point x="43" y="379"/>
      <point x="44" y="382" type="curve" smooth="yes"/>
      <point x="72" y="466"/>
      <point x="120" y="515"/>
      <point x="190" y="515" type="curve" smooth="yes"/>
    </contour>
    <contour>
      <point x="275" y="267" type="move" name="center"/>
    </contour>
    <contour>
      <point x="280" y="0" type="move" name="bottom"/>
    </contour>
    <contour>
      <point x="275" y="534" type="move" name="top"/>
    </contour>
  </outline>
</glyph>
<glyph name="U" format="1">
  <advance width="703"/>
  <unicode hex="0055"/>
  <outline>
    <contour>
      <point x="571" y="218" type="line" smooth="yes"/>
      <point x="571" y="92"/>
      <point x="504" y="23"/>
      <point x="394" y="23" type="curve" smooth="yes"/>
      <point x="284" y="23"/>
      <point x="214" y="92"/>
      <point x="214" y="256" type="curve" smooth="yes"/>
      <point x="214" y="542" type="line" smooth="yes"/>
      <point x="214" y="599"/>
      <point x="225" y="613"/>
      <point x="285" y="613" type="curve" smooth="yes"/>
      <point x="289" y="613"/>
      <point x="289" y="625"/>
      <point x="285" y="625" type="curve" smooth="yes"/>
      <point x="251" y="625"/>
      <point x="208" y="622"/>
      <point x="158" y="622" type="curve" smooth="yes"/>
      <point x="110" y="622"/>
      <point x="67" y="625"/>
      <point x="32" y="625" type="curve" smooth="yes"/>
      <point x="28" y="625"/>
      <point x="28" y="613"/>
      <point x="32" y="613" type="curve" smooth="yes"/>
      <point x="92" y="613"/>
      <point x="103" y="601"/>
      <point x="103" y="544" type="curve" smooth="yes"/>
      <point x="103" y="221" type="line" smooth="yes"/>
      <point x="103" y="73"/>
      <point x="209" y="-14"/>
      <point x="356" y="-14" type="curve" smooth="yes"/>
      <point x="505" y="-14"/>
      <point x="605" y="77"/>
      <point x="605" y="219" type="curve" smooth="yes"/>
      <point x="605" y="497" type="line" smooth="yes"/>
      <point x="605" y="568"/>
      <point x="635" y="613"/>
      <point x="688" y="613" type="curve" smooth="yes"/>
      <point x="691" y="613"/>
      <point x="691" y="625"/>
      <point x="688" y="625" type="curve" smooth="yes"/>
      <point x="658" y="625"/>
      <point x="623" y="622"/>
      <point x="587" y="622" type="curve" smooth="yes"/>
      <point x="545" y="622"/>
      <point x="511" y="625"/>
      <point x="478" y="625" type="curve" smooth="yes"/>
      <point x="475" y="625"/>
      <point x="475" y="613"/>
      <point x="478" y="613" type="curve" smooth="yes"/>
      <point x="537" y="613"/>
      <point x="571" y="568"/>
      <point x="571" y="497" type="curve" smooth="yes"/>
    </contour>
    <contour>
      <point x="495" y="12" type="move" name="ogonek"/>
    </contour>
    <contour>
      <point x="373" y="625" type="move" name="top"/>
    </contour>
    <contour>
      <point x="680" y="625" type="move" name="topright"/>
    </contour>
    <contour>
      <point x="352" y="0" type="move" name="bottom"/>
    </contour>
  </outline>
</glyph>
<glyph name="V" format="1">
  <advance width="660"/>
  <unicode hex="0056"/>
  <outline>
    <contour>
      <point x="632" y="625"/>
      <point x="614" y="622"/>
      <point x="577" y="622" type="curve" smooth="yes"/>
      <point x="520" y="622"/>
      <point x="491" y="625"/>
      <point x="453" y="625" type="curve" smooth="yes"/>
      <point x="449" y="625"/>
      <point x="449" y="613"/>
      <point x="453" y="613" type="curve" smooth="yes"/>
      <point x="518" y="613"/>
      <point x="539" y="563"/>
      <point x="515" y="498" type="curve" smooth="yes"/>
      <point x="347" y="54" type="line"/>
      <point x="394" y="136" type="line"/>
      <point x="212" y="524" type="line" smooth="yes"/>
      <point x="186" y="578"/>
      <point x="207" y="613"/>
      <point x="264" y="613" type="curve" smooth="yes"/>
      <point x="268" y="613"/>
      <point x="268" y="625"/>
      <point x="264" y="625" type="curve" smooth="yes"/>
      <point x="232" y="625"/>
      <point x="189" y="622"/>
      <point x="78" y="622" type="curve" smooth="yes"/>
      <point x="28" y="622"/>
      <point x="28" y="625"/>
      <point x="5" y="625" type="curve" smooth="yes"/>
      <point x="1" y="625"/>
      <point x="1" y="613"/>
      <point x="5" y="613" type="curve" smooth="yes"/>
      <point x="36" y="613"/>
      <point x="58" y="588"/>
      <point x="81" y="542" type="curve" smooth="yes"/>
      <point x="336" y="1" type="line" smooth="yes"/>
      <point x="338" y="-4"/>
      <point x="356" y="-4"/>
      <point x="358" y="1" type="curve" smooth="yes"/>
      <point x="543" y="495" type="line" smooth="yes"/>
      <point x="570" y="567"/>
      <point x="616" y="613"/>
      <point x="665" y="613" type="curve" smooth="yes"/>
      <point x="669" y="613"/>
      <point x="669" y="625"/>
      <point x="665" y="625" type="curve" smooth="yes"/>
    </contour>
    <contour>
      <point x="330" y="625" type="move" name="top"/>
    </contour>
    <contour>
      <point x="330" y="0" type="move" name="bottom"/>
    </contour>
  </outline>
</glyph>
<glyph name="W" format="1">
  <advance width="911"/>
  <unicode hex="0057"/>
  <outline>
    <contour>
      <point x="462" y="359" type="line"/>
      <point x="347" y="54" type="line"/>
      <point x="389" y="123" type="line"/>
      <point x="200" y="524" type="line" smooth="yes"/>
      <point x="165" y="598"/>
      <point x="168" y="613"/>
      <point x="223" y="613" type="curve" smooth="yes"/>
      <point x="227" y="613"/>
      <point x="227" y="625"/>
      <point x="223" y="625" type="curve" smooth="yes"/>
      <point x="196" y="625"/>
      <point x="167" y="622"/>
      <point x="78" y="622" type="curve" smooth="yes"/>
      <point x="28" y="622"/>
      <point x="28" y="625"/>
      <point x="5" y="625" type="curve" smooth="yes"/>
      <point x="1" y="625"/>
      <point x="1" y="613"/>
      <point x="5" y="613" type="curve" smooth="yes"/>
      <point x="43" y="613"/>
      <point x="53" y="601"/>
      <point x="81" y="542" type="curve" smooth="yes"/>
      <point x="336" y="1" type="line" smooth="yes"/>
      <point x="338" y="-4"/>
      <point x="356" y="-4"/>
      <point x="358" y="1" type="curve" smooth="yes"/>
      <point x="481" y="331" type="line"/>
    </contour>
    <contour>
      <point x="883" y="625"/>
      <point x="865" y="622"/>
      <point x="828" y="622" type="curve" smooth="yes"/>
      <point x="778" y="622"/>
      <point x="751" y="625"/>
      <point x="716" y="625" type="curve" smooth="yes"/>
      <point x="712" y="625"/>
      <point x="712" y="613"/>
      <point x="716" y="613" type="curve" smooth="yes"/>
      <point x="766" y="613"/>
      <point x="788" y="560"/>
      <point x="761" y="488" type="curve" smooth="yes"/>
      <point x="599" y="54" type="line"/>
      <point x="642" y="123" type="line"/>
      <point x="451" y="524" type="line" smooth="yes"/>
      <point x="416" y="598"/>
      <point x="415" y="613"/>
      <point x="451" y="613" type="curve" smooth="yes"/>
      <point x="455" y="613"/>
      <point x="455" y="625"/>
      <point x="451" y="625" type="curve" smooth="yes"/>
      <point x="429" y="625"/>
      <point x="405" y="622"/>
      <point x="330" y="622" type="curve" smooth="yes"/>
      <point x="288" y="622"/>
      <point x="288" y="625"/>
      <point x="268" y="625" type="curve" smooth="yes"/>
      <point x="264" y="625"/>
      <point x="264" y="613"/>
      <point x="268" y="613" type="curve" smooth="yes"/>
      <point x="292" y="613"/>
      <point x="311" y="586"/>
      <point x="332" y="542" type="curve" smooth="yes"/>
      <point x="587" y="1" type="line" smooth="yes"/>
      <point x="589" y="-4"/>
      <point x="607" y="-4"/>
      <point x="609" y="1" type="curve" smooth="yes"/>
      <point x="794" y="495" type="line" smooth="yes"/>
      <point x="822" y="568"/>
      <point x="868" y="613"/>
      <point x="917" y="613" type="curve" smooth="yes"/>
      <point x="920" y="613"/>
      <point x="920" y="625"/>
      <point x="917" y="625" type="curve" smooth="yes"/>
    </contour>
    <contour>
      <point x="487" y="331" type="line"/>
      <point x="549" y="495" type="line" smooth="yes"/>
      <point x="579" y="575"/>
      <point x="615" y="613"/>
      <point x="660" y="613" type="curve" smooth="yes"/>
      <point x="663" y="613"/>
      <point x="663" y="625"/>
      <point x="660" y="625" type="curve" smooth="yes"/>
      <point x="630" y="625"/>
      <point x="615" y="622"/>
      <point x="582" y="622" type="curve" smooth="yes"/>
      <point x="522" y="622"/>
      <point x="537" y="625"/>
      <point x="517" y="625" type="curve" smooth="yes"/>
      <point x="513" y="625"/>
      <point x="513" y="613"/>
      <point x="517" y="613" type="curve" smooth="yes"/>
      <point x="550" y="613"/>
      <point x="550" y="577"/>
      <point x="520" y="498" type="curve" smooth="yes"/>
      <point x="468" y="359" type="line"/>
    </contour>
    <contour>
      <point x="471" y="625" type="move" name="top"/>
    </contour>
    <contour>
      <point x="456" y="0" type="move" name="bottom"/>
    </contour>
  </outline>
</glyph>
<glyph name="X" format="1">
  <advance width="647"/>
  <unicode hex="0058"/>
  <outline>
    <contour>
      <point x="441" y="0"/>
      <point x="482" y="2"/>
      <point x="539" y="2" type="curve" smooth="yes"/>
      <point x="579" y="2"/>
      <point x="614" y="0"/>
      <point x="644" y="0" type="curve" smooth="yes"/>
      <point x="648" y="0"/>
      <point x="648" y="12"/>
      <point x="644" y="12" type="curve" smooth="yes"/>
      <point x="599" y="12"/>
      <point x="566" y="33"/>
      <point x="533" y="83" type="curve" smooth="yes"/>
      <point x="216" y="573" type="line" smooth="yes"/>
      <point x="194" y="607"/>
      <point x="215" y="613"/>
      <point x="241" y="613" type="curve" smooth="yes"/>
      <point x="244" y="613"/>
      <point x="244" y="625"/>
      <point x="241" y="625" type="curve" smooth="yes"/>
      <point x="204" y="625"/>
      <point x="154" y="622"/>
      <point x="97" y="622" type="curve" smooth="yes"/>
      <point x="70" y="622"/>
      <point x="39" y="625"/>
      <point x="12" y="625" type="curve" smooth="yes"/>
      <point x="8" y="625"/>
      <point x="8" y="613"/>
      <point x="12" y="613" type="curve" smooth="yes"/>
      <point x="49" y="613"/>
      <point x="80" y="591"/>
      <point x="117" y="533" type="curve" smooth="yes"/>
      <point x="428" y="51" type="line" smooth="yes"/>
      <point x="449" y="19"/>
      <point x="429" y="12"/>
      <point x="404" y="12" type="curve" smooth="yes"/>
      <point x="400" y="12"/>
      <point x="400" y="0"/>
      <point x="404" y="0" type="curve" smooth="yes"/>
    </contour>
    <contour>
      <point x="39" y="0"/>
      <point x="56" y="2"/>
      <point x="94" y="2" type="curve" smooth="yes"/>
      <point x="151" y="2"/>
      <point x="179" y="0"/>
      <point x="218" y="0" type="curve" smooth="yes"/>
      <point x="221" y="0"/>
      <point x="221" y="12"/>
      <point x="218" y="12" type="curve" smooth="yes"/>
      <point x="153" y="12"/>
      <point x="149" y="61"/>
      <point x="205" y="140" type="curve" smooth="yes"/>
      <point x="316" y="298" type="line"/>
      <point x="298" y="312" type="line"/>
      <point x="175" y="146" type="line" smooth="yes"/>
      <point x="105" y="50"/>
      <point x="43" y="12"/>
      <point x="5" y="12" type="curve" smooth="yes"/>
      <point x="1" y="12"/>
      <point x="1" y="0"/>
      <point x="5" y="0" type="curve" smooth="yes"/>
    </contour>
    <contour>
      <point x="457" y="478" type="line" smooth="yes"/>
      <point x="527" y="574"/>
      <point x="589" y="613"/>
      <point x="628" y="613" type="curve" smooth="yes"/>
      <point x="632" y="613"/>
      <point x="632" y="625"/>
      <point x="628" y="625" type="curve" smooth="yes"/>
      <point x="594" y="625"/>
      <point x="577" y="622"/>
      <point x="539" y="622" type="curve" smooth="yes"/>
      <point x="482" y="622"/>
      <point x="454" y="625"/>
      <point x="415" y="625" type="curve" smooth="yes"/>
      <point x="412" y="625"/>
      <point x="412" y="613"/>
      <point x="415" y="613" type="curve" smooth="yes"/>
      <point x="480" y="613"/>
      <point x="484" y="564"/>
      <point x="428" y="484" type="curve" smooth="yes"/>
      <point x="317" y="326" type="line"/>
      <point x="335" y="312" type="line"/>
    </contour>
    <contour>
      <point x="324" y="625" type="move" name="top"/>
    </contour>
    <contour>
      <point x="324" y="0" type="move" name="bottom"/>
    </contour>
  </outline>
</glyph>
<glyph name="Y" format="1">
  <advance width="619"/>
  <unicode hex="0059"/>
  <outline>
    <contour>
      <point x="339" y="261" type="line"/>
      <point x="469" y="478" type="line" smooth="yes"/>
      <point x="516" y="557"/>
      <point x="584" y="613"/>
      <point x="625" y="613" type="curve" smooth="yes"/>
      <point x="628" y="613"/>
      <point x="628" y="625"/>
      <point x="625" y="625" type="curve" smooth="yes"/>
      <point x="595" y="625"/>
      <point x="580" y="622"/>
      <point x="547" y="622" type="curve" smooth="yes"/>
      <point x="484" y="622"/>
      <point x="454" y="625"/>
      <point x="412" y="625" type="curve" smooth="yes"/>
      <point x="408" y="625"/>
      <point x="408" y="613"/>
      <point x="412" y="613" type="curve" smooth="yes"/>
      <point x="474" y="613"/>
      <point x="485" y="561"/>
      <point x="441" y="487" type="curve" smooth="yes"/>
      <point x="318" y="278" type="line"/>
    </contour>
    <contour>
      <point x="356" y="319" type="line"/>
      <point x="212" y="546" type="line" smooth="yes"/>
      <point x="188" y="582"/>
      <point x="195" y="613"/>
      <point x="234" y="613" type="curve" smooth="yes"/>
      <point x="237" y="613"/>
      <point x="237" y="625"/>
      <point x="234" y="625" type="curve" smooth="yes"/>
      <point x="198" y="625"/>
      <point x="123" y="622"/>
      <point x="67" y="622" type="curve" smooth="yes"/>
      <point x="47" y="622"/>
      <point x="25" y="625"/>
      <point x="5" y="625" type="curve" smooth="yes"/>
      <point x="1" y="625"/>
      <point x="1" y="613"/>
      <point x="5" y="613" type="curve" smooth="yes"/>
      <point x="26" y="613"/>
      <point x="55" y="592"/>
      <point x="108" y="510" type="curve" smooth="yes"/>
      <point x="260" y="274" type="line"/>
    </contour>
    <contour>
      <point x="254" y="81" type="line" smooth="yes"/>
      <point x="254" y="23"/>
      <point x="242" y="12"/>
      <point x="181" y="12" type="curve" smooth="yes"/>
      <point x="178" y="12"/>
      <point x="178" y="0"/>
      <point x="181" y="0" type="curve" smooth="yes"/>
      <point x="216" y="0"/>
      <point x="261" y="2"/>
      <point x="309" y="2" type="curve" smooth="yes"/>
      <point x="359" y="2"/>
      <point x="401" y="0"/>
      <point x="436" y="0" type="curve" smooth="yes"/>
      <point x="440" y="0"/>
      <point x="440" y="12"/>
      <point x="436" y="12" type="curve" smooth="yes"/>
      <point x="374" y="12"/>
      <point x="365" y="23"/>
      <point x="365" y="81" type="curve" smooth="yes"/>
      <point x="365" y="319" type="line"/>
      <point x="254" y="310" type="line"/>
    </contour>
    <contour>
      <point x="324" y="625" type="move" name="top"/>
    </contour>
    <contour>
      <point x="310" y="0" type="move" name="bottom"/>
    </contour>
    <contour>
      <point x="23" y="625" type="move" name="topleft"/>
    </contour>
  </outline>
</glyph>
<glyph name="Z" format="1">
  <advance width="605"/>
  <unicode hex="005A"/>
  <outline>
    <contour>
      <point x="56" y="8"/>
      <point x="60" y="0"/>
      <point x="65" y="0" type="curve" smooth="yes"/>
      <point x="214" y="0"/>
      <point x="395" y="0"/>
      <point x="544" y="-2" type="curve" smooth="yes"/>
      <point x="550" y="-2"/>
      <point x="553" y="4"/>
      <point x="553" y="8" type="curve" smooth="yes"/>
      <point x="567" y="153" type="line" smooth="yes"/>
      <point x="567" y="157"/>
      <point x="557" y="157"/>
      <point x="556" y="153" type="curve" smooth="yes"/>
      <point x="543" y="81"/>
      <point x="471" y="19"/>
      <point x="398" y="19" type="curve" smooth="yes"/>
      <point x="356" y="19"/>
      <point x="283" y="19"/>
      <point x="196" y="19" type="curve" smooth="yes"/>
      <point x="188" y="19"/>
      <point x="187" y="20"/>
      <point x="192" y="27" type="curve" smooth="yes"/>
      <point x="538" y="612" type="line" smooth="yes"/>
      <point x="542" y="616"/>
      <point x="537" y="625"/>
      <point x="531" y="625" type="curve" smooth="yes"/>
      <point x="356" y="625"/>
      <point x="246" y="625"/>
      <point x="166" y="625" type="curve" smooth="yes"/>
      <point x="115" y="625"/>
      <point x="105" y="629"/>
      <point x="109" y="653" type="curve" smooth="yes"/>
      <point x="110" y="656"/>
      <point x="98" y="658"/>
      <point x="97" y="655" type="curve" smooth="yes"/>
      <point x="57" y="481" type="line" smooth="yes"/>
      <point x="56" y="477"/>
      <point x="67" y="475"/>
      <point x="69" y="478" type="curve" smooth="yes"/>
      <point x="125" y="595"/>
      <point x="198" y="608"/>
      <point x="406" y="608" type="curve" smooth="yes"/>
      <point x="415" y="608"/>
      <point x="415" y="607"/>
      <point x="411" y="600" type="curve" smooth="yes"/>
      <point x="60" y="13" type="line" smooth="yes"/>
    </contour>
    <contour>
      <point x="319" y="625" type="move" name="top"/>
    </contour>
    <contour>
      <point x="303" y="0" type="move" name="bottom"/>
    </contour>
  </outline>
</glyph>
<glyph name="bracketleft" format="1">
  <advance width="274"/>
  <unicode hex="005B"/>
  <outline>
    <contour>
      <point x="67" y="-116"/>
      <point x="68" y="-117"/>
      <point x="76" y="-117" type="curve" smooth="yes"/>
      <point x="123" y="-117"/>
      <point x="206" y="-117"/>
      <point x="236" y="-117" type="curve" smooth="yes"/>
      <point x="240" y="-117"/>
      <point x="240" y="-105"/>
      <point x="236" y="-105" type="curve" smooth="yes"/>
      <point x="175" y="-105"/>
      <point x="165" y="-91"/>
      <point x="165" y="-34" type="curve" smooth="yes"/>
      <point x="165" y="642" type="line" smooth="yes"/>
      <point x="165" y="699"/>
      <point x="175" y="713"/>
      <point x="236" y="713" type="curve" smooth="yes"/>
      <point x="240" y="713"/>
      <point x="240" y="725"/>
      <point x="236" y="725" type="curve" smooth="yes"/>
      <point x="206" y="725"/>
      <point x="123" y="725"/>
      <point x="76" y="725" type="curve" smooth="yes"/>
      <point x="68" y="725"/>
      <point x="67" y="724"/>
      <point x="67" y="715" type="curve" smooth="yes"/>
      <point x="67" y="-106" type="line" smooth="yes"/>
    </contour>
    <contour>
      <point x="222" y="12" type="move" name="ogonek"/>
    </contour>
    <contour>
      <point x="120" y="625" type="move" name="top"/>
    </contour>
  </outline>
</glyph>
<glyph name="backslash" format="1">
  <advance width="351"/>
  <unicode hex="005C"/>
  <outline>
    <contour>
      <point x="280" y="-171"/>
      <point x="326" y="-157"/>
      <point x="325" y="-152" type="curve" smooth="yes"/>
      <point x="73" y="730" type="line" smooth="yes"/>
      <point x="70" y="736"/>
      <point x="25" y="722"/>
      <point x="26" y="716" type="curve" smooth="yes"/>
      <point x="277" y="-165" type="line" smooth="yes"/>
    </contour>
  </outline>
</glyph>
<glyph name="asciicircum" format="1">
  <advance width="335"/>
  <unicode hex="005E"/>
  <outline>
    <contour>
      <point x="177" y="538" type="line" smooth="yes"/>
      <point x="175" y="544"/>
      <point x="159" y="544"/>
      <point x="158" y="538" type="curve" smooth="yes"/>
      <point x="50" y="325" type="line" smooth="yes"/>
      <point x="49" y="322"/>
      <point x="55" y="318"/>
      <point x="58" y="321" type="curve" smooth="yes"/>
      <point x="168" y="435" type="line"/>
      <point x="277" y="321" type="line" smooth="yes"/>
      <point x="279" y="318"/>
      <point x="286" y="322"/>
      <point x="285" y="325" type="curve" smooth="yes"/>
    </contour>
  </outline>
</glyph>
<glyph name="underscore" format="1">
  <advance width="398"/>
  <unicode hex="005F"/>
  <outline>
    <contour>
      <point x="364" y="-81" type="line" smooth="yes"/>
      <point x="370" y="-81"/>
      <point x="370" y="-32"/>
      <point x="364" y="-32" type="curve" smooth="yes"/>
      <point x="33" y="-32" type="line" smooth="yes"/>
      <point x="28" y="-32"/>
      <point x="28" y="-81"/>
      <point x="34" y="-81" type="curve" smooth="yes"/>
    </contour>
  </outline>
</glyph>
<glyph name="grave" format="1">
  <advance width="213"/>
  <unicode hex="0060"/>
  <outline>
    <contour>
      <point x="144" y="474" type="line" smooth="yes"/>
      <point x="145" y="470"/>
      <point x="154" y="473"/>
      <point x="154" y="476" type="curve" smooth="yes"/>
      <point x="122" y="716" type="line" smooth="yes"/>
      <point x="120" y="724"/>
      <point x="19" y="737"/>
      <point x="23" y="727" type="curve" smooth="yes"/>
    </contour>
    <contour>
      <point x="138" y="386" type="move" name="_top"/>
    </contour>
  </outline>
</glyph>
<glyph name="a" format="1">
  <advance width="421"/>
  <unicode hex="0061"/>
  <outline>
    <contour>
      <point x="422" y="43" type="line" smooth="yes"/>
      <point x="428" y="46"/>
      <point x="423" y="56"/>
      <point x="418" y="54" type="curve" smooth="yes"/>
      <point x="407" y="49"/>
      <point x="398" y="47"/>
      <point x="389" y="47" type="curve" smooth="yes"/>
      <point x="364" y="47"/>
      <point x="349" y="69"/>
      <point x="349" y="108" type="curve" smooth="yes"/>
      <point x="349" y="285" type="line" smooth="yes"/>
      <point x="349" y="361"/>
      <point x="302" y="395"/>
      <point x="243" y="395" type="curve" smooth="yes"/>
      <point x="172" y="395"/>
      <point x="43" y="338"/>
      <point x="43" y="280" type="curve" smooth="yes"/>
      <point x="43" y="255"/>
      <point x="56" y="239"/>
      <point x="90" y="239" type="curve" smooth="yes"/>
      <point x="125" y="239"/>
      <point x="145" y="256"/>
      <point x="149" y="295" type="curve" smooth="yes"/>
      <point x="153" y="352"/>
      <point x="173" y="372"/>
      <point x="204" y="372" type="curve" smooth="yes"/>
      <point x="241" y="372"/>
      <point x="255" y="333"/>
      <point x="255" y="255" type="curve" smooth="yes"/>
      <point x="255" y="85" type="line" smooth="yes"/>
      <point x="255" y="25"/>
      <point x="285" y="-8"/>
      <point x="309" y="-8" type="curve" smooth="yes"/>
      <point x="313" y="-8"/>
      <point x="317" y="-7"/>
      <point x="319" y="-6" type="curve" smooth="yes"/>
    </contour>
    <contour>
      <point x="139" y="-7"/>
      <point x="180" y="6"/>
      <point x="213" y="23" type="curve" smooth="yes"/>
      <point x="299" y="70" type="line"/>
      <point x="298" y="87" type="line"/>
      <point x="243" y="57" type="line" smooth="yes"/>
      <point x="222" y="47"/>
      <point x="202" y="43"/>
      <point x="192" y="43" type="curve" smooth="yes"/>
      <point x="168" y="43"/>
      <point x="150" y="60"/>
      <point x="150" y="88" type="curve" smooth="yes"/>
      <point x="150" y="111"/>
      <point x="164" y="126"/>
      <point x="200" y="139" type="curve" smooth="yes"/>
      <point x="269" y="164" type="line"/>
      <point x="265" y="179" type="line"/>
      <point x="153" y="143" type="line" smooth="yes"/>
      <point x="75" y="117"/>
      <point x="40" y="105"/>
      <point x="40" y="57" type="curve" smooth="yes"/>
      <point x="40" y="15"/>
      <point x="67" y="-7"/>
      <point x="109" y="-7" type="curve" smooth="yes"/>
    </contour>
    <contour>
      <point x="378" y="12" type="move" name="ogonek"/>
    </contour>
    <contour>
      <point x="211" y="0" type="move" name="bottom"/>
    </contour>
    <contour>
      <point x="214" y="386" type="move" name="top"/>
    </contour>
  </outline>
</glyph>
<glyph name="b" format="1">
  <advance width="516"/>
  <unicode hex="0062"/>
  <outline>
    <contour>
      <point x="377" y="-13"/>
      <point x="484" y="63"/>
      <point x="484" y="213" type="curve" smooth="yes"/>
      <point x="484" y="338"/>
      <point x="405" y="399"/>
      <point x="318" y="399" type="curve" smooth="yes"/>
      <point x="242" y="399"/>
      <point x="193" y="352"/>
      <point x="152" y="310" type="curve"/>
      <point x="161" y="302" type="line"/>
      <point x="192" y="326"/>
      <point x="230" y="346"/>
      <point x="271" y="346" type="curve" smooth="yes"/>
      <point x="337" y="346"/>
      <point x="381" y="294"/>
      <point x="381" y="174" type="curve" smooth="yes"/>
      <point x="381" y="69"/>
      <point x="350" y="7"/>
      <point x="292" y="7" type="curve" smooth="yes"/>
      <point x="247" y="7"/>
      <point x="174" y="46"/>
      <point x="174" y="165" type="curve"/>
      <point x="110" y="48" type="line"/>
      <point x="154" y="8"/>
      <point x="211" y="-13"/>
      <point x="268" y="-13" type="curve" smooth="yes"/>
    </contour>
    <contour>
      <point x="174" y="56" type="line" smooth="yes"/>
      <point x="174" y="712" type="line" smooth="yes"/>
      <point x="174" y="717"/>
      <point x="165" y="725"/>
      <point x="158" y="725" type="curve" smooth="yes"/>
      <point x="157" y="725"/>
      <point x="156" y="725"/>
      <point x="153" y="724" type="curve" smooth="yes"/>
      <point x="7" y="655" type="line" smooth="yes"/>
      <point x="4" y="654"/>
      <point x="9" y="641"/>
      <point x="14" y="643" type="curve" smooth="yes"/>
      <point x="29" y="650"/>
      <point x="42" y="654"/>
      <point x="51" y="654" type="curve" smooth="yes"/>
      <point x="74" y="654"/>
      <point x="81" y="634"/>
      <point x="81" y="589" type="curve" smooth="yes"/>
      <point x="81" y="103" type="line" smooth="yes"/>
      <point x="81" y="50"/>
      <point x="63" y="20"/>
      <point x="32" y="2" type="curve" smooth="yes"/>
      <point x="27" y="0"/>
      <point x="30" y="-9"/>
      <point x="36" y="-7" type="curve" smooth="yes"/>
    </contour>
    <contour>
      <point x="258" y="386" type="move" name="top"/>
    </contour>
    <contour>
      <point x="258" y="0" type="move" name="bottom"/>
    </contour>
  </outline>
</glyph>
<glyph name="c" format="1">
  <advance width="425"/>
  <unicode hex="0063"/>
  <outline>
    <contour>
      <point x="301" y="-12"/>
      <point x="346" y="12"/>
      <point x="393" y="55" type="curve" smooth="yes"/>
      <point x="396" y="58"/>
      <point x="389" y="65"/>
      <point x="386" y="63" type="curve" smooth="yes"/>
      <point x="352" y="47"/>
      <point x="330" y="37"/>
      <point x="290" y="37" type="curve" smooth="yes"/>
      <point x="175" y="37"/>
      <point x="135" y="118"/>
      <point x="135" y="219" type="curve" smooth="yes"/>
      <point x="135" y="311"/>
      <point x="171" y="374"/>
      <point x="229" y="374" type="curve" smooth="yes"/>
      <point x="261" y="374"/>
      <point x="267" y="357"/>
      <point x="277" y="325" type="curve" smooth="yes"/>
      <point x="288" y="292"/>
      <point x="305" y="274"/>
      <point x="338" y="274" type="curve" smooth="yes"/>
      <point x="374" y="274"/>
      <point x="393" y="297"/>
      <point x="393" y="320" type="curve" smooth="yes"/>
      <point x="393" y="370"/>
      <point x="326" y="395"/>
      <point x="268" y="395" type="curve" smooth="yes"/>
      <point x="158" y="395"/>
      <point x="32" y="319"/>
      <point x="32" y="186" type="curve" smooth="yes"/>
      <point x="32" y="91"/>
      <point x="95" y="-12"/>
      <point x="234" y="-12" type="curve" smooth="yes"/>
    </contour>
    <contour>
      <point x="248" y="386" type="move" name="top"/>
    </contour>
    <contour>
      <point x="228" y="0" type="move" name="bottom"/>
    </contour>
  </outline>
</glyph>
<glyph name="d" format="1">
  <advance width="510"/>
  <unicode hex="0064"/>
  <outline>
    <contour>
      <point x="277" y="-13"/>
      <point x="339" y="53"/>
      <point x="382" y="101" type="curve"/>
      <point x="372" y="110" type="line"/>
      <point x="335" y="69"/>
      <point x="297" y="35"/>
      <point x="244" y="35" type="curve" smooth="yes"/>
      <point x="181" y="35"/>
      <point x="135" y="99"/>
      <point x="135" y="214" type="curve" smooth="yes"/>
      <point x="135" y="331"/>
      <point x="178" y="373"/>
      <point x="246" y="373" type="curve" smooth="yes"/>
      <point x="299" y="373"/>
      <point x="333" y="347"/>
      <point x="361" y="287" type="curve"/>
      <point x="384" y="368" type="line"/>
      <point x="350" y="385"/>
      <point x="309" y="399"/>
      <point x="261" y="399" type="curve" smooth="yes"/>
      <point x="165" y="399"/>
      <point x="32" y="344"/>
      <point x="32" y="182" type="curve" smooth="yes"/>
      <point x="32" y="58"/>
      <point x="103" y="-13"/>
      <point x="189" y="-13" type="curve" smooth="yes"/>
    </contour>
    <contour>
      <point x="433" y="717"/>
      <point x="423" y="725"/>
      <point x="416" y="725" type="curve" smooth="yes"/>
      <point x="415" y="725"/>
      <point x="414" y="725"/>
      <point x="412" y="724" type="curve" smooth="yes"/>
      <point x="265" y="655" type="line" smooth="yes"/>
      <point x="262" y="654"/>
      <point x="268" y="641"/>
      <point x="273" y="643" type="curve" smooth="yes"/>
      <point x="288" y="650"/>
      <point x="301" y="654"/>
      <point x="310" y="654" type="curve" smooth="yes"/>
      <point x="332" y="654"/>
      <point x="339" y="634"/>
      <point x="339" y="589" type="curve" smooth="yes"/>
      <point x="339" y="82" type="line" smooth="yes"/>
      <point x="339" y="21"/>
      <point x="352" y="-14"/>
      <point x="366" y="-14" type="curve" smooth="yes"/>
      <point x="367" y="-14"/>
      <point x="368" y="-14"/>
      <point x="371" y="-13" type="curve" smooth="yes"/>
      <point x="509" y="54" type="line" smooth="yes"/>
      <point x="512" y="56"/>
      <point x="506" y="68"/>
      <point x="502" y="65" type="curve" smooth="yes"/>
      <point x="484" y="58"/>
      <point x="470" y="54"/>
      <point x="461" y="54" type="curve" smooth="yes"/>
      <point x="441" y="54"/>
      <point x="433" y="70"/>
      <point x="433" y="116" type="curve" smooth="yes"/>
      <point x="433" y="712" type="line" smooth="yes"/>
    </contour>
    <contour>
      <point x="255" y="0" type="move" name="bottom"/>
    </contour>
    <contour>
      <point x="255" y="386" type="move" name="top"/>
    </contour>
    <contour>
      <point x="484" y="386" type="move" name="topright"/>
    </contour>
    <contour>
      <point x="253" y="193" type="move" name="center"/>
    </contour>
  </outline>
</glyph>
<glyph name="e" format="1">
  <advance width="418"/>
  <unicode hex="0065"/>
  <outline>
    <contour>
      <point x="294" y="-12"/>
      <point x="343" y="7"/>
      <point x="393" y="56" type="curve" smooth="yes"/>
      <point x="396" y="60"/>
      <point x="389" y="68"/>
      <point x="386" y="65" type="curve" smooth="yes"/>
      <point x="356" y="46"/>
      <point x="317" y="37"/>
      <point x="285" y="37" type="curve" smooth="yes"/>
      <point x="189" y="37"/>
      <point x="133" y="110"/>
      <point x="133" y="223" type="curve" smooth="yes"/>
      <point x="133" y="315"/>
      <point x="170" y="375"/>
      <point x="223" y="375" type="curve" smooth="yes"/>
      <point x="268" y="375"/>
      <point x="283" y="329"/>
      <point x="281" y="267" type="curve"/>
      <point x="377" y="267" type="line" smooth="yes"/>
      <point x="386" y="267"/>
      <point x="388" y="281"/>
      <point x="388" y="296" type="curve" smooth="yes"/>
      <point x="388" y="357"/>
      <point x="343" y="395"/>
      <point x="260" y="395" type="curve" smooth="yes"/>
      <point x="130" y="395"/>
      <point x="32" y="299"/>
      <point x="32" y="181" type="curve" smooth="yes"/>
      <point x="32" y="80"/>
      <point x="105" y="-12"/>
      <point x="235" y="-12" type="curve" smooth="yes"/>
    </contour>
    <contour>
      <point x="316" y="267" type="line"/>
      <point x="316" y="289" type="line"/>
      <point x="97" y="284" type="line"/>
      <point x="98" y="265" type="line"/>
    </contour>
    <contour>
      <point x="380" y="12" type="move" name="ogonek"/>
    </contour>
    <contour>
      <point x="239" y="0" type="move" name="bottom"/>
    </contour>
    <contour>
      <point x="235" y="386" type="move" name="top"/>
    </contour>
  </outline>
</glyph>
<glyph name="f" format="1">
  <advance width="305"/>
  <unicode hex="0066"/>
  <outline>
    <contour>
      <point x="56" y="0"/>
      <point x="94" y="2"/>
      <point x="133" y="2" type="curve" smooth="yes"/>
      <point x="179" y="2"/>
      <point x="223" y="0"/>
      <point x="270" y="0" type="curve" smooth="yes"/>
      <point x="275" y="0"/>
      <point x="275" y="12"/>
      <point x="270" y="12" type="curve" smooth="yes"/>
      <point x="192" y="12"/>
      <point x="181" y="23"/>
      <point x="181" y="81" type="curve" smooth="yes"/>
      <point x="181" y="439" type="line" smooth="yes"/>
      <point x="181" y="628"/>
      <point x="222" y="703"/>
      <point x="280" y="703" type="curve" smooth="yes"/>
      <point x="313" y="703"/>
      <point x="322" y="682"/>
      <point x="331" y="661" type="curve" smooth="yes"/>
      <point x="340" y="640"/>
      <point x="350" y="618"/>
      <point x="386" y="618" type="curve" smooth="yes"/>
      <point x="411" y="618"/>
      <point x="437" y="635"/>
      <point x="437" y="667" type="curve" smooth="yes"/>
      <point x="437" y="705"/>
      <point x="393" y="726"/>
      <point x="319" y="726" type="curve" smooth="yes"/>
      <point x="168" y="726"/>
      <point x="92" y="639"/>
      <point x="85" y="418" type="curve" smooth="yes"/>
      <point x="84" y="384"/>
      <point x="69" y="374"/>
      <point x="23" y="374" type="curve" smooth="yes"/>
      <point x="19" y="374"/>
      <point x="19" y="356"/>
      <point x="23" y="356" type="curve" smooth="yes"/>
      <point x="71" y="356"/>
      <point x="87" y="349"/>
      <point x="87" y="306" type="curve" smooth="yes"/>
      <point x="87" y="81" type="line" smooth="yes"/>
      <point x="87" y="23"/>
      <point x="77" y="12"/>
      <point x="27" y="12" type="curve" smooth="yes"/>
      <point x="22" y="12"/>
      <point x="22" y="0"/>
      <point x="27" y="0" type="curve" smooth="yes"/>
    </contour>
    <contour>
      <point x="292" y="333"/>
      <point x="298" y="350"/>
      <point x="298" y="363" type="curve" smooth="yes"/>
      <point x="298" y="375"/>
      <point x="295" y="387"/>
      <point x="291" y="387" type="curve" smooth="yes"/>
      <point x="236" y="381"/>
      <point x="189" y="377"/>
      <point x="138" y="377" type="curve"/>
      <point x="138" y="351" type="line"/>
      <point x="191" y="351"/>
      <point x="236" y="347"/>
      <point x="288" y="335" type="curve" smooth="yes"/>
    </contour>
    <contour>
      <point x="153" y="386" type="move" name="top"/>
    </contour>
    <contour>
      <point x="153" y="0" type="move" name="bottom"/>
    </contour>
  </outline>
</glyph>
<glyph name="g" format="1">
  <advance width="451"/>
  <unicode hex="0067"/>
  <outline>
    <contour>
      <point x="320" y="-282"/>
      <point x="436" y="-187"/>
      <point x="436" y="-78" type="curve" smooth="yes"/>
      <point x="436" y="16"/>
      <point x="340" y="30"/>
      <point x="256" y="44" type="curve" smooth="yes"/>
      <point x="191" y="55"/>
      <point x="131" y="64"/>
      <point x="131" y="110" type="curve" smooth="yes"/>
      <point x="131" y="133"/>
      <point x="142" y="147"/>
      <point x="167" y="161" type="curve"/>
      <point x="158" y="167" type="line"/>
      <point x="83" y="133"/>
      <point x="55" y="88"/>
      <point x="55" y="54" type="curve" smooth="yes"/>
      <point x="55" y="-12"/>
      <point x="124" y="-23"/>
      <point x="195" y="-34" type="curve" smooth="yes"/>
      <point x="273" y="-46"/>
      <point x="352" y="-57"/>
      <point x="352" y="-138" type="curve" smooth="yes"/>
      <point x="352" y="-207"/>
      <point x="304" y="-250"/>
      <point x="235" y="-250" type="curve" smooth="yes"/>
      <point x="166" y="-250"/>
      <point x="113" y="-206"/>
      <point x="113" y="-119" type="curve" smooth="yes"/>
      <point x="113" y="-60"/>
      <point x="131" y="-34"/>
      <point x="152" y="-13" type="curve"/>
      <point x="142" y="-2" type="line"/>
      <point x="34" y="-73"/>
      <point x="14" y="-125"/>
      <point x="14" y="-167" type="curve" smooth="yes"/>
      <point x="14" y="-236"/>
      <point x="84" y="-282"/>
      <point x="182" y="-282" type="curve" smooth="yes"/>
    </contour>
    <contour>
      <point x="283" y="145"/>
      <point x="375" y="191"/>
      <point x="375" y="270" type="curve" smooth="yes"/>
      <point x="375" y="339"/>
      <point x="309" y="393"/>
      <point x="215" y="393" type="curve" smooth="yes"/>
      <point x="140" y="393"/>
      <point x="43" y="352"/>
      <point x="43" y="268" type="curve" smooth="yes"/>
      <point x="43" y="207"/>
      <point x="99" y="145"/>
      <point x="202" y="145" type="curve" smooth="yes"/>
    </contour>
    <contour>
      <point x="174" y="163"/>
      <point x="140" y="229"/>
      <point x="140" y="295" type="curve" smooth="yes"/>
      <point x="140" y="345"/>
      <point x="153" y="374"/>
      <point x="182" y="374" type="curve" smooth="yes"/>
      <point x="233" y="374"/>
      <point x="277" y="319"/>
      <point x="277" y="246" type="curve" smooth="yes"/>
      <point x="277" y="184"/>
      <point x="251" y="163"/>
      <point x="229" y="163" type="curve" smooth="yes"/>
    </contour>
    <contour>
      <point x="309" y="332" type="line"/>
      <point x="326" y="338"/>
      <point x="342" y="340"/>
      <point x="357" y="340" type="curve" smooth="yes"/>
      <point x="381" y="340"/>
      <point x="407" y="333"/>
      <point x="432" y="323" type="curve" smooth="yes"/>
      <point x="436" y="319"/>
      <point x="443" y="349"/>
      <point x="443" y="368" type="curve" smooth="yes"/>
      <point x="443" y="384"/>
      <point x="441" y="396"/>
      <point x="435" y="396" type="curve" smooth="yes"/>
      <point x="386" y="396"/>
      <point x="347" y="378"/>
      <point x="305" y="345" type="curve"/>
      <point x="303" y="313" type="line"/>
    </contour>
    <contour>
      <point x="223" y="386" type="move" name="top"/>
    </contour>
    <contour>
      <point x="226" y="0" type="move" name="bottom"/>
    </contour>
  </outline>
</glyph>
<glyph name="i" format="1">
  <advance width="263"/>
  <unicode hex="0069"/>
  <outline>
    <component base="idotless"/>
    <component base="dotaccent" xOffset="61"/>
    <contour>
      <point x="132" y="0" type="move" name="bottom"/>
    </contour>
  </outline>
</glyph>
<glyph name="k" format="1">
  <advance width="491"/>
  <unicode hex="006B"/>
  <outline>
    <contour>
      <point x="48" y="0"/>
      <point x="83" y="2"/>
      <point x="122" y="2" type="curve" smooth="yes"/>
      <point x="160" y="2"/>
      <point x="195" y="0"/>
      <point x="222" y="0" type="curve" smooth="yes"/>
      <point x="227" y="0"/>
      <point x="227" y="12"/>
      <point x="222" y="12" type="curve" smooth="yes"/>
      <point x="181" y="12"/>
      <point x="168" y="28"/>
      <point x="168" y="81" type="curve" smooth="yes"/>
      <point x="168" y="712" type="line" smooth="yes"/>
      <point x="168" y="717"/>
      <point x="159" y="725"/>
      <point x="152" y="725" type="curve" smooth="yes"/>
      <point x="151" y="725"/>
      <point x="150" y="725"/>
      <point x="147" y="724" type="curve" smooth="yes"/>
      <point x="1" y="655" type="line" smooth="yes"/>
      <point x="-2" y="654"/>
      <point x="4" y="641"/>
      <point x="8" y="643" type="curve" smooth="yes"/>
      <point x="23" y="650"/>
      <point x="36" y="654"/>
      <point x="46" y="654" type="curve" smooth="yes"/>
      <point x="68" y="654"/>
      <point x="75" y="634"/>
      <point x="75" y="589" type="curve" smooth="yes"/>
      <point x="75" y="81" type="line" smooth="yes"/>
      <point x="75" y="28"/>
      <point x="62" y="12"/>
      <point x="21" y="12" type="curve" smooth="yes"/>
      <point x="18" y="12"/>
      <point x="18" y="0"/>
      <point x="21" y="0" type="curve" smooth="yes"/>
    </contour>
    <contour>
      <point x="305" y="0"/>
      <point x="343" y="2"/>
      <point x="396" y="2" type="curve" smooth="yes"/>
      <point x="435" y="2"/>
      <point x="470" y="0"/>
      <point x="497" y="0" type="curve" smooth="yes"/>
      <point x="501" y="0"/>
      <point x="501" y="12"/>
      <point x="497" y="12" type="curve" smooth="yes"/>
      <point x="461" y="12"/>
      <point x="427" y="32"/>
      <point x="388" y="81" type="curve" smooth="yes"/>
      <point x="248" y="260" type="line"/>
      <point x="180" y="208" type="line"/>
      <point x="301" y="53" type="line" smooth="yes"/>
      <point x="318" y="30"/>
      <point x="309" y="12"/>
      <point x="273" y="12" type="curve" smooth="yes"/>
      <point x="269" y="12"/>
      <point x="269" y="0"/>
      <point x="273" y="0" type="curve" smooth="yes"/>
    </contour>
    <contour>
      <point x="287" y="290" type="line" smooth="yes"/>
      <point x="350" y="349"/>
      <point x="434" y="374"/>
      <point x="485" y="374" type="curve" smooth="yes"/>
      <point x="489" y="374"/>
      <point x="489" y="386"/>
      <point x="485" y="386" type="curve" smooth="yes"/>
      <point x="455" y="386"/>
      <point x="428" y="384"/>
      <point x="373" y="384" type="curve" smooth="yes"/>
      <point x="313" y="384"/>
      <point x="284" y="386"/>
      <point x="249" y="386" type="curve" smooth="yes"/>
      <point x="246" y="386"/>
      <point x="246" y="374"/>
      <point x="249" y="374" type="curve" smooth="yes"/>
      <point x="296" y="374"/>
      <point x="298" y="330"/>
      <point x="261" y="295" type="curve" smooth="yes"/>
      <point x="126" y="165" type="line"/>
      <point x="132" y="149" type="line"/>
    </contour>
    <contour>
      <point x="106" y="683" type="move" name="top"/>
    </contour>
    <contour>
      <point x="251" y="0" type="move" name="bottom"/>
    </contour>
  </outline>
</glyph>
<glyph name="l" format="1">
  <advance width="268"/>
  <unicode hex="006C"/>
  <outline>
    <contour>
      <point x="62" y="0"/>
      <point x="97" y="2"/>
      <point x="136" y="2" type="curve" smooth="yes"/>
      <point x="175" y="2"/>
      <point x="211" y="0"/>
      <point x="237" y="0" type="curve" smooth="yes"/>
      <point x="242" y="0"/>
      <point x="242" y="12"/>
      <point x="237" y="12" type="curve" smooth="yes"/>
      <point x="196" y="12"/>
      <point x="184" y="28"/>
      <point x="184" y="81" type="curve" smooth="yes"/>
      <point x="184" y="712" type="line" smooth="yes"/>
      <point x="184" y="717"/>
      <point x="174" y="725"/>
      <point x="167" y="725" type="curve" smooth="yes"/>
      <point x="166" y="725"/>
      <point x="165" y="725"/>
      <point x="163" y="724" type="curve" smooth="yes"/>
      <point x="16" y="655" type="line" smooth="yes"/>
      <point x="13" y="654"/>
      <point x="19" y="641"/>
      <point x="23" y="643" type="curve" smooth="yes"/>
      <point x="39" y="650"/>
      <point x="51" y="654"/>
      <point x="61" y="654" type="curve" smooth="yes"/>
      <point x="83" y="654"/>
      <point x="90" y="634"/>
      <point x="90" y="589" type="curve" smooth="yes"/>
      <point x="89" y="81" type="line" smooth="yes"/>
      <point x="89" y="28"/>
      <point x="76" y="12"/>
      <point x="35" y="12" type="curve" smooth="yes"/>
      <point x="32" y="12"/>
      <point x="32" y="0"/>
      <point x="35" y="0" type="curve" smooth="yes"/>
    </contour>
    <contour>
      <point x="137" y="0" type="move" name="bottom"/>
    </contour>
    <contour>
      <point x="131" y="674" type="move" name="top"/>
    </contour>
    <contour>
      <point x="233" y="386" type="move" name="topright"/>
    </contour>
    <contour>
      <point x="135" y="193" type="move" name="center"/>
    </contour>
  </outline>
</glyph>
<glyph name="m" format="1">
  <advance width="777"/>
  <unicode hex="006D"/>
  <outline>
    <contour>
      <point x="585" y="0"/>
      <point x="620" y="2"/>
      <point x="658" y="2" type="curve" smooth="yes"/>
      <point x="697" y="2"/>
      <point x="732" y="0"/>
      <point x="759" y="0" type="curve" smooth="yes"/>
      <point x="764" y="0"/>
      <point x="764" y="12"/>
      <point x="759" y="12" type="curve" smooth="yes"/>
      <point x="718" y="12"/>
      <point x="705" y="28"/>
      <point x="705" y="81" type="curve" smooth="yes"/>
      <point x="705" y="273" type="line" smooth="yes"/>
      <point x="705" y="358"/>
      <point x="664" y="398"/>
      <point x="594" y="398" type="curve" smooth="yes"/>
      <point x="527" y="398"/>
      <point x="470" y="353"/>
      <point x="425" y="287" type="curve"/>
      <point x="430" y="275" type="line"/>
      <point x="454" y="309"/>
      <point x="496" y="331"/>
      <point x="537" y="331" type="curve" smooth="yes"/>
      <point x="588" y="331"/>
      <point x="612" y="297"/>
      <point x="612" y="225" type="curve" smooth="yes"/>
      <point x="612" y="81" type="line" smooth="yes"/>
      <point x="612" y="28"/>
      <point x="599" y="12"/>
      <point x="558" y="12" type="curve" smooth="yes"/>
      <point x="554" y="12"/>
      <point x="554" y="0"/>
      <point x="558" y="0" type="curve" smooth="yes"/>
    </contour>
    <contour>
      <point x="323" y="0"/>
      <point x="358" y="2"/>
      <point x="396" y="2" type="curve" smooth="yes"/>
      <point x="435" y="2"/>
      <point x="470" y="0"/>
      <point x="497" y="0" type="curve" smooth="yes"/>
      <point x="502" y="0"/>
      <point x="502" y="12"/>
      <point x="497" y="12" type="curve" smooth="yes"/>
      <point x="456" y="12"/>
      <point x="443" y="28"/>
      <point x="443" y="81" type="curve" smooth="yes"/>
      <point x="443" y="284" type="line" smooth="yes"/>
      <point x="443" y="358"/>
      <point x="402" y="398"/>
      <point x="332" y="398" type="curve" smooth="yes"/>
      <point x="265" y="398"/>
      <point x="208" y="353"/>
      <point x="163" y="287" type="curve"/>
      <point x="168" y="275" type="line"/>
      <point x="192" y="309"/>
      <point x="234" y="331"/>
      <point x="275" y="331" type="curve" smooth="yes"/>
      <point x="326" y="331"/>
      <point x="350" y="297"/>
      <point x="350" y="225" type="curve" smooth="yes"/>
      <point x="350" y="81" type="line" smooth="yes"/>
      <point x="350" y="28"/>
      <point x="337" y="12"/>
      <point x="296" y="12" type="curve" smooth="yes"/>
      <point x="292" y="12"/>
      <point x="292" y="0"/>
      <point x="296" y="0" type="curve" smooth="yes"/>
    </contour>
    <contour>
      <point x="65" y="0"/>
      <point x="101" y="2"/>
      <point x="139" y="2" type="curve" smooth="yes"/>
      <point x="178" y="2"/>
      <point x="213" y="0"/>
      <point x="240" y="0" type="curve" smooth="yes"/>
      <point x="244" y="0"/>
      <point x="244" y="12"/>
      <point x="240" y="12" type="curve" smooth="yes"/>
      <point x="199" y="12"/>
      <point x="186" y="28"/>
      <point x="186" y="81" type="curve" smooth="yes"/>
      <point x="186" y="303" type="line" smooth="yes"/>
      <point x="186" y="363"/>
      <point x="168" y="396"/>
      <point x="153" y="396" type="curve" smooth="yes"/>
      <point x="151" y="396"/>
      <point x="149" y="395"/>
      <point x="146" y="394" type="curve" smooth="yes"/>
      <point x="7" y="326" type="line" smooth="yes"/>
      <point x="4" y="325"/>
      <point x="8" y="312"/>
      <point x="13" y="315" type="curve" smooth="yes"/>
      <point x="33" y="324"/>
      <point x="49" y="329"/>
      <point x="61" y="329" type="curve" smooth="yes"/>
      <point x="83" y="329"/>
      <point x="92" y="310"/>
      <point x="92" y="269" type="curve" smooth="yes"/>
      <point x="92" y="81" type="line" smooth="yes"/>
      <point x="92" y="28"/>
      <point x="80" y="12"/>
      <point x="39" y="12" type="curve" smooth="yes"/>
      <point x="35" y="12"/>
      <point x="35" y="0"/>
      <point x="39" y="0" type="curve" smooth="yes"/>
    </contour>
    <contour>
      <point x="388" y="386" type="move" name="top"/>
    </contour>
    <contour>
      <point x="392" y="0" type="move" name="bottom"/>
    </contour>
  </outline>
</glyph>
<glyph name="n" format="1">
  <advance width="450"/>
  <unicode hex="006E"/>
  <outline>
    <contour>
      <point x="286" y="0"/>
      <point x="316" y="2"/>
      <point x="349" y="2" type="curve" smooth="yes"/>
      <point x="382" y="2"/>
      <point x="412" y="0"/>
      <point x="435" y="0" type="curve" smooth="yes"/>
      <point x="439" y="0"/>
      <point x="439" y="10"/>
      <point x="435" y="10" type="curve" smooth="yes"/>
      <point x="400" y="10"/>
      <point x="389" y="24"/>
      <point x="389" y="69" type="curve" smooth="yes"/>
      <point x="389" y="233" type="line" smooth="yes"/>
      <point x="389" y="296"/>
      <point x="352" y="340"/>
      <point x="289" y="340" type="curve" smooth="yes"/>
      <point x="230" y="340"/>
      <point x="179" y="302"/>
      <point x="139" y="245" type="curve"/>
      <point x="144" y="235" type="line"/>
      <point x="165" y="264"/>
      <point x="205" y="283"/>
      <point x="239" y="283" type="curve" smooth="yes"/>
      <point x="287" y="283"/>
      <point x="309" y="254"/>
      <point x="309" y="192" type="curve" smooth="yes"/>
      <point x="309" y="69" type="line" smooth="yes"/>
      <point x="309" y="24"/>
      <point x="298" y="10"/>
      <point x="263" y="10" type="curve" smooth="yes"/>
      <point x="260" y="10"/>
      <point x="260" y="0"/>
      <point x="263" y="0" type="curve" smooth="yes"/>
    </contour>
    <contour>
      <point x="56" y="0"/>
      <point x="86" y="2"/>
      <point x="119" y="2" type="curve" smooth="yes"/>
      <point x="152" y="2"/>
      <point x="182" y="0"/>
      <point x="205" y="0" type="curve" smooth="yes"/>
      <point x="209" y="0"/>
      <point x="209" y="10"/>
      <point x="205" y="10" type="curve" smooth="yes"/>
      <point x="170" y="10"/>
      <point x="159" y="24"/>
      <point x="159" y="69" type="curve" smooth="yes"/>
      <point x="159" y="259" type="line" smooth="yes"/>
      <point x="159" y="310"/>
      <point x="144" y="339"/>
      <point x="131" y="339" type="curve" smooth="yes"/>
      <point x="129" y="339"/>
      <point x="127" y="338"/>
      <point x="125" y="337" type="curve" smooth="yes"/>
      <point x="6" y="279" type="line" smooth="yes"/>
      <point x="3" y="278"/>
      <point x="7" y="267"/>
      <point x="11" y="269" type="curve" smooth="yes"/>
      <point x="28" y="277"/>
      <point x="42" y="281"/>
      <point x="52" y="281" type="curve" smooth="yes"/>
      <point x="71" y="281"/>
      <point x="79" y="265"/>
      <point x="79" y="230" type="curve" smooth="yes"/>
      <point x="79" y="69" type="line" smooth="yes"/>
      <point x="79" y="24"/>
      <point x="68" y="10"/>
      <point x="33" y="10" type="curve" smooth="yes"/>
      <point x="30" y="10"/>
      <point x="30" y="0"/>
      <point x="33" y="0" type="curve" smooth="yes"/>
    </contour>
    <contour>
      <point x="237" y="330" type="move" name="top"/>
    </contour>
    <contour>
      <point x="225" y="0" type="move" name="bottom"/>
    </contour>
  </outline>
</glyph>
<glyph name="o" format="1">
  <advance width="489"/>
  <unicode hex="006F"/>
  <outline>
    <contour>
      <point x="354" y="-13"/>
      <point x="457" y="69"/>
      <point x="457" y="192" type="curve" smooth="yes"/>
      <point x="457" y="297"/>
      <point x="382" y="399"/>
      <point x="254" y="399" type="curve" smooth="yes"/>
      <point x="152" y="399"/>
      <point x="32" y="336"/>
      <point x="32" y="198" type="curve" smooth="yes"/>
      <point x="32" y="85"/>
      <point x="110" y="-13"/>
      <point x="237" y="-13" type="curve" smooth="yes"/>
    </contour>
    <contour>
      <point x="196" y="8"/>
      <point x="140" y="98"/>
      <point x="140" y="235" type="curve" smooth="yes"/>
      <point x="140" y="332"/>
      <point x="168" y="378"/>
      <point x="220" y="378" type="curve" smooth="yes"/>
      <point x="284" y="378"/>
      <point x="347" y="303"/>
      <point x="347" y="157" type="curve" smooth="yes"/>
      <point x="347" y="62"/>
      <point x="320" y="8"/>
      <point x="267" y="8" type="curve" smooth="yes"/>
    </contour>
    <contour>
      <point x="256" y="0" type="move" name="bottom"/>
    </contour>
    <contour>
      <point x="440" y="12" type="move" name="ogonek"/>
    </contour>
    <contour>
      <point x="246" y="386" type="move" name="top"/>
    </contour>
    <contour>
      <point x="344" y="386" type="move" name="topright"/>
    </contour>
    <contour>
      <point x="244" y="193" type="move" name="center"/>
    </contour>
  </outline>
</glyph>
<glyph name="p" format="1">
  <advance width="513"/>
  <unicode hex="0070"/>
  <outline>
    <contour>
      <point x="53" y="-275"/>
      <point x="89" y="-273"/>
      <point x="127" y="-273" type="curve" smooth="yes"/>
      <point x="179" y="-273"/>
      <point x="226" y="-275"/>
      <point x="264" y="-275" type="curve" smooth="yes"/>
      <point x="268" y="-275"/>
      <point x="268" y="-263"/>
      <point x="264" y="-263" type="curve" smooth="yes"/>
      <point x="188" y="-263"/>
      <point x="175" y="-251"/>
      <point x="175" y="-194" type="curve" smooth="yes"/>
      <point x="175" y="303" type="line" smooth="yes"/>
      <point x="175" y="363"/>
      <point x="158" y="396"/>
      <point x="143" y="396" type="curve" smooth="yes"/>
      <point x="142" y="396"/>
      <point x="140" y="396"/>
      <point x="138" y="395" type="curve" smooth="yes"/>
      <point x="-4" y="326" type="line" smooth="yes"/>
      <point x="-7" y="325"/>
      <point x="-1" y="312"/>
      <point x="4" y="315" type="curve" smooth="yes"/>
      <point x="23" y="324"/>
      <point x="39" y="329"/>
      <point x="50" y="329" type="curve" smooth="yes"/>
      <point x="74" y="329"/>
      <point x="82" y="310"/>
      <point x="82" y="269" type="curve" smooth="yes"/>
      <point x="82" y="-194" type="line" smooth="yes"/>
      <point x="82" y="-251"/>
      <point x="73" y="-263"/>
      <point x="26" y="-263" type="curve" smooth="yes"/>
      <point x="22" y="-263"/>
      <point x="22" y="-275"/>
      <point x="26" y="-275" type="curve" smooth="yes"/>
    </contour>
    <contour>
      <point x="359" y="-13"/>
      <point x="482" y="44"/>
      <point x="482" y="215" type="curve" smooth="yes"/>
      <point x="482" y="332"/>
      <point x="406" y="399"/>
      <point x="323" y="399" type="curve" smooth="yes"/>
      <point x="258" y="399"/>
      <point x="198" y="366"/>
      <point x="130" y="288" type="curve"/>
      <point x="140" y="276" type="line"/>
      <point x="175" y="315"/>
      <point x="207" y="343"/>
      <point x="257" y="343" type="curve" smooth="yes"/>
      <point x="324" y="343"/>
      <point x="381" y="290"/>
      <point x="381" y="184" type="curve" smooth="yes"/>
      <point x="381" y="64"/>
      <point x="343" y="12"/>
      <point x="280" y="12" type="curve" smooth="yes"/>
      <point x="222" y="12"/>
      <point x="193" y="39"/>
      <point x="164" y="75" type="curve"/>
      <point x="129" y="12" type="line"/>
      <point x="180" y="-5"/>
      <point x="209" y="-13"/>
      <point x="261" y="-13" type="curve" smooth="yes"/>
    </contour>
    <contour>
      <point x="257" y="386" type="move" name="top"/>
    </contour>
    <contour>
      <point x="257" y="0" type="move" name="bottom"/>
    </contour>
  </outline>
</glyph>
<glyph name="q" format="1">
  <advance width="502"/>
  <unicode hex="0071"/>
  <outline>
    <contour>
      <point x="274" y="-13"/>
      <point x="322" y="35"/>
      <point x="363" y="77" type="curve"/>
      <point x="354" y="84" type="line"/>
      <point x="324" y="60"/>
      <point x="285" y="40"/>
      <point x="244" y="40" type="curve" smooth="yes"/>
      <point x="179" y="40"/>
      <point x="135" y="92"/>
      <point x="135" y="212" type="curve" smooth="yes"/>
      <point x="135" y="318"/>
      <point x="167" y="378"/>
      <point x="235" y="378" type="curve" smooth="yes"/>
      <point x="276" y="378"/>
      <point x="342" y="346"/>
      <point x="342" y="263" type="curve"/>
      <point x="401" y="357" type="line"/>
      <point x="361" y="385"/>
      <point x="311" y="399"/>
      <point x="256" y="399" type="curve" smooth="yes"/>
      <point x="146" y="399"/>
      <point x="32" y="323"/>
      <point x="32" y="173" type="curve" smooth="yes"/>
      <point x="32" y="48"/>
      <point x="111" y="-13"/>
      <point x="198" y="-13" type="curve" smooth="yes"/>
    </contour>
    <contour>
      <point x="299" y="-275"/>
      <point x="343" y="-273"/>
      <point x="389" y="-273" type="curve" smooth="yes"/>
      <point x="428" y="-273"/>
      <point x="464" y="-275"/>
      <point x="491" y="-275" type="curve" smooth="yes"/>
      <point x="495" y="-275"/>
      <point x="495" y="-263"/>
      <point x="491" y="-263" type="curve" smooth="yes"/>
      <point x="444" y="-263"/>
      <point x="435" y="-251"/>
      <point x="435" y="-194" type="curve" smooth="yes"/>
      <point x="435" y="295" type="line" smooth="yes"/>
      <point x="435" y="336"/>
      <point x="451" y="361"/>
      <point x="484" y="378" type="curve" smooth="yes"/>
      <point x="489" y="380"/>
      <point x="485" y="391"/>
      <point x="480" y="388" type="curve" smooth="yes"/>
      <point x="342" y="338" type="line" smooth="yes"/>
      <point x="342" y="-194" type="line" smooth="yes"/>
      <point x="342" y="-251"/>
      <point x="330" y="-263"/>
      <point x="264" y="-263" type="curve" smooth="yes"/>
      <point x="261" y="-263"/>
      <point x="261" y="-275"/>
      <point x="264" y="-275" type="curve" smooth="yes"/>
    </contour>
    <contour>
      <point x="251" y="386" type="move" name="top"/>
    </contour>
    <contour>
      <point x="251" y="0" type="move" name="bottom"/>
    </contour>
  </outline>
</glyph>
<glyph name="r" format="1">
  <advance width="379"/>
  <unicode hex="0072"/>
  <outline>
    <contour>
      <point x="215" y="327"/>
      <point x="229" y="335"/>
      <point x="243" y="335" type="curve" smooth="yes"/>
      <point x="274" y="335"/>
      <point x="276" y="292"/>
      <point x="318" y="292" type="curve" smooth="yes"/>
      <point x="347" y="292"/>
      <point x="365" y="312"/>
      <point x="365" y="340" type="curve" smooth="yes"/>
      <point x="365" y="373"/>
      <point x="327" y="396"/>
      <point x="299" y="396" type="curve" smooth="yes"/>
      <point x="269" y="396"/>
      <point x="230" y="373"/>
      <point x="153" y="284" type="curve"/>
      <point x="161" y="271" type="line"/>
    </contour>
    <contour>
      <point x="65" y="0"/>
      <point x="101" y="2"/>
      <point x="139" y="2" type="curve" smooth="yes"/>
      <point x="192" y="2"/>
      <point x="239" y="0"/>
      <point x="275" y="0" type="curve" smooth="yes"/>
      <point x="280" y="0"/>
      <point x="280" y="12"/>
      <point x="275" y="12" type="curve" smooth="yes"/>
      <point x="207" y="12"/>
      <point x="186" y="28"/>
      <point x="186" y="81" type="curve" smooth="yes"/>
      <point x="186" y="303" type="line" smooth="yes"/>
      <point x="186" y="363"/>
      <point x="168" y="396"/>
      <point x="153" y="396" type="curve" smooth="yes"/>
      <point x="151" y="396"/>
      <point x="149" y="395"/>
      <point x="146" y="394" type="curve" smooth="yes"/>
      <point x="7" y="326" type="line" smooth="yes"/>
      <point x="4" y="325"/>
      <point x="8" y="312"/>
      <point x="13" y="315" type="curve" smooth="yes"/>
      <point x="33" y="324"/>
      <point x="49" y="329"/>
      <point x="61" y="329" type="curve" smooth="yes"/>
      <point x="83" y="329"/>
      <point x="92" y="310"/>
      <point x="92" y="269" type="curve" smooth="yes"/>
      <point x="92" y="81" type="line" smooth="yes"/>
      <point x="92" y="28"/>
      <point x="80" y="12"/>
      <point x="39" y="12" type="curve" smooth="yes"/>
      <point x="35" y="12"/>
      <point x="35" y="0"/>
      <point x="39" y="0" type="curve" smooth="yes"/>
    </contour>
    <contour>
      <point x="202" y="386" type="move" name="top"/>
    </contour>
    <contour>
      <point x="153" y="0" type="move" name="bottom"/>
    </contour>
  </outline>
</glyph>
<glyph name="s" format="1">
  <advance width="337"/>
  <unicode hex="0073"/>
  <outline>
    <contour>
      <point x="118" y="371"/>
      <point x="140" y="377"/>
      <point x="159" y="377" type="curve" smooth="yes"/>
      <point x="216" y="377"/>
      <point x="269" y="318"/>
      <point x="269" y="281" type="curve" smooth="yes"/>
      <point x="269" y="277"/>
      <point x="281" y="277"/>
      <point x="281" y="281" type="curve" smooth="yes"/>
      <point x="281" y="316"/>
      <point x="283" y="343"/>
      <point x="283" y="370" type="curve" smooth="yes"/>
      <point x="283" y="374"/>
      <point x="280" y="379"/>
      <point x="274" y="381" type="curve" smooth="yes"/>
      <point x="242" y="393"/>
      <point x="220" y="396"/>
      <point x="191" y="396" type="curve" smooth="yes"/>
      <point x="118" y="396"/>
      <point x="46" y="366"/>
      <point x="46" y="282" type="curve" smooth="yes"/>
      <point x="46" y="212"/>
      <point x="98" y="188"/>
      <point x="145" y="163" type="curve" smooth="yes"/>
      <point x="185" y="140"/>
      <point x="228" y="115"/>
      <point x="228" y="60" type="curve" smooth="yes"/>
      <point x="228" y="25"/>
      <point x="209" y="9"/>
      <point x="182" y="9" type="curve" smooth="yes"/>
      <point x="130" y="9"/>
      <point x="75" y="64"/>
      <point x="54" y="129" type="curve" smooth="yes"/>
      <point x="53" y="132"/>
      <point x="42" y="131"/>
      <point x="42" y="127" type="curve" smooth="yes"/>
      <point x="44" y="28" type="line" smooth="yes"/>
      <point x="44" y="22"/>
      <point x="47" y="19"/>
      <point x="50" y="16" type="curve" smooth="yes"/>
      <point x="88" y="-5"/>
      <point x="120" y="-11"/>
      <point x="154" y="-11" type="curve" smooth="yes"/>
      <point x="253" y="-11"/>
      <point x="303" y="55"/>
      <point x="303" y="120" type="curve" smooth="yes"/>
      <point x="303" y="189"/>
      <point x="247" y="216"/>
      <point x="198" y="244" type="curve" smooth="yes"/>
      <point x="156" y="269"/>
      <point x="118" y="295"/>
      <point x="118" y="338" type="curve" smooth="yes"/>
    </contour>
    <contour>
      <point x="173" y="386" type="move" name="top"/>
    </contour>
    <contour>
      <point x="175" y="0" type="move" name="bottom"/>
    </contour>
  </outline>
</glyph>
<glyph name="t" format="1">
  <advance width="336"/>
  <unicode hex="0074"/>
  <outline>
    <contour>
      <point x="237" y="-12"/>
      <point x="281" y="11"/>
      <point x="330" y="60" type="curve" smooth="yes"/>
      <point x="335" y="64"/>
      <point x="326" y="73"/>
      <point x="322" y="69" type="curve" smooth="yes"/>
      <point x="303" y="54"/>
      <point x="275" y="39"/>
      <point x="244" y="39" type="curve" smooth="yes"/>
      <point x="204" y="39"/>
      <point x="173" y="60"/>
      <point x="173" y="113" type="curve" smooth="yes"/>
      <point x="173" y="458" type="line" smooth="yes"/>
      <point x="173" y="463"/>
      <point x="160" y="463"/>
      <point x="158" y="458" type="curve" smooth="yes"/>
      <point x="136" y="404"/>
      <point x="95" y="378"/>
      <point x="27" y="375" type="curve" smooth="yes"/>
      <point x="22" y="375"/>
      <point x="22" y="357"/>
      <point x="27" y="357" type="curve" smooth="yes"/>
      <point x="65" y="357"/>
      <point x="78" y="344"/>
      <point x="78" y="302" type="curve" smooth="yes"/>
      <point x="78" y="80" type="line" smooth="yes"/>
      <point x="78" y="7"/>
      <point x="135" y="-12"/>
      <point x="184" y="-12" type="curve" smooth="yes"/>
    </contour>
    <contour>
      <point x="304" y="333"/>
      <point x="310" y="350"/>
      <point x="310" y="363" type="curve" smooth="yes"/>
      <point x="310" y="375"/>
      <point x="306" y="387"/>
      <point x="303" y="387" type="curve" smooth="yes"/>
      <point x="243" y="381"/>
      <point x="193" y="377"/>
      <point x="138" y="377" type="curve"/>
      <point x="138" y="351" type="line"/>
      <point x="195" y="351"/>
      <point x="244" y="347"/>
      <point x="299" y="335" type="curve" smooth="yes"/>
    </contour>
    <contour>
      <point x="187" y="0" type="move" name="bottom"/>
    </contour>
    <contour>
      <point x="157" y="421" type="move" name="top"/>
    </contour>
    <contour>
      <point x="205" y="386" type="move" name="topright"/>
    </contour>
    <contour>
      <point x="175" y="193" type="move" name="center"/>
    </contour>
  </outline>
</glyph>
<glyph name="u" format="1">
  <advance width="432"/>
  <unicode hex="0075"/>
  <outline>
    <contour>
      <point x="221" y="-10"/>
      <point x="269" y="28"/>
      <point x="308" y="85" type="curve"/>
      <point x="303" y="95" type="line"/>
      <point x="283" y="66"/>
      <point x="246" y="45"/>
      <point x="214" y="45" type="curve" smooth="yes"/>
      <point x="166" y="45"/>
      <point x="143" y="76"/>
      <point x="143" y="138" type="curve" smooth="yes"/>
      <point x="143" y="327" type="line" smooth="yes"/>
      <point x="143" y="331"/>
      <point x="135" y="338"/>
      <point x="129" y="338" type="curve" smooth="yes"/>
      <point x="128" y="338"/>
      <point x="127" y="338"/>
      <point x="125" y="337" type="curve" smooth="yes"/>
      <point x="10" y="282" type="line" smooth="yes"/>
      <point x="7" y="281"/>
      <point x="11" y="270"/>
      <point x="15" y="272" type="curve" smooth="yes"/>
      <point x="24" y="276"/>
      <point x="31" y="278"/>
      <point x="37" y="278" type="curve" smooth="yes"/>
      <point x="55" y="278"/>
      <point x="63" y="260"/>
      <point x="63" y="222" type="curve" smooth="yes"/>
      <point x="63" y="97" type="line" smooth="yes"/>
      <point x="63" y="34"/>
      <point x="101" y="-10"/>
      <point x="164" y="-10" type="curve" smooth="yes"/>
    </contour>
    <contour>
      <point x="366" y="331"/>
      <point x="358" y="338"/>
      <point x="352" y="338" type="curve" smooth="yes"/>
      <point x="351" y="338"/>
      <point x="350" y="338"/>
      <point x="348" y="337" type="curve" smooth="yes"/>
      <point x="233" y="282" type="line" smooth="yes"/>
      <point x="230" y="281"/>
      <point x="234" y="270"/>
      <point x="238" y="272" type="curve" smooth="yes"/>
      <point x="247" y="276"/>
      <point x="254" y="278"/>
      <point x="260" y="278" type="curve" smooth="yes"/>
      <point x="278" y="278"/>
      <point x="286" y="260"/>
      <point x="286" y="222" type="curve" smooth="yes"/>
      <point x="286" y="70" type="line" smooth="yes"/>
      <point x="286" y="18"/>
      <point x="297" y="-12"/>
      <point x="309" y="-12" type="curve" smooth="yes"/>
      <point x="310" y="-12"/>
      <point x="311" y="-12"/>
      <point x="313" y="-11" type="curve" smooth="yes"/>
      <point x="431" y="46" type="line" smooth="yes"/>
      <point x="434" y="48"/>
      <point x="429" y="58"/>
      <point x="425" y="56" type="curve" smooth="yes"/>
      <point x="410" y="50"/>
      <point x="398" y="46"/>
      <point x="390" y="46" type="curve" smooth="yes"/>
      <point x="373" y="46"/>
      <point x="366" y="60"/>
      <point x="366" y="99" type="curve" smooth="yes"/>
      <point x="366" y="327" type="line" smooth="yes"/>
    </contour>
    <contour>
      <point x="431" y="46" type="move" name="ogonek"/>
    </contour>
    <contour>
      <point x="220" y="330" type="move" name="top"/>
    </contour>
    <contour>
      <point x="412" y="330" type="move" name="topright"/>
    </contour>
    <contour>
      <point x="216" y="0" type="move" name="bottom"/>
    </contour>
  </outline>
</glyph>
<glyph name="v" format="1">
  <advance width="440"/>
  <unicode hex="0076"/>
  <outline>
    <contour>
      <point x="425" y="386"/>
      <point x="409" y="384"/>
      <point x="377" y="384" type="curve" smooth="yes"/>
      <point x="331" y="384"/>
      <point x="308" y="386"/>
      <point x="276" y="386" type="curve" smooth="yes"/>
      <point x="273" y="386"/>
      <point x="273" y="374"/>
      <point x="276" y="374" type="curve" smooth="yes"/>
      <point x="329" y="374"/>
      <point x="354" y="339"/>
      <point x="332" y="285" type="curve" smooth="yes"/>
      <point x="223" y="21" type="line"/>
      <point x="274" y="109" type="line"/>
      <point x="154" y="335" type="line" smooth="yes"/>
      <point x="138" y="366"/>
      <point x="165" y="374"/>
      <point x="207" y="374" type="curve" smooth="yes"/>
      <point x="211" y="374"/>
      <point x="211" y="386"/>
      <point x="207" y="386" type="curve" smooth="yes"/>
      <point x="174" y="386"/>
      <point x="137" y="384"/>
      <point x="83" y="384" type="curve" smooth="yes"/>
      <point x="34" y="384"/>
      <point x="8" y="386"/>
      <point x="-14" y="386" type="curve" smooth="yes"/>
      <point x="-18" y="386"/>
      <point x="-18" y="374"/>
      <point x="-14" y="374" type="curve" smooth="yes"/>
      <point x="15" y="374"/>
      <point x="32" y="364"/>
      <point x="62" y="303" type="curve" smooth="yes"/>
      <point x="215" y="0" type="line" smooth="yes"/>
      <point x="219" y="-7"/>
      <point x="234" y="-7"/>
      <point x="237" y="0" type="curve" smooth="yes"/>
      <point x="360" y="284" type="line" smooth="yes"/>
      <point x="386" y="345"/>
      <point x="415" y="374"/>
      <point x="454" y="374" type="curve" smooth="yes"/>
      <point x="457" y="374"/>
      <point x="457" y="386"/>
      <point x="454" y="386" type="curve" smooth="yes"/>
    </contour>
    <contour>
      <point x="220" y="386" type="move" name="top"/>
    </contour>
    <contour>
      <point x="220" y="0" type="move" name="bottom"/>
    </contour>
  </outline>
</glyph>
<glyph name="w" format="1">
  <advance width="685"/>
  <unicode hex="0077"/>
  <outline>
    <contour>
      <point x="463" y="-4"/>
      <point x="482" y="-5"/>
      <point x="483" y="1" type="curve" smooth="yes"/>
      <point x="606" y="284" type="line" smooth="yes"/>
      <point x="633" y="346"/>
      <point x="661" y="374"/>
      <point x="699" y="374" type="curve" smooth="yes"/>
      <point x="703" y="374"/>
      <point x="703" y="386"/>
      <point x="699" y="386" type="curve" smooth="yes"/>
      <point x="670" y="386"/>
      <point x="655" y="384"/>
      <point x="622" y="384" type="curve" smooth="yes"/>
      <point x="577" y="384"/>
      <point x="553" y="386"/>
      <point x="522" y="386" type="curve" smooth="yes"/>
      <point x="518" y="386"/>
      <point x="518" y="374"/>
      <point x="522" y="374" type="curve" smooth="yes"/>
      <point x="574" y="374"/>
      <point x="600" y="339"/>
      <point x="578" y="285" type="curve" smooth="yes"/>
      <point x="469" y="22" type="line"/>
      <point x="519" y="111" type="line"/>
      <point x="400" y="335" type="line" smooth="yes"/>
      <point x="386" y="360"/>
      <point x="407" y="374"/>
      <point x="441" y="374" type="curve" smooth="yes"/>
      <point x="444" y="374"/>
      <point x="444" y="386"/>
      <point x="441" y="386" type="curve" smooth="yes"/>
      <point x="412" y="386"/>
      <point x="378" y="384"/>
      <point x="329" y="384" type="curve" smooth="yes"/>
      <point x="285" y="384"/>
      <point x="263" y="386"/>
      <point x="243" y="386" type="curve" smooth="yes"/>
      <point x="240" y="386"/>
      <point x="240" y="374"/>
      <point x="243" y="374" type="curve" smooth="yes"/>
      <point x="268" y="374"/>
      <point x="278" y="360"/>
      <point x="308" y="303" type="curve" smooth="yes"/>
      <point x="461" y="1" type="line" smooth="yes"/>
    </contour>
    <contour>
      <point x="218" y="-4"/>
      <point x="236" y="-5"/>
      <point x="237" y="1" type="curve" smooth="yes"/>
      <point x="360" y="284" type="line"/>
      <point x="332" y="285" type="line"/>
      <point x="223" y="22" type="line"/>
      <point x="274" y="111" type="line"/>
      <point x="150" y="335" type="line" smooth="yes"/>
      <point x="132" y="366"/>
      <point x="161" y="374"/>
      <point x="195" y="374" type="curve" smooth="yes"/>
      <point x="199" y="374"/>
      <point x="199" y="386"/>
      <point x="195" y="386" type="curve" smooth="yes"/>
      <point x="166" y="386"/>
      <point x="132" y="384"/>
      <point x="83" y="384" type="curve" smooth="yes"/>
      <point x="34" y="384"/>
      <point x="8" y="386"/>
      <point x="-14" y="386" type="curve" smooth="yes"/>
      <point x="-18" y="386"/>
      <point x="-18" y="374"/>
      <point x="-14" y="374" type="curve" smooth="yes"/>
      <point x="15" y="374"/>
      <point x="32" y="363"/>
      <point x="62" y="303" type="curve" smooth="yes"/>
      <point x="215" y="1" type="line" smooth="yes"/>
    </contour>
    <contour>
      <point x="340" y="386" type="move" name="top"/>
    </contour>
    <contour>
      <point x="343" y="0" type="move" name="bottom"/>
    </contour>
  </outline>
</glyph>
<glyph name="x" format="1">
  <advance width="440"/>
  <unicode hex="0078"/>
  <outline>
    <contour>
      <point x="278" y="0"/>
      <point x="315" y="2"/>
      <point x="363" y="2" type="curve" smooth="yes"/>
      <point x="386" y="2"/>
      <point x="413" y="0"/>
      <point x="436" y="0" type="curve" smooth="yes"/>
      <point x="440" y="0"/>
      <point x="440" y="12"/>
      <point x="436" y="12" type="curve" smooth="yes"/>
      <point x="413" y="12"/>
      <point x="380" y="32"/>
      <point x="346" y="83" type="curve" smooth="yes"/>
      <point x="179" y="335" type="line" smooth="yes"/>
      <point x="160" y="363"/>
      <point x="170" y="374"/>
      <point x="191" y="374" type="curve" smooth="yes"/>
      <point x="194" y="374"/>
      <point x="194" y="386"/>
      <point x="191" y="386" type="curve" smooth="yes"/>
      <point x="160" y="386"/>
      <point x="124" y="384"/>
      <point x="76" y="384" type="curve" smooth="yes"/>
      <point x="56" y="384"/>
      <point x="34" y="386"/>
      <point x="14" y="386" type="curve" smooth="yes"/>
      <point x="11" y="386"/>
      <point x="11" y="374"/>
      <point x="14" y="374" type="curve" smooth="yes"/>
      <point x="37" y="374"/>
      <point x="64" y="345"/>
      <point x="92" y="303" type="curve" smooth="yes"/>
      <point x="260" y="51" type="line" smooth="yes"/>
      <point x="277" y="26"/>
      <point x="273" y="12"/>
      <point x="248" y="12" type="curve" smooth="yes"/>
      <point x="244" y="12"/>
      <point x="244" y="0"/>
      <point x="248" y="0" type="curve" smooth="yes"/>
    </contour>
    <contour>
      <point x="33" y="0"/>
      <point x="48" y="2"/>
      <point x="81" y="2" type="curve" smooth="yes"/>
      <point x="126" y="2"/>
      <point x="150" y="0"/>
      <point x="181" y="0" type="curve" smooth="yes"/>
      <point x="185" y="0"/>
      <point x="185" y="12"/>
      <point x="181" y="12" type="curve" smooth="yes"/>
      <point x="130" y="12"/>
      <point x="123" y="43"/>
      <point x="160" y="98" type="curve" smooth="yes"/>
      <point x="216" y="181" type="line"/>
      <point x="202" y="195" type="line"/>
      <point x="136" y="105" type="line" smooth="yes"/>
      <point x="95" y="49"/>
      <point x="46" y="12"/>
      <point x="4" y="12" type="curve" smooth="yes"/>
      <point x="0" y="12"/>
      <point x="0" y="0"/>
      <point x="4" y="0" type="curve" smooth="yes"/>
    </contour>
    <contour>
      <point x="290" y="281" type="line" smooth="yes"/>
      <point x="331" y="337"/>
      <point x="380" y="374"/>
      <point x="422" y="374" type="curve" smooth="yes"/>
      <point x="426" y="374"/>
      <point x="426" y="386"/>
      <point x="422" y="386" type="curve" smooth="yes"/>
      <point x="393" y="386"/>
      <point x="378" y="384"/>
      <point x="345" y="384" type="curve" smooth="yes"/>
      <point x="299" y="384"/>
      <point x="276" y="386"/>
      <point x="244" y="386" type="curve" smooth="yes"/>
      <point x="241" y="386"/>
      <point x="241" y="374"/>
      <point x="244" y="374" type="curve" smooth="yes"/>
      <point x="296" y="374"/>
      <point x="303" y="343"/>
      <point x="265" y="288" type="curve" smooth="yes"/>
      <point x="209" y="205" type="line"/>
      <point x="223" y="191" type="line"/>
    </contour>
    <contour>
      <point x="220" y="386" type="move" name="top"/>
    </contour>
    <contour>
      <point x="220" y="0" type="move" name="bottom"/>
    </contour>
  </outline>
</glyph>
<glyph name="y" format="1">
  <advance width="427"/>
  <unicode hex="0079"/>
  <outline>
    <contour>
      <point x="412" y="386"/>
      <point x="396" y="384"/>
      <point x="364" y="384" type="curve" smooth="yes"/>
      <point x="318" y="384"/>
      <point x="295" y="386"/>
      <point x="263" y="386" type="curve" smooth="yes"/>
      <point x="260" y="386"/>
      <point x="260" y="374"/>
      <point x="263" y="374" type="curve" smooth="yes"/>
      <point x="318" y="374"/>
      <point x="338" y="333"/>
      <point x="316" y="268" type="curve" smooth="yes"/>
      <point x="229" y="16" type="line"/>
      <point x="265" y="75" type="line"/>
      <point x="138" y="335" type="line" smooth="yes"/>
      <point x="123" y="365"/>
      <point x="135" y="374"/>
      <point x="182" y="374" type="curve" smooth="yes"/>
      <point x="186" y="374"/>
      <point x="186" y="386"/>
      <point x="182" y="386" type="curve" smooth="yes"/>
      <point x="152" y="386"/>
      <point x="118" y="384"/>
      <point x="70" y="384" type="curve" smooth="yes"/>
      <point x="43" y="384"/>
      <point x="12" y="386"/>
      <point x="-15" y="386" type="curve" smooth="yes"/>
      <point x="-19" y="386"/>
      <point x="-19" y="374"/>
      <point x="-15" y="374" type="curve" smooth="yes"/>
      <point x="9" y="374"/>
      <point x="21" y="361"/>
      <point x="50" y="303" type="curve" smooth="yes"/>
      <point x="220" y="-40" type="line"/>
      <point x="223" y="15" type="line"/>
      <point x="160" y="-157"/>
      <point x="130" y="-211"/>
      <point x="82" y="-211" type="curve" smooth="yes"/>
      <point x="49" y="-211"/>
      <point x="43" y="-185"/>
      <point x="9" y="-185" type="curve" smooth="yes"/>
      <point x="-16" y="-185"/>
      <point x="-39" y="-200"/>
      <point x="-39" y="-232" type="curve" smooth="yes"/>
      <point x="-39" y="-264"/>
      <point x="-16" y="-281"/>
      <point x="23" y="-281" type="curve" smooth="yes"/>
      <point x="99" y="-281"/>
      <point x="159" y="-221"/>
      <point x="232" y="-28" type="curve" smooth="yes"/>
      <point x="343" y="267" type="line" smooth="yes"/>
      <point x="367" y="332"/>
      <point x="396" y="374"/>
      <point x="441" y="374" type="curve" smooth="yes"/>
      <point x="444" y="374"/>
      <point x="444" y="386"/>
      <point x="441" y="386" type="curve" smooth="yes"/>
    </contour>
    <contour>
      <point x="222" y="386" type="move" name="top"/>
    </contour>
    <contour>
      <point x="308" y="0" type="move" name="bottom"/>
    </contour>
  </outline>
</glyph>
<glyph name="z" format="1">
  <advance width="405"/>
  <unicode hex="007A"/>
  <outline>
    <contour>
      <point x="30" y="7"/>
      <point x="34" y="0"/>
      <point x="40" y="0" type="curve" smooth="yes"/>
      <point x="137" y="0"/>
      <point x="269" y="0"/>
      <point x="367" y="0" type="curve" smooth="yes"/>
      <point x="373" y="0"/>
      <point x="377" y="6"/>
      <point x="377" y="11" type="curve" smooth="yes"/>
      <point x="379" y="132" type="line" smooth="yes"/>
      <point x="379" y="136"/>
      <point x="368" y="136"/>
      <point x="367" y="132" type="curve" smooth="yes"/>
      <point x="350" y="54"/>
      <point x="280" y="18"/>
      <point x="150" y="18" type="curve" smooth="yes"/>
      <point x="144" y="18"/>
      <point x="143" y="20"/>
      <point x="145" y="25" type="curve" smooth="yes"/>
      <point x="373" y="374" type="line" smooth="yes"/>
      <point x="375" y="379"/>
      <point x="371" y="386"/>
      <point x="365" y="386" type="curve" smooth="yes"/>
      <point x="265" y="386"/>
      <point x="187" y="386"/>
      <point x="135" y="386" type="curve" smooth="yes"/>
      <point x="94" y="386"/>
      <point x="78" y="393"/>
      <point x="85" y="422" type="curve" smooth="yes"/>
      <point x="87" y="426"/>
      <point x="75" y="428"/>
      <point x="74" y="425" type="curve" smooth="yes"/>
      <point x="32" y="268" type="line" smooth="yes"/>
      <point x="30" y="264"/>
      <point x="42" y="262"/>
      <point x="43" y="265" type="curve" smooth="yes"/>
      <point x="68" y="338"/>
      <point x="144" y="371"/>
      <point x="251" y="371" type="curve" smooth="yes"/>
      <point x="257" y="371"/>
      <point x="258" y="368"/>
      <point x="256" y="364" type="curve" smooth="yes"/>
      <point x="33" y="12" type="line" smooth="yes"/>
    </contour>
    <contour>
      <point x="214" y="386" type="move" name="top"/>
    </contour>
    <contour>
      <point x="202" y="0" type="move" name="bottom"/>
    </contour>
  </outline>
</glyph>
<glyph name="braceleft" format="1">
  <advance width="289"/>
  <unicode hex="007B"/>
  <outline>
    <contour>
      <point x="84" y="289"/>
      <point x="90" y="182"/>
      <point x="90" y="80" type="curve" smooth="yes"/>
      <point x="90" y="-87"/>
      <point x="117" y="-117"/>
      <point x="250" y="-117" type="curve" smooth="yes"/>
      <point x="255" y="-117"/>
      <point x="255" y="-105"/>
      <point x="250" y="-105" type="curve" smooth="yes"/>
      <point x="215" y="-105"/>
      <point x="196" y="-67"/>
      <point x="195" y="1" type="curve" smooth="yes"/>
      <point x="191" y="211"/>
      <point x="189" y="258"/>
      <point x="78" y="305" type="curve" smooth="yes"/>
      <point x="189" y="351"/>
      <point x="191" y="393"/>
      <point x="195" y="607" type="curve" smooth="yes"/>
      <point x="196" y="675"/>
      <point x="215" y="713"/>
      <point x="250" y="713" type="curve" smooth="yes"/>
      <point x="255" y="713"/>
      <point x="255" y="725"/>
      <point x="250" y="725" type="curve" smooth="yes"/>
      <point x="119" y="725"/>
      <point x="90" y="697"/>
      <point x="90" y="529" type="curve" smooth="yes"/>
      <point x="90" y="429"/>
      <point x="84" y="320"/>
      <point x="32" y="311" type="curve" smooth="yes"/>
      <point x="28" y="311"/>
      <point x="28" y="298"/>
      <point x="32" y="298" type="curve" smooth="yes"/>
    </contour>
  </outline>
</glyph>
<glyph name="bar" format="1">
  <advance width="168"/>
  <unicode hex="007C"/>
  <outline>
    <contour>
      <point x="62" y="-164"/>
      <point x="109" y="-164"/>
      <point x="109" y="-154" type="curve" smooth="yes"/>
      <point x="109" y="731" type="line" smooth="yes"/>
      <point x="109" y="740"/>
      <point x="62" y="740"/>
      <point x="62" y="731" type="curve" smooth="yes"/>
      <point x="62" y="-154" type="line" smooth="yes"/>
    </contour>
  </outline>
</glyph>
<glyph name="asciitilde" format="1">
  <advance width="443"/>
  <unicode hex="007E"/>
  <outline>
    <contour>
      <point x="260" y="212"/>
      <point x="212" y="248"/>
      <point x="171" y="248" type="curve" smooth="yes"/>
      <point x="117" y="248"/>
      <point x="71" y="182"/>
      <point x="48" y="144" type="curve" smooth="yes"/>
      <point x="46" y="140"/>
      <point x="53" y="135"/>
      <point x="55" y="137" type="curve" smooth="yes"/>
      <point x="78" y="159"/>
      <point x="90" y="175"/>
      <point x="129" y="175" type="curve" smooth="yes"/>
      <point x="187" y="175"/>
      <point x="227" y="139"/>
      <point x="280" y="139" type="curve" smooth="yes"/>
      <point x="318" y="139"/>
      <point x="343" y="159"/>
      <point x="396" y="243" type="curve" smooth="yes"/>
      <point x="399" y="247"/>
      <point x="392" y="253"/>
      <point x="389" y="250" type="curve" smooth="yes"/>
      <point x="374" y="233"/>
      <point x="356" y="212"/>
      <point x="315" y="212" type="curve" smooth="yes"/>
    </contour>
  </outline>
</glyph>
<glyph name="cent" format="1">
  <advance width="530"/>
  <unicode hex="00A2"/>
  <outline>
    <contour>
      <point x="273" y="-111"/>
      <point x="302" y="-111"/>
      <point x="302" y="-102" type="curve" smooth="yes"/>
      <point x="302" y="561" type="line" smooth="yes"/>
      <point x="302" y="571"/>
      <point x="273" y="571"/>
      <point x="273" y="561" type="curve" smooth="yes"/>
      <point x="273" y="-102" type="line" smooth="yes"/>
    </contour>
    <contour>
      <point x="150" y="480"/>
      <point x="30" y="375"/>
      <point x="30" y="236" type="curve" smooth="yes"/>
      <point x="30" y="132"/>
      <point x="98" y="-12"/>
      <point x="303" y="-12" type="curve" smooth="yes"/>
      <point x="349" y="-12"/>
      <point x="406" y="-5"/>
      <point x="463" y="15" type="curve" smooth="yes"/>
      <point x="475" y="20"/>
      <point x="476" y="22"/>
      <point x="477" y="33" type="curve" smooth="yes"/>
      <point x="485" y="139" type="line" smooth="yes"/>
      <point x="485" y="143"/>
      <point x="476" y="145"/>
      <point x="474" y="140" type="curve" smooth="yes"/>
      <point x="430" y="50"/>
      <point x="388" y="9"/>
      <point x="318" y="9" type="curve" smooth="yes"/>
      <point x="196" y="9"/>
      <point x="149" y="135"/>
      <point x="149" y="251" type="curve" smooth="yes"/>
      <point x="149" y="372"/>
      <point x="199" y="458"/>
      <point x="296" y="458" type="curve" smooth="yes"/>
      <point x="365" y="458"/>
      <point x="415" y="415"/>
      <point x="464" y="330" type="curve" smooth="yes"/>
      <point x="467" y="325"/>
      <point x="476" y="327"/>
      <point x="476" y="331" type="curve" smooth="yes"/>
      <point x="471" y="434" type="line" smooth="yes"/>
      <point x="471" y="444"/>
      <point x="469" y="447"/>
      <point x="460" y="451" type="curve" smooth="yes"/>
      <point x="421" y="470"/>
      <point x="354" y="480"/>
      <point x="308" y="480" type="curve" smooth="yes"/>
    </contour>
    <contour>
      <point x="294" y="468" type="move" name="top"/>
    </contour>
    <contour>
      <point x="308" y="0" type="move" name="bottom"/>
    </contour>
  </outline>
</glyph>
<glyph name="sterling" format="1">
  <advance width="432"/>
  <unicode hex="00A3"/>
  <outline>
    <contour>
      <point x="129" y="30" type="line"/>
      <point x="163" y="54"/>
      <point x="198" y="80"/>
      <point x="198" y="149" type="curve" smooth="yes"/>
      <point x="198" y="226"/>
      <point x="156" y="285"/>
      <point x="156" y="363" type="curve" smooth="yes"/>
      <point x="156" y="411"/>
      <point x="171" y="460"/>
      <point x="226" y="460" type="curve" smooth="yes"/>
      <point x="282" y="460"/>
      <point x="311" y="409"/>
      <point x="347" y="344" type="curve" smooth="yes"/>
      <point x="350" y="338"/>
      <point x="359" y="338"/>
      <point x="359" y="344" type="curve" smooth="yes"/>
      <point x="352" y="448" type="line" smooth="yes"/>
      <point x="351" y="457"/>
      <point x="346" y="463"/>
      <point x="336" y="467" type="curve" smooth="yes"/>
      <point x="303" y="477"/>
      <point x="270" y="480"/>
      <point x="247" y="480" type="curve" smooth="yes"/>
      <point x="149" y="480"/>
      <point x="57" y="440"/>
      <point x="57" y="327" type="curve" smooth="yes"/>
      <point x="57" y="257"/>
      <point x="96" y="223"/>
      <point x="101" y="118" type="curve" smooth="yes"/>
      <point x="103" y="76"/>
      <point x="94" y="30"/>
      <point x="13" y="12" type="curve" smooth="yes"/>
      <point x="9" y="11"/>
      <point x="9" y="0"/>
      <point x="13" y="0" type="curve" smooth="yes"/>
      <point x="356" y="0" type="line" smooth="yes"/>
      <point x="367" y="0"/>
      <point x="371" y="4"/>
      <point x="371" y="15" type="curve" smooth="yes"/>
      <point x="371" y="51"/>
      <point x="375" y="98"/>
      <point x="380" y="127" type="curve" smooth="yes"/>
      <point x="380" y="131"/>
      <point x="368" y="132"/>
      <point x="368" y="129" type="curve" smooth="yes"/>
      <point x="353" y="61"/>
      <point x="336" y="48"/>
      <point x="251" y="48" type="curve" smooth="yes"/>
      <point x="99" y="48" type="line"/>
    </contour>
    <contour>
      <point x="34" y="244"/>
      <point x="34" y="215"/>
      <point x="43" y="215" type="curve" smooth="yes"/>
      <point x="274" y="215" type="line" smooth="yes"/>
      <point x="283" y="215"/>
      <point x="283" y="244"/>
      <point x="274" y="244" type="curve" smooth="yes"/>
      <point x="43" y="244" type="line" smooth="yes"/>
    </contour>
    <contour>
      <point x="145" y="625" type="move" name="top"/>
    </contour>
    <contour>
      <point x="277" y="0" type="move" name="bottom"/>
    </contour>
    <contour>
      <point x="483" y="625" type="move" name="topright"/>
    </contour>
  </outline>
</glyph>
<glyph name="currency" format="1">
  <advance width="414"/>
  <unicode hex="00A4"/>
  <outline>
    <contour>
      <point x="103" y="119" type="line"/>
      <point x="50" y="64" type="line"/>
      <point x="83" y="32" type="line"/>
      <point x="133" y="88" type="line"/>
    </contour>
    <contour>
      <point x="135" y="317" type="line"/>
      <point x="83" y="373" type="line"/>
      <point x="46" y="338" type="line"/>
      <point x="99" y="284" type="line"/>
    </contour>
    <contour>
      <point x="277" y="90" type="line"/>
      <point x="329" y="32" type="line"/>
      <point x="367" y="68" type="line"/>
      <point x="312" y="123" type="line"/>
    </contour>
    <contour>
      <point x="306" y="278" type="line"/>
      <point x="366" y="338" type="line"/>
      <point x="335" y="370" type="line"/>
      <point x="276" y="308" type="line"/>
    </contour>
    <contour>
      <point x="270" y="65"/>
      <point x="349" y="115"/>
      <point x="349" y="201" type="curve" smooth="yes"/>
      <point x="349" y="277"/>
      <point x="288" y="335"/>
      <point x="211" y="335" type="curve" smooth="yes"/>
      <point x="145" y="335"/>
      <point x="61" y="292"/>
      <point x="61" y="202" type="curve" smooth="yes"/>
      <point x="61" y="135"/>
      <point x="110" y="65"/>
      <point x="196" y="65" type="curve" smooth="yes"/>
    </contour>
    <contour>
      <point x="158" y="89"/>
      <point x="133" y="161"/>
      <point x="133" y="223" type="curve" smooth="yes"/>
      <point x="133" y="282"/>
      <point x="156" y="311"/>
      <point x="188" y="311" type="curve" smooth="yes"/>
      <point x="243" y="311"/>
      <point x="274" y="246"/>
      <point x="274" y="180" type="curve" smooth="yes"/>
      <point x="274" y="122"/>
      <point x="250" y="89"/>
      <point x="215" y="89" type="curve" smooth="yes"/>
    </contour>
  </outline>
</glyph>
<glyph name="yen" format="1">
  <advance width="426"/>
  <unicode hex="00A5"/>
  <outline>
    <contour>
      <point x="88" y="121"/>
      <point x="88" y="99"/>
      <point x="96" y="99" type="curve" smooth="yes"/>
      <point x="343" y="99" type="line" smooth="yes"/>
      <point x="351" y="99"/>
      <point x="351" y="121"/>
      <point x="343" y="121" type="curve" smooth="yes"/>
      <point x="96" y="121" type="line" smooth="yes"/>
    </contour>
    <contour>
      <point x="88" y="182"/>
      <point x="88" y="160"/>
      <point x="96" y="160" type="curve" smooth="yes"/>
      <point x="343" y="160" type="line" smooth="yes"/>
      <point x="351" y="160"/>
      <point x="351" y="182"/>
      <point x="343" y="182" type="curve" smooth="yes"/>
      <point x="96" y="182" type="line" smooth="yes"/>
    </contour>
    <contour>
      <point x="245" y="161" type="line"/>
      <point x="330" y="313" type="line" smooth="yes"/>
      <point x="358" y="363"/>
      <point x="391" y="390"/>
      <point x="425" y="390" type="curve" smooth="yes"/>
      <point x="428" y="390"/>
      <point x="428" y="400"/>
      <point x="425" y="400" type="curve" smooth="yes"/>
      <point x="408" y="400"/>
      <point x="399" y="398"/>
      <point x="379" y="398" type="curve" smooth="yes"/>
      <point x="331" y="398"/>
      <point x="308" y="400"/>
      <point x="275" y="400" type="curve" smooth="yes"/>
      <point x="272" y="400"/>
      <point x="272" y="390"/>
      <point x="275" y="390" type="curve" smooth="yes"/>
      <point x="323" y="390"/>
      <point x="328" y="355"/>
      <point x="306" y="314" type="curve" smooth="yes"/>
      <point x="227" y="168" type="line"/>
    </contour>
    <contour>
      <point x="265" y="201" type="line"/>
      <point x="174" y="342" type="line" smooth="yes"/>
      <point x="150" y="379"/>
      <point x="170" y="390"/>
      <point x="205" y="390" type="curve" smooth="yes"/>
      <point x="208" y="390"/>
      <point x="208" y="400"/>
      <point x="205" y="400" type="curve" smooth="yes"/>
      <point x="179" y="400"/>
      <point x="112" y="398"/>
      <point x="71" y="398" type="curve" smooth="yes"/>
      <point x="56" y="398"/>
      <point x="20" y="400"/>
      <point x="5" y="400" type="curve" smooth="yes"/>
      <point x="2" y="400"/>
      <point x="2" y="390"/>
      <point x="5" y="390" type="curve" smooth="yes"/>
      <point x="31" y="390"/>
      <point x="54" y="373"/>
      <point x="82" y="329" type="curve" smooth="yes"/>
      <point x="190" y="162" type="line"/>
    </contour>
    <contour>
      <point x="176" y="69" type="line" smooth="yes"/>
      <point x="176" y="20"/>
      <point x="166" y="10"/>
      <point x="112" y="10" type="curve" smooth="yes"/>
      <point x="109" y="10"/>
      <point x="109" y="0"/>
      <point x="112" y="0" type="curve" smooth="yes"/>
      <point x="142" y="0"/>
      <point x="181" y="2"/>
      <point x="220" y="2" type="curve" smooth="yes"/>
      <point x="263" y="2"/>
      <point x="298" y="0"/>
      <point x="328" y="0" type="curve" smooth="yes"/>
      <point x="331" y="0"/>
      <point x="331" y="10"/>
      <point x="328" y="10" type="curve" smooth="yes"/>
      <point x="273" y="10"/>
      <point x="265" y="20"/>
      <point x="265" y="69" type="curve" smooth="yes"/>
      <point x="265" y="203" type="line"/>
      <point x="176" y="195" type="line"/>
    </contour>
    <contour>
      <point x="234" y="400" type="move" name="top"/>
    </contour>
    <contour>
      <point x="219" y="0" type="move" name="bottom"/>
    </contour>
  </outline>
</glyph>
<glyph name="section" format="1">
  <advance width="488"/>
  <unicode hex="00A7"/>
  <outline>
    <contour>
      <point x="414" y="75"/>
      <point x="433" y="116"/>
      <point x="433" y="165" type="curve" smooth="yes"/>
      <point x="433" y="340"/>
      <point x="202" y="329"/>
      <point x="202" y="482" type="curve" smooth="yes"/>
      <point x="202" y="527"/>
      <point x="223" y="549"/>
      <point x="254" y="549" type="curve" smooth="yes"/>
      <point x="320" y="549"/>
      <point x="365" y="449"/>
      <point x="380" y="420" type="curve" smooth="yes"/>
      <point x="381" y="416"/>
      <point x="392" y="416"/>
      <point x="392" y="420" type="curve" smooth="yes"/>
      <point x="384" y="537" type="line" smooth="yes"/>
      <point x="384" y="545"/>
      <point x="379" y="550"/>
      <point x="373" y="553" type="curve" smooth="yes"/>
      <point x="351" y="565"/>
      <point x="322" y="572"/>
      <point x="287" y="572" type="curve" smooth="yes"/>
      <point x="201" y="572"/>
      <point x="117" y="531"/>
      <point x="117" y="442" type="curve" smooth="yes"/>
      <point x="117" y="292"/>
      <point x="357" y="301"/>
      <point x="357" y="116" type="curve" smooth="yes"/>
      <point x="357" y="81"/>
      <point x="350" y="47"/>
      <point x="318" y="20" type="curve"/>
      <point x="326" y="11" type="line"/>
    </contour>
    <contour>
      <point x="313" y="-188"/>
      <point x="398" y="-147"/>
      <point x="398" y="-58" type="curve" smooth="yes"/>
      <point x="398" y="91"/>
      <point x="158" y="83"/>
      <point x="158" y="268" type="curve" smooth="yes"/>
      <point x="158" y="303"/>
      <point x="165" y="337"/>
      <point x="196" y="364" type="curve"/>
      <point x="188" y="373" type="line"/>
      <point x="101" y="309"/>
      <point x="82" y="268"/>
      <point x="82" y="219" type="curve" smooth="yes"/>
      <point x="82" y="43"/>
      <point x="312" y="55"/>
      <point x="312" y="-98" type="curve" smooth="yes"/>
      <point x="312" y="-144"/>
      <point x="291" y="-165"/>
      <point x="261" y="-165" type="curve" smooth="yes"/>
      <point x="194" y="-165"/>
      <point x="150" y="-65"/>
      <point x="135" y="-36" type="curve" smooth="yes"/>
      <point x="133" y="-33"/>
      <point x="123" y="-33"/>
      <point x="123" y="-36" type="curve" smooth="yes"/>
      <point x="131" y="-153" type="line" smooth="yes"/>
      <point x="131" y="-161"/>
      <point x="136" y="-166"/>
      <point x="142" y="-170" type="curve" smooth="yes"/>
      <point x="164" y="-181"/>
      <point x="193" y="-188"/>
      <point x="228" y="-188" type="curve" smooth="yes"/>
    </contour>
  </outline>
</glyph>
<glyph name="dieresis" format="1">
  <advance width="275"/>
  <unicode hex="00A8"/>
  <outline>
    <contour>
      <point x="92" y="397"/>
      <point x="109" y="414"/>
      <point x="109" y="444" type="curve" smooth="yes"/>
      <point x="109" y="471"/>
      <point x="92" y="488"/>
      <point x="64" y="488" type="curve" smooth="yes"/>
      <point x="35" y="488"/>
      <point x="17" y="471"/>
      <point x="17" y="444" type="curve" smooth="yes"/>
      <point x="17" y="414"/>
      <point x="35" y="397"/>
      <point x="64" y="397" type="curve" smooth="yes"/>
    </contour>
    <contour>
      <point x="241" y="397"/>
      <point x="257" y="414"/>
      <point x="257" y="444" type="curve" smooth="yes"/>
      <point x="257" y="471"/>
      <point x="241" y="487"/>
      <point x="213" y="487" type="curve" smooth="yes"/>
      <point x="184" y="487"/>
      <point x="167" y="471"/>
      <point x="167" y="444" type="curve" smooth="yes"/>
      <point x="167" y="414"/>
      <point x="184" y="397"/>
      <point x="213" y="397" type="curve" smooth="yes"/>
    </contour>
    <contour>
      <point x="138" y="330" type="move" name="_top"/>
    </contour>
  </outline>
</glyph>
<glyph name="copyright" format="1">
  <advance width="727"/>
  <unicode hex="00A9"/>
  <outline>
    <contour>
      <point x="451" y="-106"/>
      <point x="527" y="-92"/>
      <point x="608" y="-28" type="curve" smooth="yes"/>
      <point x="612" y="-26"/>
      <point x="606" y="-18"/>
      <point x="602" y="-20" type="curve" smooth="yes"/>
      <point x="538" y="-60"/>
      <point x="482" y="-71"/>
      <point x="418" y="-71" type="curve" smooth="yes"/>
      <point x="247" y="-71"/>
      <point x="138" y="40"/>
      <point x="138" y="213" type="curve" smooth="yes"/>
      <point x="138" y="357"/>
      <point x="223" y="480"/>
      <point x="377" y="480" type="curve" smooth="yes"/>
      <point x="510" y="480"/>
      <point x="608" y="371"/>
      <point x="608" y="236" type="curve" smooth="yes"/>
      <point x="608" y="132"/>
      <point x="538" y="67"/>
      <point x="464" y="67" type="curve" smooth="yes"/>
      <point x="360" y="67"/>
      <point x="318" y="143"/>
      <point x="318" y="230" type="curve" smooth="yes"/>
      <point x="318" y="302"/>
      <point x="327" y="340"/>
      <point x="371" y="340" type="curve" smooth="yes"/>
      <point x="401" y="340"/>
      <point x="413" y="318"/>
      <point x="425" y="297" type="curve" smooth="yes"/>
      <point x="434" y="278"/>
      <point x="446" y="261"/>
      <point x="468" y="261" type="curve" smooth="yes"/>
      <point x="498" y="261"/>
      <point x="511" y="277"/>
      <point x="511" y="303" type="curve" smooth="yes"/>
      <point x="511" y="346"/>
      <point x="454" y="364"/>
      <point x="404" y="364" type="curve" smooth="yes"/>
      <point x="317" y="364"/>
      <point x="227" y="303"/>
      <point x="227" y="195" type="curve" smooth="yes"/>
      <point x="227" y="120"/>
      <point x="276" y="39"/>
      <point x="411" y="39" type="curve" smooth="yes"/>
      <point x="567" y="39"/>
      <point x="675" y="151"/>
      <point x="675" y="268" type="curve" smooth="yes"/>
      <point x="675" y="392"/>
      <point x="573" y="503"/>
      <point x="412" y="503" type="curve" smooth="yes"/>
      <point x="235" y="503"/>
      <point x="64" y="375"/>
      <point x="64" y="187" type="curve" smooth="yes"/>
      <point x="64" y="1"/>
      <point x="211" y="-106"/>
      <point x="381" y="-106" type="curve" smooth="yes"/>
    </contour>
    <contour>
      <point x="350" y="309" type="move" name="top"/>
    </contour>
    <contour>
      <point x="358" y="0" type="move" name="bottom"/>
    </contour>
  </outline>
</glyph>
<glyph name="ordfeminine" format="1">
  <advance width="288"/>
  <unicode hex="00AA"/>
  <outline>
    <contour>
      <point x="264" y="283" type="line" smooth="yes"/>
      <point x="270" y="283"/>
      <point x="270" y="318"/>
      <point x="264" y="318" type="curve" smooth="yes"/>
      <point x="39" y="318" type="line" smooth="yes"/>
      <point x="34" y="318"/>
      <point x="34" y="283"/>
      <point x="40" y="283" type="curve" smooth="yes"/>
    </contour>
    <contour>
      <point x="281" y="398" type="line" smooth="yes"/>
      <point x="284" y="400"/>
      <point x="280" y="409"/>
      <point x="275" y="407" type="curve" smooth="yes"/>
      <point x="243" y="391"/>
      <point x="234" y="395"/>
      <point x="234" y="441" type="curve" smooth="yes"/>
      <point x="234" y="558" type="line" smooth="yes"/>
      <point x="234" y="608"/>
      <point x="202" y="630"/>
      <point x="163" y="630" type="curve" smooth="yes"/>
      <point x="115" y="630"/>
      <point x="26" y="596"/>
      <point x="26" y="558" type="curve" smooth="yes"/>
      <point x="26" y="537"/>
      <point x="41" y="523"/>
      <point x="64" y="523" type="curve" smooth="yes"/>
      <point x="92" y="523"/>
      <point x="99" y="544"/>
      <point x="102" y="561" type="curve" smooth="yes"/>
      <point x="105" y="589"/>
      <point x="117" y="612"/>
      <point x="136" y="612" type="curve" smooth="yes"/>
      <point x="153" y="612"/>
      <point x="170" y="606"/>
      <point x="170" y="538" type="curve" smooth="yes"/>
      <point x="170" y="419" type="line" smooth="yes"/>
      <point x="170" y="378"/>
      <point x="193" y="357"/>
      <point x="213" y="366" type="curve" smooth="yes"/>
    </contour>
    <contour>
      <point x="96" y="365"/>
      <point x="111" y="368"/>
      <point x="142" y="385" type="curve" smooth="yes"/>
      <point x="200" y="416" type="line"/>
      <point x="199" y="427" type="line"/>
      <point x="147" y="401" type="line" smooth="yes"/>
      <point x="140" y="398"/>
      <point x="133" y="396"/>
      <point x="125" y="396" type="curve" smooth="yes"/>
      <point x="110" y="396"/>
      <point x="99" y="407"/>
      <point x="99" y="425" type="curve" smooth="yes"/>
      <point x="99" y="443"/>
      <point x="109" y="454"/>
      <point x="127" y="461" type="curve" smooth="yes"/>
      <point x="194" y="487" type="line"/>
      <point x="193" y="497" type="line"/>
      <point x="70" y="455" type="line" smooth="yes"/>
      <point x="35" y="443"/>
      <point x="26" y="426"/>
      <point x="26" y="404" type="curve" smooth="yes"/>
      <point x="26" y="382"/>
      <point x="44" y="365"/>
      <point x="75" y="365" type="curve" smooth="yes"/>
    </contour>
    <contour>
      <point x="253" y="378" type="move" name="ogonek"/>
    </contour>
    <contour>
      <point x="144" y="625" type="move" name="top"/>
    </contour>
  </outline>
</glyph>
<glyph name="guillemetleft" format="1">
  <advance width="475"/>
  <unicode hex="00AB"/>
  <outline>
    <contour>
      <point x="243" y="36"/>
      <point x="249" y="43"/>
      <point x="248" y="46" type="curve" smooth="yes"/>
      <point x="156" y="201" type="line"/>
      <point x="248" y="356" type="line" smooth="yes"/>
      <point x="250" y="359"/>
      <point x="243" y="365"/>
      <point x="241" y="361" type="curve" smooth="yes"/>
      <point x="53" y="212" type="line" smooth="yes"/>
      <point x="47" y="206"/>
      <point x="47" y="195"/>
      <point x="53" y="189" type="curve" smooth="yes"/>
      <point x="241" y="40" type="line" smooth="yes"/>
    </contour>
    <contour>
      <point x="414" y="36"/>
      <point x="420" y="43"/>
      <point x="419" y="46" type="curve" smooth="yes"/>
      <point x="326" y="201" type="line"/>
      <point x="419" y="356" type="line" smooth="yes"/>
      <point x="421" y="359"/>
      <point x="414" y="365"/>
      <point x="412" y="361" type="curve" smooth="yes"/>
      <point x="223" y="212" type="line" smooth="yes"/>
      <point x="218" y="206"/>
      <point x="218" y="195"/>
      <point x="223" y="189" type="curve" smooth="yes"/>
      <point x="412" y="40" type="line" smooth="yes"/>
    </contour>
  </outline>
</glyph>
<glyph name="logicalnot" format="1">
  <advance width="395"/>
  <unicode hex="00AC"/>
  <outline>
    <contour>
      <point x="364" y="271" type="line"/>
      <point x="317" y="271" type="line"/>
      <point x="317" y="76" type="line" smooth="yes"/>
      <point x="317" y="71"/>
      <point x="364" y="71"/>
      <point x="364" y="77" type="curve" smooth="yes"/>
    </contour>
    <contour>
      <point x="364" y="225" type="line"/>
      <point x="364" y="271" type="line"/>
      <point x="33" y="271" type="line" smooth="yes"/>
      <point x="28" y="271"/>
      <point x="28" y="225"/>
      <point x="34" y="225" type="curve" smooth="yes"/>
    </contour>
  </outline>
</glyph>
<glyph name="registered" format="1">
  <advance width="740"/>
  <unicode hex="00AE"/>
  <outline>
    <contour>
      <point x="546" y="138"/>
      <point x="688" y="277"/>
      <point x="688" y="451" type="curve" smooth="yes"/>
      <point x="688" y="607"/>
      <point x="574" y="725"/>
      <point x="398" y="725" type="curve" smooth="yes"/>
      <point x="222" y="725"/>
      <point x="64" y="609"/>
      <point x="64" y="419" type="curve" smooth="yes"/>
      <point x="64" y="247"/>
      <point x="212" y="138"/>
      <point x="364" y="138" type="curve" smooth="yes"/>
    </contour>
    <contour>
      <point x="250" y="274"/>
      <point x="282" y="275"/>
      <point x="305" y="275" type="curve" smooth="yes"/>
      <point x="335" y="275"/>
      <point x="358" y="274"/>
      <point x="378" y="274" type="curve" smooth="yes"/>
      <point x="380" y="274"/>
      <point x="380" y="285"/>
      <point x="378" y="285" type="curve" smooth="yes"/>
      <point x="342" y="285"/>
      <point x="336" y="290"/>
      <point x="336" y="330" type="curve" smooth="yes"/>
      <point x="336" y="543" type="line" smooth="yes"/>
      <point x="336" y="589"/>
      <point x="345" y="591"/>
      <point x="371" y="591" type="curve" smooth="yes"/>
      <point x="398" y="591"/>
      <point x="415" y="568"/>
      <point x="415" y="515" type="curve" smooth="yes"/>
      <point x="415" y="455"/>
      <point x="394" y="440"/>
      <point x="316" y="449" type="curve"/>
      <point x="316" y="433" type="line"/>
      <point x="406" y="426"/>
      <point x="488" y="458"/>
      <point x="488" y="535" type="curve" smooth="yes"/>
      <point x="488" y="584"/>
      <point x="454" y="604"/>
      <point x="387" y="604" type="curve" smooth="yes"/>
      <point x="365" y="604"/>
      <point x="330" y="600"/>
      <point x="305" y="600" type="curve" smooth="yes"/>
      <point x="282" y="600"/>
      <point x="254" y="601"/>
      <point x="234" y="601" type="curve" smooth="yes"/>
      <point x="232" y="601"/>
      <point x="232" y="589"/>
      <point x="234" y="589" type="curve" smooth="yes"/>
      <point x="262" y="589"/>
      <point x="265" y="581"/>
      <point x="265" y="545" type="curve" smooth="yes"/>
      <point x="265" y="330" type="line" smooth="yes"/>
      <point x="265" y="290"/>
      <point x="262" y="285"/>
      <point x="234" y="285" type="curve" smooth="yes"/>
      <point x="232" y="285"/>
      <point x="232" y="274"/>
      <point x="234" y="274" type="curve" smooth="yes"/>
    </contour>
    <contour>
      <point x="247" y="164"/>
      <point x="126" y="284"/>
      <point x="126" y="456" type="curve" smooth="yes"/>
      <point x="126" y="585"/>
      <point x="194" y="701"/>
      <point x="359" y="701" type="curve" smooth="yes"/>
      <point x="513" y="701"/>
      <point x="621" y="598"/>
      <point x="621" y="418" type="curve" smooth="yes"/>
      <point x="621" y="273"/>
      <point x="551" y="164"/>
      <point x="402" y="164" type="curve" smooth="yes"/>
    </contour>
    <contour>
      <point x="477" y="274"/>
      <point x="512" y="274"/>
      <point x="561" y="274" type="curve" smooth="yes"/>
      <point x="564" y="274"/>
      <point x="564" y="281"/>
      <point x="561" y="282" type="curve" smooth="yes"/>
      <point x="512" y="310"/>
      <point x="480" y="351"/>
      <point x="432" y="451" type="curve"/>
      <point x="372" y="437" type="line"/>
      <point x="418" y="338"/>
      <point x="450" y="274"/>
      <point x="463" y="274" type="curve" smooth="yes"/>
    </contour>
    <contour>
      <point x="360" y="595" type="move" name="top"/>
    </contour>
    <contour>
      <point x="399" y="268" type="move" name="bottom"/>
    </contour>
  </outline>
</glyph>
